<svg xmlns="http://www.w3.org/2000/svg" xmlns:xlink="http://www.w3.org/1999/xlink" width="184" height="58" viewBox="0 0 184 58">
    <defs>
        <path id="prefix__a" d="M154.316 0c16.016 0 29 12.984 29 29s-12.984 29-29 29H29C12.984 58 0 45.016 0 29S12.984 0 29 0h125.316zm0 1H29C13.536 1 1 13.536 1 29s12.536 28 28 28h125.316c15.464 0 28-12.536 28-28s-12.536-28-28-28z"/>
        <path id="prefix__b" d="M15.079 4.22c.868-1.094 1.527-2.64 1.289-4.22-1.42.096-3.08.983-4.048 2.139-.882 1.047-1.608 2.605-1.325 4.117 1.552.047 3.154-.861 4.084-2.035zm7.671 14.856c-.621 1.351-.92 1.955-1.72 3.152-1.116 1.671-2.69 3.752-4.642 3.767-1.733.019-2.18-1.108-4.532-1.094-2.352.012-2.842 1.116-4.578 1.099-1.95-.017-3.442-1.894-4.558-3.565C-.403 17.765-.73 12.285 1.195 9.37c1.37-2.07 3.53-3.28 5.56-3.28 2.066 0 3.366 1.112 5.076 1.112 1.66 0 2.67-1.116 5.06-1.116 1.809 0 3.725.968 5.088 2.637-4.47 2.406-3.746 8.676.771 10.353z"/>
    </defs>
    <g fill="none" fill-rule="evenodd">
        <use fill="#495680" xlink:href="#prefix__a"/>
        <text fill="#FFF" font-family="Poppins-Medium, Poppins" font-size="14" font-weight="400" opacity=".8">
            <tspan x="66.375" y="42">App Store</tspan>
        </text>
        <text fill="#FFF" font-family="Poppins-Medium, Poppins" font-size="10" font-weight="400" opacity=".8">
            <tspan x="66.375" y="26">Download on the</tspan>
        </text>
        <g opacity=".8" transform="translate(32 16)">
            <use fill="#FFF" fill-rule="nonzero" xlink:href="#prefix__b"/>
        </g>
    </g>
</svg>
