<svg xmlns="http://www.w3.org/2000/svg" width="11" height="12" viewBox="0 0 11 12">
    <path fill="#666" d="M8.653 0C7.81 0 7.126.684 7.126 1.527c.001.113.014.226.04.336l-3.018 2.27c-.453-.368-1.019-.569-1.603-.57C1.14 3.563 0 4.703 0 6.108c0 1.406 1.14 2.545 2.545 2.545.645 0 1.265-.245 1.736-.686l2.885 2.172c-.024.108-.04.219-.04.334 0 .843.684 1.527 1.527 1.527.844 0 1.528-.684 1.528-1.527 0-.843-.684-1.527-1.528-1.527-.356 0-.678.127-.938.332L4.872 7.136c.143-.323.218-.673.218-1.028 0-.413-.1-.82-.294-1.187l2.915-2.193c.269.211.6.326.942.326.844 0 1.528-.684 1.528-1.527C10.18.684 9.497 0 8.653 0z"/>
</svg>
