<svg xmlns="http://www.w3.org/2000/svg" width="12" height="12" viewBox="0 0 12 12">
    <path fill="#666" d="M10.355 4.476l-.204-.494c.7-1.614.654-1.662.517-1.8l-.894-.892-.089-.077h-.103c-.055 0-.217 0-1.577.629l-.5-.206C6.858 0 6.792 0 6.6 0H5.341c-.19 0-.263 0-.861 1.642l-.498.206c-.918-.396-1.457-.6-1.602-.6h-.12l-.96.96c-.148.15-.2.2.54 1.788l-.203.493C0 5.135 0 5.197 0 5.4v1.258c0 .198 0 .267 1.643.868l.204.492c-.7 1.614-.653 1.662-.517 1.8l.894.893.088.078h.105c.054 0 .215 0 1.575-.63l.5.208C5.138 12 5.204 12 5.4 12h1.256c.194 0 .262 0 .863-1.64l.5-.207c.919.396 1.455.6 1.6.6h.12l.97-.968c.138-.142.186-.191-.55-1.774l.203-.493C12 6.865 12 6.797 12 6.6V5.342c0-.198 0-.267-1.645-.866zM6 8.099c-.85.002-1.617-.509-1.944-1.294-.326-.784-.147-1.688.453-2.29.6-.601 1.504-.782 2.29-.456C7.584 4.384 8.096 5.15 8.095 6 8.093 7.157 7.157 8.095 6 8.099z"/>
</svg>
