<svg xmlns="http://www.w3.org/2000/svg" width="12" height="12" viewBox="0 0 12 12">
    <path fill="#666" d="M6 0C2.686 0 0 2.686 0 6s2.686 6 6 6 6-2.686 6-6c0-1.591-.632-3.117-1.757-4.243C9.117.632 7.59 0 6 0zm0 10.076c-.402 0-.727-.325-.727-.727 0-.402.325-.727.727-.727.402 0 .727.325.727.727 0 .402-.325.727-.727.727zm1.09-3.149c-.227.112-.37.346-.363.6v.377c0 .1-.081.181-.182.181h-1.09c-.1 0-.182-.08-.182-.181v-.377c-.008-.822.464-1.574 1.209-1.923.432-.196.702-.634.682-1.108-.033-.603-.515-1.084-1.119-1.116-.316-.013-.625.104-.853.324-.228.22-.357.524-.356.841 0 .1-.081.182-.181.182H3.564c-.1 0-.182-.081-.182-.182 0-.712.289-1.393.802-1.887.513-.494 1.204-.758 1.916-.73 1.212.046 2.234.918 2.47 2.108.235 1.19-.376 2.386-1.48 2.891z"/>
</svg>
