<svg xmlns="http://www.w3.org/2000/svg" width="31" height="31" viewBox="0 0 31 31">
    <g fill="none">
        <path fill="#FFD900" d="M0 15.5C0 6.94 6.94 0 15.5 0 24.06 0 31 6.94 31 15.5 31 24.06 24.06 31 15.5 31 6.94 31 0 24.06 0 15.5z"/>
        <path fill="#FFF" d="M17.09 5.683c-1.429 0-2.623 1.153-2.623 2.575 0 1.422 1.194 2.575 2.623 2.575 1.427 0 2.64-1.153 2.64-2.575 0-1.422-1.213-2.575-2.64-2.575zM21.912 14.827s-.6-1.11-1.355-2.257c-1.234 1.105-2.512.92-3.056.802-.716-.155-.91-.457-.851-.723-.418-.132-1.886-.995-2.773-1.282-1.707 1.033-2.39 3.614-2.308 6.24-1.145 2.164-1.998 2.892-4.336 3.427.44 1.027.618 1.411 1.27 2.772 2.923-.787 4.793-2.492 5.941-3.952 1.956.494 3.387 1.731 4.568 3.975 1.227-1.018 1.363-1.122 2.406-1.957-.813-1.937-2.812-3.612-4.714-4.525.018-.458.032-.573.052-.933 2.794.727 5.156-1.587 5.156-1.587z"/>
    </g>
</svg>
