<svg xmlns="http://www.w3.org/2000/svg" width="31" height="31" viewBox="0 0 31 31">
    <g fill="none" fill-rule="evenodd">
        <path fill="#FFF" fill-rule="nonzero" d="M0 15.5C0 6.94 6.94 0 15.5 0 24.06 0 31 6.94 31 15.5 31 24.06 24.06 31 15.5 31 6.94 31 0 24.06 0 15.5z"/>
        <path fill="#221F1F" d="M11.898 13.542c-.383.552-.575 1.217-.575 1.996h-.003c0 .982.28 1.74.837 2.275.558.535 1.272.803 2.14.803.564 0 1.038-.056 1.421-.17.609-.17 1.228-.598 1.86-1.286.046.057.125.166.24.331.111.164.192.273.243.33.05.056.135.147.254.27.118.125.255.255.414.39.191.079.355.067.49-.035.08-.068.586-.506 1.523-1.32.09-.067.135-.146.135-.236 0-.079-.033-.17-.101-.27l-.388-.517c-.08-.107-.163-.281-.244-.526-.089-.258-.132-.529-.128-.802v-4.092c0-.044-.005-.188-.016-.43-.012-.242-.028-.4-.052-.474-.036-.132-.07-.263-.102-.396-.044-.193-.093-.34-.151-.441-.068-.121-.145-.237-.229-.347-.097-.13-.2-.251-.312-.364-.723-.665-1.726-.998-3.011-.998h-.422c-1.002.056-1.88.327-2.63.812-.75.485-1.22 1.229-1.412 2.232-.01.039-.016.079-.017.119 0 .158.097.259.287.305l1.945.237c.18-.033.294-.164.34-.389.078-.36.252-.643.523-.846.272-.205.593-.321.965-.356h.131c.509 0 .88.17 1.117.51.156.246.238.731.238 1.452v.288c-.497.037-.993.082-1.488.135-.891.113-1.64.299-2.249.558-.666.282-1.19.7-1.573 1.252zm2.662 2.715c-.22-.268-.328-.619-.328-1.059l-.002.002c0-.97.496-1.596 1.488-1.876.337-.09.834-.137 1.489-.137v.422c0 .361-.003.621-.008.78-.014.208-.048.414-.101.616-.06.246-.154.482-.28.702-.259.484-.626.788-1.098.912-.024 0-.066.007-.128.018-.063.01-.11.015-.144.015-.372 0-.667-.132-.888-.395z"/>
        <path fill="#F90" fill-rule="nonzero" d="M21.333 20.644c.027-.05.06-.096.1-.136.284-.19.554-.32.815-.388.408-.109.828-.171 1.25-.186.107-.011.216-.006.321.017.508.047.814.13.914.256.046.066.067.168.067.303v.118c0 .395-.107.86-.321 1.395-.215.535-.514.967-.895 1.294-.058.047-.109.068-.154.068-.023 0-.046-.006-.067-.017-.07-.035-.085-.096-.052-.186.42-.98.627-1.662.627-2.046 0-.124-.024-.215-.068-.271-.113-.134-.428-.202-.947-.202-.192 0-.417.011-.675.035-.284.035-.543.067-.78.101-.069 0-.112-.012-.135-.035-.023-.023-.028-.044-.016-.068 0-.01.005-.027.016-.05v-.002z"/>
        <path fill="#F90" fill-rule="nonzero" d="M6.235 20.357c.055-.09.145-.097.27-.017 2.818 1.634 5.885 2.453 9.2 2.453 2.208 0 4.391-.413 6.545-1.236l.244-.101c.108-.047.183-.079.228-.1.17-.069.303-.036.399.1.095.135.064.26-.093.372-.204.146-.463.316-.779.507-.969.575-2.05 1.02-3.246 1.337-1.194.314-2.36.473-3.5.473-1.758 0-3.421-.308-4.988-.922-1.55-.603-2.977-1.483-4.212-2.596-.068-.055-.103-.113-.103-.168 0-.037.013-.072.035-.102z"/>
    </g>
</svg>
