<svg xmlns="http://www.w3.org/2000/svg" width="31" height="31" viewBox="0 0 31 31">
    <defs>
        <linearGradient id="prefix__a" x1="55.5%" x2="6.205%" y1="-14.126%" y2="53.115%">
            <stop offset="0%" stop-color="#0052CC"/>
            <stop offset="92.3%" stop-color="#2684FF"/>
        </linearGradient>
    </defs>
    <g fill="none">
        <path fill="#FFF" d="M0 15.5C0 6.94 6.94 0 15.5 0 24.06 0 31 6.94 31 15.5 31 24.06 24.06 31 15.5 31 6.94 31 0 24.06 0 15.5z"/>
        <path fill="url(#prefix__a)" d="M12.33 13.327c-.231-.246-.59-.232-.747.082l-3.785 7.57c-.07.14-.063.307.02.44.082.134.228.215.385.214h5.27c.173.005.332-.093.405-.25 1.137-2.35.449-5.922-1.548-8.056z"/>
        <path fill="#2681FF" d="M15.107 6.442c-2.117 3.355-1.977 7.07-.583 9.858l2.542 5.084c.077.153.233.25.404.25h5.272c.157 0 .303-.081.385-.215.083-.133.09-.3.02-.44l-7.27-14.54c-.16-.317-.565-.322-.77.003z"/>
    </g>
</svg>
