<svg xmlns="http://www.w3.org/2000/svg" width="19" height="16" viewBox="0 0 19 16">
    <path fill="#5F6368" d="M15.404.246c.24-.288.624-.32.832-.112l.736.736c.208.208.176.592-.128.832L2.793 15.754c-.24.288-.624.32-.832.112l-.737-.736c-.16-.208-.128-.592.112-.832l2.097-2.129C1.993 11.193.84 9.896.072 8.33c-.096-.177-.096-.433 0-.641C1.72 4.375 5.145 2.07 9.098 2.054c1.329 0 2.593.24 3.745.737zm.512 4.497c.912.816 1.649 1.825 2.209 2.945.096.208.096.432-.048.656-1.649 3.329-5.074 5.634-9.027 5.634-.72 0-1.456-.096-2.16-.24l1.888-1.889h.32c2.129 0 3.841-1.712 3.841-3.841v-.32zm-6.834-.576c-2.128 0-3.84 1.712-3.84 3.841 0 .704.175 1.328.495 1.888L6.81 8.84c-.08-.272-.144-.56-.144-.832 0-1.36 1.088-2.449 2.448-2.449.272 0 .56.08.833.144l1.024-1.04c-.56-.32-1.184-.496-1.889-.496z"/>
</svg>
