<svg xmlns="http://www.w3.org/2000/svg" width="16" height="16" viewBox="0 0 16 16">
    <path fill="#555" fill-rule="evenodd" d="M3 12c.552 0 1 .448 1 1v2c0 .552-.448 1-1 1H1c-.552 0-1-.448-1-1v-2c0-.552.448-1 1-1h2zm6 0c.552 0 1 .448 1 1v2c0 .552-.448 1-1 1H7c-.552 0-1-.448-1-1v-2c0-.552.448-1 1-1h2zm6 0c.552 0 1 .448 1 1v2c0 .552-.448 1-1 1h-2c-.552 0-1-.448-1-1v-2c0-.552.448-1 1-1h2zM3 6c.552 0 1 .448 1 1v2c0 .552-.448 1-1 1H1c-.552 0-1-.448-1-1V7c0-.552.448-1 1-1h2zm6 0c.552 0 1 .448 1 1v2c0 .552-.448 1-1 1H7c-.552 0-1-.448-1-1V7c0-.552.448-1 1-1h2zm6 0c.552 0 1 .448 1 1v2c0 .552-.448 1-1 1h-2c-.552 0-1-.448-1-1V7c0-.552.448-1 1-1h2zM3 0c.552 0 1 .448 1 1v2c0 .552-.448 1-1 1H1c-.552 0-1-.448-1-1V1c0-.552.448-1 1-1h2zm6 0c.552 0 1 .448 1 1v2c0 .552-.448 1-1 1H7c-.552 0-1-.448-1-1V1c0-.552.448-1 1-1h2zm6 0c.552 0 1 .448 1 1v2c0 .552-.448 1-1 1h-2c-.552 0-1-.448-1-1V1c0-.552.448-1 1-1h2z"/>
</svg>
