<svg xmlns="http://www.w3.org/2000/svg" width="31" height="31" viewBox="0 0 31 31">
    <g fill="none">
        <path fill="#FFF" d="M15.5 31C24.06 31 31 24.06 31 15.5 31 6.94 24.06 0 15.5 0 6.94 0 0 6.94 0 15.5 0 24.06 6.94 31 15.5 31z"/>
        <path fill="#FFE300" d="M21.73 18.63l4.07-2.257c.458-.255.94-.905 0-1.425l-4.072-2.25-2.915 2.974 2.917 2.957z"/>
        <path fill="#FF4E54" d="M18.813 15.673l-9.322 9.513c.21.028.464-.029.755-.19l11.484-6.367-2.917-2.956z"/>
        <path fill="#00F085" d="M18.813 15.672l2.914-2.974-11.48-6.344c-.25-.139-.522-.186-.763-.132l9.33 9.45z"/>
        <path fill="#00E0FF" d="M18.813 15.673L9.485 6.222c-.386.087-.702.425-.702 1.104v16.727c0 .64.249 1.089.708 1.134l9.322-9.514z"/>
    </g>
</svg>
