<svg xmlns="http://www.w3.org/2000/svg" width="16" height="16" viewBox="0 0 16 16">
    <path fill="#57AC1D" d="M4.24 0l7.912 7.912c.936.936.951 2.37.045 3.321l-.045.047-4.076 4.076c-.875.875-2.307.853-3.241-.035l-.047-.045L.712 11.2c-.936-.936-.95-2.37-.036-3.33l.045-.047 4.612-4.47L3.11 1.13 4.24 0zm9.425 11.194l.072.107c.313.465 1.526 2.324 1.526 3.09 0 .88-.719 1.598-1.598 1.598-.88 0-1.598-.719-1.598-1.598 0-.88 1.598-3.197 1.598-3.197zm-7.202-6.71l-4.62 4.478c-.186.186-.267.413-.241.634h9.665c0-.183-.071-.365-.214-.522l-.031-.032-4.559-4.558z"/>
</svg>
