<svg xmlns="http://www.w3.org/2000/svg" width="16" height="16" viewBox="0 0 16 16">
    <path fill="#57AC1D" d="M13.806 5.968l-.272-.66c.933-2.151.872-2.215.69-2.4L13.032 1.72l-.118-.102h-.138c-.074 0-.29 0-2.102.838l-.668-.275C9.144 0 9.056 0 8.8 0H7.122c-.253 0-.35 0-1.15 2.189l-.663.275c-1.224-.528-1.943-.8-2.136-.8h-.16l-1.28 1.28c-.197.2-.266.266.721 2.384l-.272.658C0 6.846 0 6.93 0 7.2v1.677c0 .264 0 .357 2.19 1.158l.272.656c-.932 2.152-.87 2.216-.69 2.4l1.193 1.19.118.105h.14c.071 0 .286 0 2.1-.84l.666.276C6.85 16 6.939 16 7.2 16h1.675c.258 0 .349 0 1.15-2.187l.668-.275c1.224.528 1.939.8 2.133.8h.16l1.292-1.292c.184-.188.248-.254-.732-2.364l.27-.658C16 9.154 16 9.062 16 8.8V7.123c0-.264 0-.357-2.194-1.155zM8 10.798c-1.133.003-2.156-.678-2.592-1.724-.435-1.046-.197-2.252.604-3.054.8-.802 2.006-1.042 3.053-.609 1.047.434 1.73 1.456 1.729 2.589C10.79 9.543 9.543 10.793 8 10.798z"/>
</svg>
