<svg xmlns="http://www.w3.org/2000/svg" width="16" height="16" viewBox="0 0 16 16">
    <path fill="#5F6368" d="M8.002 0c-.447 0-.893.036-1.334.108C4.32.503 2.27 1.924 1.076 3.985-.117 6.046-.33 8.532.497 10.765c.206.563.742.936 1.341.935.373 0 .73-.149.992-.414.522-.518 1.364-.517 1.883.003.52.52.521 1.361.003 1.883-.341.343-.484.836-.378 1.309.105.472.444.858.899 1.024.885.328 1.821.496 2.765.495.485 0 .97-.043 1.447-.128 4.07-.747 6.9-4.475 6.524-8.597C15.597 3.154 12.14 0 8.003 0zM3.558 8.889c-.491 0-.89-.398-.89-.889 0-.49.399-.889.89-.889.49 0 .888.398.888.889 0 .49-.397.889-.888.889zm1.555-3.111c-.613 0-1.11-.498-1.11-1.111 0-.614.497-1.111 1.11-1.111.614 0 1.111.497 1.111 1.11 0 .295-.117.578-.325.786-.209.209-.491.326-.786.326zm2.445-2c0-.614.497-1.111 1.11-1.111.614 0 1.112.497 1.112 1.11 0 .614-.498 1.112-1.111 1.112-.295 0-.578-.117-.786-.326-.208-.208-.325-.49-.325-.785zM10.89 12c-.63 0-1.196-.379-1.437-.96-.241-.582-.108-1.25.337-1.696.445-.444 1.114-.577 1.695-.337.581.241.96.808.96 1.437 0 .86-.696 1.556-1.555 1.556zm1.111-4.444c-.736 0-1.333-.597-1.333-1.334 0-.736.597-1.333 1.333-1.333s1.333.597 1.333 1.333c0 .354-.14.693-.39.943s-.59.39-.943.39z"/>
</svg>
