<svg xmlns="http://www.w3.org/2000/svg" width="31" height="31" viewBox="0 0 31 31">
    <g fill="none" fill-rule="evenodd">
        <path fill="#F36" fill-rule="nonzero" d="M0 15.5C0 6.94 6.94 0 15.5 0 24.06 0 31 6.94 31 15.5 31 24.06 24.06 31 15.5 31 6.94 31 0 24.06 0 15.5z"/>
        <path fill="#FFF" d="M12.032 9.398c0-.934-.764-1.648-1.673-1.648-.911 0-1.674.714-1.674 1.648 0 .935.762 1.649 1.673 1.649.91 0 1.674-.714 1.674-1.649zm7.01 11.737c0 1.378.812 2.387 2.51 2.387 1.452 0 2.608-.935 3.248-3.174l-1.082-.418c-.542 1.5-1.01 1.771-1.379 1.771-.368 0-.565-.245-.565-.737 0-.222.05-.467.122-.763l.788-2.828c.177-.581.269-1.185.27-1.793 0-2.116-1.279-3.218-2.83-3.218-1.45 0-2.927 1.314-3.665 2.692L17 12.59h-4.207l-.591 2.185h1.968l-1.211 4.842c-.952 2.116-2.701 2.139-2.92 2.09-.36-.082-.591-.216-.591-.684 0-.27.049-.654.172-1.122l1.845-7.31H6.79l-.59 2.184h1.944l-1.255 5.11c-.095.401-.144.811-.148 1.223 0 1.452.788 2.41 2.46 2.41 1.389 0 2.513-.834 3.324-2.165l-.495 1.963h2.756l1.574-6.294c.394-1.6 1.156-2.408 2.314-2.408.91 0 1.476.566 1.476 1.5 0 .272-.025.567-.123.887l-.812 2.903c-.116.4-.174.814-.173 1.23z"/>
    </g>
</svg>
