<svg xmlns="http://www.w3.org/2000/svg" width="31" height="31" viewBox="0 0 31 31">
    <g fill="none">
        <path fill="#00B900" d="M0 15.5C0 6.94 6.94 0 15.5 0 24.06 0 31 6.94 31 15.5 31 24.06 24.06 31 15.5 31 6.94 31 0 24.06 0 15.5z"/>
        <path fill="#FFF" d="M15.758 7.233c-5.27 0-9.558 3.455-9.558 7.701 0 3.807 3.4 6.995 7.993 7.598.312.066.736.203.843.467.097.24.063.617.03.859l-.136.812c-.041.24-.191.938.828.512 1.02-.427 5.505-3.218 7.51-5.51 1.385-1.508 2.049-3.039 2.049-4.738 0-4.246-4.288-7.7-9.559-7.7z"/>
        <path fill="#00B900" d="M13.101 12.917c-.05 0-.097.02-.132.057-.034.035-.053.083-.052.133v4.27c-.001.049.018.097.052.133.035.036.083.056.132.057h.664c.05-.001.098-.021.132-.057.035-.036.054-.084.053-.134v-4.269c0-.05-.018-.098-.053-.133-.034-.036-.082-.057-.132-.057h-.664zM18.406 12.917h-.7c-.106 0-.194.085-.194.19v2.536l-1.99-2.641-.016-.02v-.001c-.009-.009-.017-.017-.027-.024l-.004-.004-.01-.006-.017-.009-.006-.003-.011-.005-.007-.002-.01-.004-.007-.002-.012-.002-.008-.001-.01-.002h-.717c-.107 0-.194.085-.194.19v4.27c0 .104.087.19.194.19h.7c.107 0 .194-.086.194-.19V14.84l1.993 2.646c.014.019.031.036.051.049l.012.006.006.003.009.005.01.004.005.002.013.004h.003c.016.005.033.007.05.007h.699c.108 0 .194-.085.194-.19v-4.27c0-.105-.087-.19-.193-.19zM12.211 16.498H10.36v-3.39c0-.051-.02-.1-.055-.135-.035-.036-.084-.056-.134-.056h-.681c-.05 0-.1.02-.135.056-.035.036-.055.084-.055.135v4.267c0 .051.02.1.056.136l.002.002c.035.034.083.054.132.054h2.722c.05 0 .098-.021.134-.057.035-.036.055-.084.054-.135v-.687c0-.104-.084-.19-.188-.19zM22.028 13.986c.105-.001.189-.086.189-.191v-.687c0-.05-.02-.099-.055-.135-.035-.036-.084-.056-.134-.056h-2.722c-.05 0-.097.02-.132.054l-.002.002-.003.003c-.034.036-.052.083-.052.132v4.267c0 .105.084.19.188.192h2.723c.05 0 .099-.021.134-.057.035-.036.055-.084.055-.135v-.687c0-.104-.084-.19-.189-.19h-1.852v-.722h1.851c.105 0 .19-.086.189-.19v-.688c0-.05-.02-.099-.055-.135-.035-.035-.083-.056-.134-.056h-1.851v-.721H22.028z"/>
    </g>
</svg>
