<svg xmlns="http://www.w3.org/2000/svg" width="31" height="31" viewBox="0 0 31 31">
    <g fill="none">
        <path fill="#FFF" d="M15.5 30.873c8.56 0 15.5-6.91 15.5-15.436C31 6.912 24.06 0 15.5 0 6.94 0 0 6.911 0 15.437c0 8.525 6.94 15.436 15.5 15.436z"/>
        <path fill="#E60019" d="M15.5 0C6.94 0 0 6.912 0 15.437c0 6.542 4.082 12.132 9.849 14.381-.14-1.22-.256-3.1.05-4.434.281-1.207 1.812-7.673 1.812-7.673s-.459-.928-.459-2.287c0-2.148 1.25-3.748 2.806-3.748 1.327 0 1.965.99 1.965 2.173 0 1.32-.842 3.302-1.288 5.145-.37 1.537.778 2.795 2.296 2.795 2.755 0 4.873-2.896 4.873-7.064 0-3.697-2.666-6.276-6.48-6.276-4.414 0-7.004 3.29-7.004 6.695 0 1.322.51 2.745 1.148 3.52.11.12.15.289.102.444-.115.483-.383 1.537-.434 1.754-.063.279-.23.342-.523.203-1.939-.902-3.151-3.71-3.151-5.984 0-4.867 3.547-9.339 10.244-9.339 5.37 0 9.555 3.812 9.555 8.92 0 5.323-3.368 9.605-8.037 9.605-1.569 0-3.049-.814-3.546-1.78l-.97 3.672c-.344 1.347-1.288 3.024-1.926 4.053 1.488.456 3.036.688 4.592.687 8.56 0 15.5-6.912 15.5-15.437C31 6.912 24.061 0 15.5 0z"/>
    </g>
</svg>
