<svg xmlns="http://www.w3.org/2000/svg" width="31" height="31" viewBox="0 0 31 31">
    <g fill="none">
        <path fill="red" d="M0 15.5C0 6.94 6.94 0 15.5 0 24.06 0 31 6.94 31 15.5 31 24.06 24.06 31 15.5 31 6.94 31 0 24.06 0 15.5z"/>
        <path fill="#FFF" d="M23.421 11.672c-.19-.73-.75-1.305-1.461-1.5-1.29-.355-6.46-.355-6.46-.355s-5.17 0-6.46.355c-.71.195-1.271.77-1.461 1.5-.346 1.324-.346 4.086-.346 4.086s0 2.763.346 4.087c.19.73.75 1.305 1.461 1.5 1.29.355 6.46.355 6.46.355s5.17 0 6.46-.355c.71-.195 1.271-.77 1.461-1.5.346-1.324.346-4.087.346-4.087s0-2.762-.346-4.086z"/>
        <path fill="red" d="M13.95 18.6L13.95 13.433 18.083 16.017z"/>
    </g>
</svg>
