<svg xmlns="http://www.w3.org/2000/svg" width="35" height="40" viewBox="0 0 35 40">
    <g fill="none" fill-rule="evenodd">
        <path fill="#F5A96C" d="M8.936 15.709l1.082-1.798-1.082-2.133-.44-.44-.437.038c-.203.019-.391.144-.488.121-1.915-.394-1.775 4.212.442 4.212h.923zM26.518 15.754c2.217 0 2.362-4.57.442-4.195l-.741-.303-.624.57-.796 2.277.796 1.651h.923z"/>
        <path fill="#918291" d="M11.183 40C8.98 36.028 7.187 30.665 6.19 26.006 3.236 27.145 0 30.846 0 35.326v4.188c0 .267.221.486.49.486h10.693zM34.531 39.514v-4.188c0-4.48-3.239-8.181-6.19-9.32-.996 4.659-2.79 10.022-4.993 13.994H34.04c.27 0 .491-.219.491-.486z"/>
        <path fill="#C6D0DA" d="M23.348 40c2.203-3.972 3.997-9.335 4.993-13.994.36-1.68.615-3.273.748-4.672.058-.663-.494-.985-.909-.985h-7.923c.21 6.949 1.551 11.1.403 19.651h2.688zM13.871 40c-1.03-6.698-.331-9.406 1.494-13.106l-.897-5.311-4.217-1.234h-3.9c-.414 0-.969.321-.911.985.133 1.399.39 2.991.75 4.672.997 4.659 2.79 10.022 4.993 13.994h2.688z"/>
        <path fill="#FAF8F9" d="M13.871 40l3.435-8.676-4.298-5.726c-1.825 3.7-1.825 9.21.863 14.402zM20.66 40c2.689-5.192 2.689-10.702.863-14.402-2.622.575-4 3.945-4.217 5.726L20.257 40h.403z"/>
        <path fill="#DA4A54" d="M18.307 31.324L19.884 27.763 14.527 27.777 15.819 31.324z"/>
        <path fill="#DA4A54" d="M20.257 40L18.307 31.324 17.064 30.174 15.819 31.324 13.871 40 17.264 40z"/>
        <path fill="#C32430" d="M20.257 40l-1.95-8.676 1.577-3.56c-.44.234-.94.4-1.464.499-.454 1.02-.905 2.042-1.356 3.061L19.012 40h1.245z"/>
        <path fill="#FFBC85" d="M14.527 27.777c2.328 1.207 6.55.636 6.996-2.179v-2.425h-8.515v2.425c0 .974.617 1.711 1.52 2.179z"/>
        <path fill="#FED1A3" d="M21.523 23.17c1.098-.768 2.049-1.758 2.758-2.821.557-.837.962-1.723 1.165-2.58.096-.409.15-.812.15-1.203v-4.74l-8.198-.317c-3.135-.121-6.14.686-8.462.269 0 1.624-.08 3.44.007 5.04.016.312.064.629.14.95.205.858.61 1.744 1.167 2.58.707 1.064 1.66 2.054 2.756 2.823 0 .166 1.917 1.05 2.173 1.143.757.271 1.422.406 2.085.406.666 0 1.329-.135 2.088-.406.256-.094 2.171-.977 2.171-1.143z"/>
        <path fill="#BCD0DF" d="M13.858 18.168c1.084 0 1.963-.872 1.963-1.946 0-1.075-.88-1.944-1.963-1.944-1.085 0-1.964.87-1.964 1.944 0 .36.1.698.272.988.34.572.971.958 1.692.958z"/>
        <path fill="#918291" d="M17.398 12.444c3.078 0 5.918-.23 8.197-.618.481-.082.937-.171 1.365-.267 2.496-.557 4.042-1.328 4.042-2.181 0-.967-1.984-1.83-5.085-2.39-6.021-.227-10.296-.585-17.036 0-3.1.56-5.085 1.423-5.085 2.39 0 .821 1.436 1.567 3.775 2.12.426.1.882.193 1.365.28 2.323.417 5.265.666 8.462.666z"/>
        <path fill="#C6D0DA" d="M8.991 7.872c5.189 1.05 11.627 1.05 16.816 0 .099-.02.189-.018.184-.155-.007-.235-.032-.479-.074-.73-.547-3.324-4.021-7.92-6.47-6.82-.836.375-1.494.565-2.049.629-.553-.064-1.21-.254-2.049-.63-2.447-1.1-5.92 3.497-6.468 6.821-.042.251-.067.495-.074.73-.004.137.085.135.184.155z"/>
        <path fill="#A0AAB7" d="M25.917 6.987c-.547-3.324-4.021-7.92-6.47-6.82-.615.277-1.135.453-1.589.551 1.996.568 4.155 3.561 4.867 6.137.13.477.225.979.239 1.474.976-.121 1.929-.272 2.843-.457.02-.004.041-.009.062-.011.071-.016.124-.036.122-.144-.007-.235-.032-.479-.074-.73z"/>
        <path fill="#685D68" d="M26.96 11.559c2.496-.557 4.042-1.328 4.042-2.181 0-.967-1.984-1.83-5.085-2.39.042.25.067.494.074.73.002.106-.05.127-.122.143-.02.002-.041.007-.062.011-.914.185-1.867.336-2.843.457-.382 1.72-3.188 2.641-3.787 2.776-.428.096-.884.185-1.365.267-.26.043-.53.087-.805.125-1.962.288-4.273.463-6.757.488 2.077.29 4.526.459 7.148.459 3.078 0 5.918-.23 8.197-.618.481-.082.937-.171 1.365-.267zM26.161 40c1.916-3.74 3.479-8.468 4.409-12.673-.723-.584-1.485-1.033-2.229-1.32-.996 4.658-2.79 10.021-4.993 13.993h2.813zM8.37 40c-1.915-3.74-3.478-8.468-4.41-12.673.724-.584 1.486-1.033 2.23-1.32.997 4.658 2.79 10.021 4.993 13.993H8.37z"/>
        <path fill="#81A7C6" d="M15.821 16.222c0-1.075-.88-1.944-1.963-1.944-.205 0-.403.03-.587.087.711.294 1.21.988 1.21 1.798 0 .871-.58 1.61-1.376 1.857.232.095.486.148.753.148 1.084 0 1.963-.872 1.963-1.946z"/>
        <path fill="#FFBC85" d="M23.705 14.385c-.117 1.951.293 4.278-.354 5.964-.221.577-.525 1.156-.898 1.715-.216.327-.458.646-.718.956 1.008-.746 1.883-1.677 2.546-2.671.557-.837.962-1.723 1.164-2.58.097-.409.15-.812.15-1.203v-.812-1.651-2.277c-2.279.388-5.12.618-8.197.618-2.622 0-5.071-.169-7.148-.458-.458-.064-.895-.133-1.314-.208l-.016 1.533c5.49.691 7.189.787 13.448.306 1.137-.087 1.402-.29 1.337.768z"/>
        <path fill="#F5A96C" d="M20.476 26.002v1.371c.099-.08.193-.164.28-.256.394-.403.67-.908.767-1.519v-2.425c-2.788 1.957-5.552 2.08-8.515-.002v1.537c4.316 3.35 7.468-.472 7.468 1.294z"/>
        <path fill="#685D68" fill-rule="nonzero" d="M4.817 40v-2.585c0-.333.271-.604.604-.604.333 0 .604.27.604.604V40H4.817zM28.506 40v-2.585c0-.333.27-.604.604-.604.333 0 .604.27.604.604V40h-1.208zM13.858 18.771c-1.416 0-2.568-1.143-2.568-2.549 0-1.405 1.152-2.547 2.568-2.547 1.415 0 2.567 1.142 2.567 2.547 0 1.406-1.152 2.55-2.567 2.55zm0-3.89c-.75 0-1.36.602-1.36 1.341 0 .74.61 1.342 1.36 1.342.75 0 1.36-.602 1.36-1.342 0-.739-.61-1.34-1.36-1.34z"/>
        <path fill="#685D68" fill-rule="nonzero" d="M10.61 18.159c-1.025 0-1.698-.463-2.12-.943-.22-.25-.196-.632.055-.852.25-.22.631-.195.851.055.202.23.816.928 2.544.231.31-.125.66.025.786.334.124.31-.025.66-.334.786-.688.277-1.278.389-1.782.389zM20.257 17.072c-.333 0-.604-.27-.604-.604v-.714c0-.333.27-.603.604-.603.333 0 .604.27.604.603v.714c0 .334-.27.604-.604.604zM17.015 22.386c-.74 0-1.5-.175-2.104-.863-.22-.251-.194-.633.056-.852.251-.22.632-.195.852.055.355.404.829.518 1.75.419.33-.036.628.204.664.536.036.331-.204.629-.536.664-.222.024-.451.041-.682.041z"/>
    </g>
</svg>
