<svg xmlns="http://www.w3.org/2000/svg" width="13" height="13" viewBox="0 0 13 13">
    <g fill="#5F6368">
        <path d="M4.111.835C5.493-.278 7.507-.278 8.89.835c1.38 1.114 1.729 3.02.825 4.518l-2.79 4.626c-.087.146-.249.235-.424.235s-.337-.09-.425-.235l-2.79-4.626c-.903-1.499-.555-3.404.826-4.518zM6.5 2.097c-.839.001-1.519.654-1.52 1.46 0 .59.37 1.121.939 1.347.567.226 1.221.101 1.656-.316.434-.418.564-1.045.329-1.59-.235-.546-.79-.901-1.404-.9z"/>
        <path d="M10.523 7.429c.382 0 .725.228.87.577l1.536 3.714c.253.61-.202 1.28-.87 1.28H.94c-.676 0-1.13-.685-.862-1.298l1.628-3.714c.149-.34.487-.56.862-.56h.477l.614.929H2.568L.94 12.071h11.12l-1.537-3.714H9.51l.559-.928z"/>
    </g>
</svg>
