<svg xmlns="http://www.w3.org/2000/svg" width="14" height="12" viewBox="0 0 14 12">
    <path fill="#5F6368" fill-rule="evenodd" d="M12 0c1.105 0 2 .895 2 2v8c0 1.105-.895 2-2 2H2c-1.105 0-2-.895-2-2V2C0 .895.895 0 2 0h10zm0 1H2c-.513 0-.936.386-.993.883L1 2v8c0 .513.386.936.883.993L2 11h10c.513 0 .936-.386.993-.883L13 10V2c0-.552-.448-1-1-1zM8.096 6.326c.479-.435 1.326-.435 1.786 0l1.897 1.785c.147.135.221.3.221.48V9.85c0 .075-.074.15-.184.15H2.184C2.092 10 2 9.94 2 9.85v-.78c0-.18.092-.36.24-.495l.847-.75c.442-.404 1.215-.404 1.657 0l.681.615c.11.105.295.105.406 0zM3.5 2C4.328 2 5 2.672 5 3.5S4.328 5 3.5 5 2 4.328 2 3.5 2.672 2 3.5 2z"/>
</svg>
