<svg xmlns="http://www.w3.org/2000/svg" width="40" height="40" viewBox="0 0 40 40">
    <g fill="none">
        <path fill="#EEF6FF" d="M21.433 21.433c1.68-1.679 3.911-2.603 6.285-2.603 1.618 0 3.169.43 4.524 1.233V4.768H0v28.108c0 .487.4.887.887.887h20.316c-3.233-3.481-3.156-8.943.23-12.33z"/>
        <path fill="#66778B" d="M31.735 0H.507C.228 0 0 .228 0 .507V5.02h32.242V.507c0-.279-.228-.507-.507-.507z"/>
        <path fill="#69CDFF" d="M14.036 15.842c0 .244-.2.443-.443.443H3.709c-.244 0-.444-.2-.444-.443V8.754c0-.244.2-.444.444-.444h9.884c.244 0 .443.2.443.444v7.088z"/>
        <path fill="#52BBEF" d="M5.277 15.842V8.754c0-.244.2-.444.443-.444H3.71c-.244 0-.444.2-.444.444v7.088c0 .244.2.443.444.443H5.72c-.244 0-.443-.2-.443-.443z"/>
        <path fill="#FF9518" d="M19.26 26H3.708c-.244 0-.444.156-.444.346v3.308c0 .19.2.346.444.346h15.454c-.468-1.308-.436-2.704.096-4z"/>
        <path fill="#FFD00D" d="M19.26 26h-3.22v4h3.123c-.468-1.308-.436-2.704.096-4z"/>
        <g fill="#91E0E8">
            <path d="M25.876 2.373H15.004c-.368 0-.666-.448-.666-1 0-.553.298-1 .666-1h10.872c.368 0 .665.447.665 1 0 .552-.297 1-.665 1zM25.876 6.373H15.004c-.368 0-.666-.448-.666-1 0-.553.298-1 .666-1h10.872c.368 0 .665.447.665 1 0 .552-.297 1-.665 1zM23.987 10.607H.693c-.367 0-.665.448-.665 1 0 .553.298 1 .665 1h19.652c1.099-1.064 2.337-1.746 3.642-2zM18.688 13.983H.693c-.367 0-.665.448-.665 1 0 .553.298 1 .665 1H17.65c.298-.703.644-1.373 1.038-2z" transform="translate(2.572 7.627)"/>
        </g>
        <path fill="#E26693" d="M3.095 3.07c-.176 0-.347-.071-.471-.195-.123-.124-.194-.295-.194-.47s.07-.346.194-.47c.124-.125.295-.196.47-.196.176 0 .348.071.471.195.124.125.195.296.195.47 0 .176-.07.347-.195.471-.123.124-.295.195-.47.195z"/>
        <path fill="#FFAF10" d="M5.276 3.07c-.175 0-.347-.071-.47-.196-.124-.123-.195-.294-.195-.47 0-.174.071-.345.195-.47.124-.124.295-.195.47-.195.176 0 .347.071.471.195.124.125.194.296.194.47 0 .175-.07.347-.194.47-.124.125-.295.196-.47.196z"/>
        <path fill="#37C47A" d="M7.459 3.07c-.176 0-.347-.071-.47-.195-.125-.124-.196-.295-.196-.47s.071-.346.195-.47c.124-.125.295-.196.47-.196s.347.071.47.195c.125.125.196.296.196.47 0 .176-.071.347-.195.471-.125.124-.296.195-.47.195z"/>
        <path fill="#445EA0" d="M36.343 34.52l-1.823 1.823 3.586 3.586c.643-.571 1.252-1.18 1.824-1.823l-3.587-3.587z"/>
        <path fill="#293D7C" d="M37.067 33.42l-1.511-1.51c-.402.752-.92 1.459-1.553 2.092-.627.627-1.33 1.149-2.09 1.556l1.508 1.508c.172.173.454.173.627 0l3.019-3.019c.172-.172.172-.454 0-.627z"/>
        <path fill="#1A2B63" d="M34.455 36.031l-1.29-1.29c-.396.31-.815.582-1.252.817l1.508 1.508c.172.173.454.173.627 0l1.034-1.035c-.172.173-.454.173-.627 0z"/>
        <path fill="#445EA0" d="M34.128 21.307c3.54 3.54 3.54 9.28 0 12.82-3.54 3.54-9.28 3.54-12.82 0-3.54-3.54-3.54-9.28 0-12.82 3.54-3.54 9.28-3.54 12.82 0z"/>
        <path fill="#69CDFF" d="M32.213 32.212c-2.483 2.482-6.507 2.482-8.99 0-2.482-2.482-2.482-6.507 0-8.989 2.483-2.482 6.507-2.482 8.99 0 2.482 2.482 2.482 6.507 0 8.99z"/>
        <path fill="#52BBEF" d="M32.213 32.212c.226-.226.43-.465.615-.714-2.488 1.845-6.018 1.64-8.274-.616-2.256-2.256-2.461-5.786-.616-8.275-.25.185-.488.39-.714.616-2.483 2.482-2.483 6.507 0 8.989 2.482 2.482 6.506 2.482 8.989 0z"/>
        <g fill="#D9EAFC" transform="translate(27.672 22.35)">
            <circle cx="1.138" cy="1.111" r="1.064"/>
            <circle cx="3.374" cy="2.217" r="1"/>
        </g>
    </g>
</svg>
