<svg xmlns="http://www.w3.org/2000/svg" width="35" height="40" viewBox="0 0 35 40">
    <g fill="none" fill-rule="evenodd">
        <path fill="#C6D0DA" d="M2.076.868v21.737l3.763.938 22.78-19.945V.868c0-.478-.393-.868-.872-.868h-24.8c-.478 0-.87.39-.87.868z"/>
        <path fill="#FAF8F9" d="M6.585 3.598c-.411 0-.746.334-.746.742v18.265l12.717 1.943 11.702-6.882V4.341c0-.409-.334-.743-.745-.743H6.585z"/>
        <path fill="#41BE93" d="M13.379 7.848c-.913 1.049-2.051 1.518-3.498 1.643-.165.014-.254-.014-.263.172-.188 3.651 1.487 5.745 3.775 7.249.048.032.034.032.083 0 2.288-1.502 3.963-3.598 3.777-7.25-.012-.185-.1-.157-.265-.17-1.447-.126-2.583-.595-3.495-1.644-.07-.08-.047-.08-.114 0z"/>
        <path fill="#FCCB08" d="M16.359 22.605H1.742c-.936 0-1.703.766-1.703 1.702v11.687c0 .935.767 1.701 1.703 1.701H32.32c.936 0 1.702-.766 1.702-1.701V19.767c0-1.156-.947-2.103-2.104-2.103l-1.66.002-1.64.002-7.401.012c-.641.002-1.208.128-1.57 1.226l-.788 2.376c-.195 1.27-1.121 1.323-2.501 1.323z"/>
        <path fill="#797979" fill-rule="nonzero" d="M28.224 29.947c-.334 0-.604-.27-.604-.603v-2.191c0-.877-.713-1.59-1.59-1.59h-3.49c-.878 0-1.591.713-1.591 1.59v2.19c0 .334-.27.604-.604.604-.334 0-.604-.27-.604-.603v-2.191c0-1.543 1.255-2.798 2.799-2.798h3.49c1.543 0 2.798 1.255 2.798 2.798v2.19c0 .334-.27.604-.604.604z"/>
        <path fill="#00B1E3" d="M18.758 29.583c-.485.292-.81.824-.81 1.427V38.333c0 .917.75 1.667 1.667 1.667h9.338c.917 0 1.668-.75 1.668-1.667V31.01c0-.914-.75-1.666-1.668-1.666h-9.338c-.313 0-.606.088-.857.239z"/>
        <path fill="#00B1E3" d="M24.284 32.719c-.81 0-1.466.656-1.466 1.467 0 .807.655 1.464 1.466 1.464.81 0 1.466-.657 1.466-1.464 0-.81-.655-1.467-1.466-1.467z"/>
        <path fill="#E5E1E5" d="M28.618 3.598l-4.385-.003c2.646 4.08 3.526 9.301 2.84 14.076l1.545-.003 1.64-.002V4.341c0-.409-.334-.743-.745-.743h-.895z"/>
        <path fill="#FAB430" d="M28.618 17.668l-1.182.003c.44.002.846.141 1.182.373.147.103.28.221.395.356.32.369.516.85.516 1.374V29.448c.636.235 1.092.847 1.092 1.562v6.685h1.7c.936 0 1.702-.766 1.702-1.701V19.767c0-1.156-.947-2.103-2.104-2.103l-1.66.002-1.64.002z"/>
        <path fill="#009FCB" d="M28.544 31.01V38.333c0 .917-.75 1.667-1.668 1.667h2.077c.917 0 1.668-.75 1.668-1.667V31.01c0-.715-.456-1.327-1.092-1.562-.181-.067-.374-.104-.576-.104h-2.077c.314 0 .607.088.858.239.485.292.81.824.81 1.427z"/>
        <path fill="#1CAA78" d="M14.343 8.618c.046.4.07.806.07 1.219 0 2.365-.793 4.542-2.119 6.258.223.19.458.369.7.543.13.093.264.183.399.274.048.032.034.032.083 0 1.266-.831 2.344-1.843 3.022-3.201.55-1.096.836-2.416.755-4.048-.012-.186-.1-.158-.265-.172-1.029-.088-1.9-.353-2.645-.873z"/>
        <path fill="#797979" fill-rule="nonzero" d="M26.31 8.447h-5.231c-.334 0-.604-.27-.604-.604 0-.333.27-.603.604-.603h5.23c.334 0 .605.27.605.603 0 .333-.27.604-.604.604zM26.31 11.376h-5.231c-.334 0-.604-.27-.604-.604 0-.333.27-.603.604-.603h5.23c.334 0 .605.27.605.603 0 .334-.27.604-.604.604zM26.31 14.305h-5.231c-.334 0-.604-.27-.604-.603 0-.334.27-.604.604-.604h5.23c.334 0 .605.27.605.604 0 .333-.27.603-.604.603z"/>
        <path fill="#FFF" fill-rule="nonzero" d="M24.067 31.76c-1.107 0-2.007.902-2.007 2.01 0 .903.6 1.669 1.421 1.92v1.234c0 .324.263.586.586.586.324 0 .586-.262.586-.586V35.69c.822-.251 1.422-1.017 1.422-1.92 0-1.108-.9-2.01-2.008-2.01zm0 2.846c-.46 0-.836-.375-.836-.836 0-.462.375-.838.836-.838.461 0 .836.376.836.838 0 .46-.375.836-.836.836z"/>
    </g>
</svg>
