<svg xmlns="http://www.w3.org/2000/svg" width="38" height="38" viewBox="0 0 38 38">
    <g fill="none" fill-rule="evenodd">
        <circle cx="19" cy="19" r="18.5" fill="#FFF" stroke="#D6D8DC"/>
        <path fill="#555" fill-rule="nonzero" d="M18.189 10.155c.51-.206 1.08-.206 1.588 0l5.844 2.333c.41.16.748.439.983.787.235.347.366.765.363 1.204v3.06c-.014 4.976-2.623 9.583-6.882 12.154-.332.201-.713.308-1.102.307-.377-.007-.743-.113-1.062-.307-4.274-2.56-6.899-7.17-6.921-12.154v-3.06c-.004-.44.128-.857.363-1.204.235-.348.573-.626.981-.786l5.845-2.334zm.794 12.435c-1.732 0-3.334.886-4.258 2.329 1.015 1.436 2.33 2.668 3.889 3.602.122.076.26.114.398.114s.277-.038.401-.115c1.539-.93 2.838-2.152 3.845-3.572-.92-1.46-2.53-2.358-4.275-2.358zm0-11.227c-.098.001-.195.022-.285.06L12.84 13.76c-.14.053-.256.145-.34.26-.084.114-.134.252-.143.398l.001 3.168c.017 2.165.578 4.25 1.587 6.087 1.203-1.528 3.053-2.446 5.04-2.446 1.996 0 3.854.927 5.057 2.469 1.02-1.857 1.582-3.968 1.588-6.157V14.47c.012-.166-.031-.327-.117-.461-.084-.132-.21-.238-.364-.297l-5.879-2.288c-.09-.04-.187-.06-.286-.061zm0 2.211c.982 0 1.87.398 2.513 1.041.643.643 1.04 1.532 1.04 2.513 0 .942-.374 1.846-1.04 2.513-.666.666-1.57 1.04-2.513 1.04-.98 0-1.87-.397-2.512-1.04-.643-.644-1.041-1.532-1.041-2.513 0-.981.398-1.87 1.04-2.513.644-.643 1.532-1.04 2.513-1.04zm0 1.367c-.604 0-1.15.245-1.546.64-.396.396-.64.943-.64 1.547s.244 1.15.64 1.546c.396.396.942.64 1.546.64.604 0 1.151-.244 1.547-.64.396-.395.64-.942.64-1.546 0-.604-.244-1.15-.64-1.547-.396-.395-.943-.64-1.547-.64z"/>
    </g>
</svg>
