<svg xmlns="http://www.w3.org/2000/svg" xmlns:xlink="http://www.w3.org/1999/xlink" width="32" height="32" viewBox="0 0 32 32">
    <defs>
        <filter id="prefix__a" width="190%" height="190%" x="-45%" y="-35%" filterUnits="objectBoundingBox">
            <feMorphology in="SourceAlpha" operator="dilate" radius="2" result="shadowSpreadOuter1"/>
            <feOffset dy="2" in="shadowSpreadOuter1" result="shadowOffsetOuter1"/>
            <feGaussianBlur in="shadowOffsetOuter1" result="shadowBlurOuter1" stdDeviation="2"/>
            <feComposite in="shadowBlurOuter1" in2="SourceAlpha" operator="out" result="shadowBlurOuter1"/>
            <feColorMatrix in="shadowBlurOuter1" values="0 0 0 0 0 0 0 0 0 0 0 0 0 0 0 0 0 0 0.143411276 0"/>
        </filter>
        <path id="prefix__b" d="M928 312c-5.516 0-10 4.484-10 10s4.484 10 10 10 10-4.484 10-10-4.484-10-10-10zm4.379 8.674l-4.526 4.526c-.253.253-.59.379-.948.379-.337 0-.673-.126-.947-.379l-2.337-2.358c-.526-.526-.526-1.347 0-1.874.526-.526 1.347-.526 1.874 0l1.431 1.432 3.58-3.579c.526-.526 1.347-.526 1.873 0s.505 1.347 0 1.853z"/>
    </defs>
    <g fill="none" transform="translate(-912 -308)">
        <use fill="#000" filter="url(#prefix__a)" xlink:href="#prefix__b"/>
        <path fill="#6FAE2E" fill-rule="evenodd" stroke="#FFF" stroke-width="2" d="M928 311c3.034 0 5.784 1.233 7.776 3.224 1.991 1.992 3.224 4.742 3.224 7.776s-1.233 5.784-3.224 7.776C933.784 331.767 931.034 333 928 333s-5.784-1.233-7.776-3.224C918.233 327.784 917 325.034 917 322s1.233-5.784 3.224-7.776c1.992-1.991 4.742-3.224 7.776-3.224zm3.442 8.426c-.084 0-.165.038-.23.102l-4.286 4.286-2.138-2.138c-.065-.065-.146-.102-.23-.102-.084 0-.165.037-.23.102-.064.064-.102.145-.102.23 0 .083.038.164.102.229l2.32 2.341c.076.065.165.103.257.103.088 0 .176-.022.24-.086l4.527-4.526c.06-.061.094-.141.094-.222 0-.078-.033-.156-.324-.319z"/>
    </g>
</svg>
