<svg xmlns="http://www.w3.org/2000/svg" width="60" height="50" viewBox="0 0 60 50">
    <g fill="none">
        <path fill="#EFE2DD" d="M46.578 3.273c-.59 0-1.156.103-1.682.292-.421.151-.892-.058-1.063-.472C43.08 1.277 41.297 0 39.216 0c-2.08 0-3.864 1.277-4.616 3.093-.172.414-.643.623-1.063.472-.526-.19-1.092-.292-1.683-.292-1.7 0-3.2.852-4.103 2.154-.218.315-.611.443-.972.317-.514-.18-1.066-.278-1.64-.278-2.762 0-5 2.247-5 5.019 0 2.772 2.238 5.019 5 5.019.695 0 1.357-.144 1.959-.402.34-.145.737-.046.98.234.916 1.061 2.268 1.732 3.776 1.732 2.082 0 3.865-1.277 4.617-3.092.172-.415.642-.624 1.063-.472.526.189 1.092.292 1.682.292.441 0 .869-.057 1.276-.165.549-.145 1.087.26 1.087.829v.591c0 2.772 2.238 5.019 4.999 5.019 2.76 0 4.999-2.247 4.999-5.019v-6.76c0-2.772-2.238-5.018-5-5.018z"/>
        <path fill="#E1D3CE" d="M49.647 4.331V8.29c0 2.771-2.238 5.018-4.999 5.018-2.76 0-4.998-2.247-4.998-5.018v-.591c0-.57-.539-.975-1.087-.83-.407.108-.835.166-1.276.166-.59 0-1.157-.104-1.682-.293-.42-.15-.892.058-1.063.472-.752 1.816-2.536 3.093-4.617 3.093-1.508 0-2.86-.671-3.777-1.732-.242-.28-.64-.38-.98-.234-.601.258-1.263.401-1.959.401-.896 0-1.736-.238-2.464-.652-.386.712-.606 1.528-.606 2.396 0 2.771 2.238 5.018 5 5.018.695 0 1.357-.143 1.959-.401.34-.146.737-.046.98.234.916 1.061 2.268 1.732 3.776 1.732 2.082 0 3.865-1.277 4.617-3.093.172-.414.642-.623 1.063-.471.526.189 1.092.292 1.682.292.441 0 .869-.057 1.276-.165.549-.145 1.087.26 1.087.829v.591c0 2.772 2.238 5.018 4.999 5.018 2.76 0 4.999-2.246 4.999-5.018v-6.76c0-1.61-.756-3.041-1.93-3.96z"/>
        <path fill="#EFE2DD" d="M26.438 3.39c-.59 0-1.156.104-1.682.293-.42.151-.891-.058-1.063-.472C22.94 1.395 21.158.118 19.076.118c-2.08 0-3.864 1.277-4.616 3.093-.171.414-.642.623-1.063.472-.526-.19-1.092-.292-1.682-.292-1.7 0-3.2.852-4.104 2.154-.218.315-.61.444-.972.317-.514-.18-1.066-.277-1.64-.277C2.238 5.585 0 7.83 0 10.603s2.238 5.018 4.999 5.018c.696 0 1.358-.143 1.96-.4.34-.147.737-.047.98.233.916 1.061 2.267 1.733 3.776 1.733 2.081 0 3.865-1.278 4.617-3.093.17-.415.642-.623 1.063-.472.526.19 1.091.292 1.682.292.441 0 .869-.057 1.276-.165.548-.145 1.086.26 1.086.829v.591c0 2.772 2.239 5.018 5 5.018 2.76 0 4.998-2.246 4.998-5.018V8.41c0-2.772-2.238-5.018-4.999-5.018z"/>
        <path fill="#E1D3CE" d="M29.508 4.45v3.957c0 2.771-2.238 5.018-4.999 5.018-2.76 0-4.999-2.247-4.999-5.018v-.591c0-.57-.538-.975-1.086-.83-.408.108-.835.166-1.277.166-.59 0-1.156-.104-1.681-.293-.421-.15-.892.058-1.064.472-.752 1.816-2.535 3.093-4.616 3.093-1.509 0-2.86-.671-3.777-1.732-.242-.28-.64-.38-.98-.234-.602.258-1.263.401-1.96.401-.896 0-1.736-.238-2.463-.652C.219 8.919 0 9.735 0 10.603c0 2.772 2.238 5.018 4.999 5.018.696 0 1.358-.143 1.96-.4.34-.147.737-.047.98.233.916 1.061 2.267 1.733 3.776 1.733 2.081 0 3.864-1.278 4.616-3.093.172-.415.643-.623 1.064-.472.525.19 1.091.292 1.681.292.442 0 .87-.057 1.277-.165.548-.145 1.086.26 1.086.829v.591c0 2.772 2.238 5.018 5 5.018 2.76 0 4.998-2.246 4.998-5.018V8.41c0-1.61-.755-3.04-1.93-3.96z"/>
        <path fill="#B9ACAC" d="M35.624 32.857c-.864-2.967-1.302-6.043-1.302-9.134v-5.097c0-.577-.466-1.044-1.04-1.044H19.87c-.574 0-1.04.467-1.04 1.044v5.097c0 3.091-.438 6.167-1.302 9.134L13.207 47.7h26.737l-4.32-14.843z"/>
        <path fill="#B9ACAC" d="M55.624 32.857c-.864-2.967-1.302-6.043-1.302-9.134v-5.097c0-.577-.466-1.044-1.04-1.044H39.87c-.574 0-1.04.467-1.04 1.044v5.097c0 3.091-.438 6.167-1.302 9.134L33.208 47.7h26.737l-4.32-14.843z"/>
        <path fill="#9E9797" d="M35.624 32.857c-.864-2.967-1.302-6.043-1.302-9.134v-5.097c0-.577-.466-1.044-1.04-1.044h-7.363v2.162c0 3.091.438 6.166 1.302 9.133l3.803 13.065c.259.89-.406 1.779-1.329 1.779h-15.33l-1.158 3.98h26.737l-4.32-14.844z"/>
        <path fill="#9E9797" d="M55.624 32.857c-.864-2.967-1.302-6.043-1.302-9.134v-5.097c0-.577-.466-1.044-1.04-1.044H45.92v2.162c0 3.091.438 6.166 1.302 9.133l3.802 13.065c.26.89-.405 1.779-1.328 1.779h-15.33l-1.158 3.98h26.737l-4.32-14.844z"/>
        <path fill="#766E6E" d="M59.385 49.93H1.004c-.34 0-.615-.277-.615-.618v-1.84c0-.341.275-.618.615-.618h58.38c.34 0 .616.277.616.618v1.84c0 .341-.276.617-.615.617z"/>
        <path fill="#5B5555" d="M59.37 46.855h-4.561c.348 0 .63.283.63.633v1.808c0 .35-.282.633-.63.633h4.56c.349 0 .631-.283.631-.633v-1.808c0-.35-.282-.633-.63-.633z"/>
    </g>
</svg>
