<svg xmlns="http://www.w3.org/2000/svg" width="38" height="38" viewBox="0 0 38 38">
    <g fill="none" fill-rule="evenodd">
        <circle cx="19" cy="19" r="18.5" fill="#FFF" stroke="#D6D8DC"/>
        <path fill="#555" fill-rule="nonzero" d="M11.8 13c-.442 0-.8.358-.8.8 0 .442.358.8.8.8h14.8c.442 0 .8-.358.8-.8 0-.442-.358-.8-.8-.8H11.8zm0 5.2c-.442 0-.8.358-.8.8 0 .442.358.8.8.8h14.8c.442 0 .8-.358.8-.8 0-.442-.358-.8-.8-.8H11.8zm0 5.2c-.442 0-.8.358-.8.8 0 .442.358.8.8.8h14.8c.442 0 .8-.358.8-.8 0-.442-.358-.8-.8-.8H11.8z"/>
    </g>
</svg>
