<svg xmlns="http://www.w3.org/2000/svg" xmlns:xlink="http://www.w3.org/1999/xlink" width="35" height="36" viewBox="0 0 35 36">
    <defs>
        <ellipse id="prefix__a" cx="17.5" cy="18" rx="17.5" ry="18"/>
        <path id="prefix__b" d="M13.033 0H4.967C2.228 0 0 2.228 0 4.967v8.066C0 15.772 2.228 18 4.967 18h8.066C15.772 18 18 15.772 18 13.033V4.967C18 2.228 15.772 0 13.033 0zm0 1.597c1.858 0 3.37 1.512 3.37 3.37v8.066c0 1.858-1.512 3.37-3.37 3.37H4.967c-1.858 0-3.37-1.512-3.37-3.37V4.967c0-1.858 1.512-3.37 3.37-3.37h8.066zM9 4.286C6.4 4.286 4.286 6.4 4.286 9c0 2.6 2.115 4.714 4.714 4.714 2.6 0 4.714-2.114 4.714-4.714 0-2.6-2.115-4.714-4.714-4.714zm0 1.623c1.704 0 3.091 1.387 3.091 3.091 0 1.704-1.387 3.09-3.091 3.09-1.704 0-3.091-1.386-3.091-3.09S7.296 5.909 9 5.909zm5.143-3.338c-.338 0-.67.137-.908.377-.24.238-.378.57-.378.91 0 .337.138.669.378.908.238.239.57.377.908.377.339 0 .67-.138.91-.377.239-.24.376-.571.376-.909 0-.339-.137-.67-.377-.91-.238-.239-.57-.376-.91-.376z"/>
    </defs>
    <g fill="none" fill-rule="evenodd" opacity=".8">
        <use fill="#F5F6FA" fill-opacity="0" xlink:href="#prefix__a"/>
        <g transform="translate(8.5 9)">
            <mask id="prefix__c" fill="#fff">
                <use xlink:href="#prefix__b"/>
            </mask>
            <use fill="#000" fill-rule="nonzero" xlink:href="#prefix__b"/>
            <g fill="#1C1C1C" mask="url(#prefix__c)">
                <path d="M0 0H22V22H0z" transform="translate(-2 -2)"/>
            </g>
        </g>
    </g>
</svg>
