<svg xmlns="http://www.w3.org/2000/svg" width="49" height="50" viewBox="0 0 49 50">
    <g fill="none">
        <path fill="#6A9923" d="M26.983 22.845c.002-2.252-1.115-4.356-2.977-5.613 2.034-2.55 1.622-6.272-.921-8.313-1.047-.84-2.348-1.297-3.689-1.296-.084 0-.168.01-.253.013.944-3.13-.82-6.434-3.939-7.38-3.12-.948-6.413.821-7.357 3.95-.337 1.119-.337 2.312 0 3.43-.084 0-.169-.013-.253-.013-3.256-.003-5.898 2.642-5.901 5.909-.002 1.345.454 2.65 1.291 3.7-3.09 2.086-3.909 6.29-1.83 9.39.487.725 1.108 1.348 1.83 1.836-2.034 2.55-1.621 6.272.921 8.313 1.047.84 2.348 1.297 3.69 1.296h11.801c3.256.003 5.899-2.643 5.902-5.91.001-1.344-.455-2.65-1.292-3.7 1.862-1.256 2.979-3.36 2.977-5.612z"/>
        <path fill="#618C20" d="M20 18.87c-.325-.335-.858-.342-1.192-.017l-4.47 4.337V11.006c0-.467-.377-.846-.843-.846-.465 0-.843.379-.843.846v5.992l-3.83-3.842c-.335-.324-.868-.315-1.192.021-.315.328-.315.847 0 1.175l5.022 5.038V30.95l-3.619-3.63c-.335-.324-.868-.315-1.192.02-.316.328-.316.848 0 1.176l4.811 4.826v15.718c0 .467.378.845.843.845.466 0 .843-.378.843-.845V25.543l5.648-5.474c.334-.326.341-.862.016-1.196L20 18.87z"/>
        <path fill="#6A9923" d="M48.902 22.845c0-2.252-1.116-4.356-2.978-5.613 2.034-2.55 1.622-6.272-.92-8.313-1.048-.84-2.349-1.297-3.69-1.296-.084 0-.168.01-.252.013.943-3.13-.82-6.434-3.94-7.38-3.119-.948-6.413.821-7.357 3.95-.337 1.119-.337 2.312 0 3.43-.084 0-.168-.013-.253-.013-3.256-.003-5.898 2.642-5.901 5.909-.001 1.345.454 2.65 1.292 3.7-3.09 2.086-3.91 6.29-1.83 9.39.486.725 1.107 1.348 1.83 1.836-2.034 2.55-1.622 6.272.92 8.313 1.048.84 2.349 1.297 3.69 1.296h11.801c3.257.003 5.899-2.643 5.902-5.91.001-1.344-.455-2.65-1.292-3.7 1.862-1.256 2.979-3.36 2.978-5.612z"/>
        <path fill="#618C20" d="M41.91 18.864c-.329-.33-.862-.33-1.192 0l-4.462 4.476V11.006c0-.467-.377-.846-.843-.846-.465 0-.843.379-.843.846v5.992l-3.83-3.842c-.334-.324-.868-.315-1.191.02-.316.329-.316.848 0 1.176l5.021 5.038V30.95l-3.619-3.63c-.335-.324-.868-.315-1.192.02-.315.328-.315.848 0 1.176l4.811 4.826v15.718c0 .467.378.845.843.845.466 0 .843-.378.843-.845V25.674c.063-.032.122-.07.175-.117l5.48-5.497c.329-.33.329-.865 0-1.196z"/>
        <path fill="#88B337" d="M37.942 22.845c.002-2.252-1.115-4.356-2.977-5.613 2.034-2.55 1.622-6.272-.921-8.313-1.047-.84-2.348-1.297-3.689-1.296-.084 0-.168.01-.253.013.944-3.13-.82-6.434-3.939-7.38-3.12-.948-6.413.821-7.357 3.95-.337 1.119-.337 2.312 0 3.43-.084 0-.169-.013-.253-.013-3.256-.003-5.898 2.642-5.901 5.909-.002 1.345.454 2.65 1.292 3.7-3.09 2.086-3.91 6.29-1.83 9.39.486.725 1.107 1.348 1.83 1.836-2.034 2.55-1.622 6.272.92 8.313 1.048.84 2.349 1.297 3.69 1.296h11.801c3.257.003 5.899-2.643 5.902-5.91.001-1.344-.455-2.65-1.292-3.7 1.862-1.256 2.979-3.36 2.977-5.612z"/>
        <path fill="#6A9923" d="M30.951 18.864c-.329-.33-.862-.33-1.192 0l-4.462 4.476V11.006c0-.467-.377-.846-.843-.846-.465 0-.843.379-.843.846v5.992l-3.83-3.842c-.334-.324-.868-.315-1.192.021-.315.328-.315.847 0 1.175l5.022 5.038V30.95l-3.619-3.63c-.335-.324-.868-.315-1.192.02-.315.328-.315.848 0 1.176l4.811 4.826v15.718c0 .467.378.845.843.845.466 0 .843-.378.843-.845V25.674c.063-.032.122-.07.175-.117l5.48-5.497c.328-.33.328-.865 0-1.196z"/>
        <path fill="#595959" d="M38.785 49.906H10.123c-.465 0-.843-.378-.843-.845 0-.467.378-.846.843-.846h28.662c.466 0 .843.379.843.846 0 .467-.377.845-.843.845z"/>
    </g>
</svg>
