<svg xmlns="http://www.w3.org/2000/svg" width="111" height="14" viewBox="0 0 111 14">
    <path fill="#FFB007" fill-rule="evenodd" d="M7.594 0L9.94 4.609l5.247.739-3.797 3.587.897 5.065-4.693-2.391L2.9 14l.896-5.065L0 5.348l5.247-.74L7.594 0zm23.953 0l2.346 4.609 5.247.739-3.796 3.587L36.24 14l-4.693-2.391L26.854 14l.896-5.065-3.797-3.587 5.247-.74L31.547 0zM55.5 0l2.347 4.609 5.247.739-3.797 3.587.896 5.065-4.693-2.391L50.807 14l.896-5.065-3.797-3.587 5.247-.74L55.5 0zm23.953 0L81.8 4.609l5.247.739-3.797 3.587.896 5.065-4.693-2.391L74.76 14l.896-5.065-3.796-3.587 5.247-.74L79.453 0zm23.953 0l2.347 4.609 5.247.739-3.797 3.587L108.1 14l-4.693-2.391L98.713 14l.897-5.065-3.797-3.587 5.247-.74L103.406 0z"/>
</svg>
