<svg xmlns="http://www.w3.org/2000/svg" width="40" height="40" viewBox="0 0 40 40">
    <g fill="none" fill-rule="evenodd">
        <circle cx="20" cy="20" r="20" fill="#F1F1F1"/>
        <path fill="#A3A3A3" fill-rule="nonzero" d="M27.222 21.115c-.239-.24-.558-.358-.877-.358-.318 0-.638.119-.877.358l-4.23 4.206v-14.5c0-.346-.137-.656-.36-.88-.225-.224-.535-.36-.88-.36-.346 0-.657.136-.88.36-.224.224-.361.534-.361.88v14.503l-4.209-4.21c-.24-.238-.558-.357-.877-.357-.319 0-.638.119-.877.358-.249.248-.374.568-.374.888 0 .32.125.639.374.888l6.315 6.315c.231.231.55.374.888.374.336 0 .655-.121.884-.37l6.341-6.341c.24-.24.358-.558.358-.877 0-.319-.118-.638-.358-.877z"/>
    </g>
</svg>
