<svg xmlns="http://www.w3.org/2000/svg" xmlns:xlink="http://www.w3.org/1999/xlink" width="16" height="22" viewBox="0 0 16 22">
    <defs>
        <path id="prefix__a" d="M0 0.161L15.651 0.161 15.651 17.842 0 17.842z"/>
    </defs>
    <g fill="none" fill-rule="evenodd">
        <g transform="translate(0 .122)">
            <mask id="prefix__b" fill="#fff">
                <use xlink:href="#prefix__a"/>
            </mask>
            <path fill="#83B435" d="M13.3 8.895c.155-.378.24-.792.24-1.227 0-1.39-.877-2.575-2.108-3.032.016-.15.026-.3.026-.455 0-2.22-1.8-4.02-4.02-4.02-2.221 0-4.021 1.8-4.021 4.02 0 .138.007.274.02.409-1.27.412-2.19 1.605-2.19 3.013 0 .636.188 1.229.511 1.725C.66 10.226 0 11.373 0 12.623c0 2.882 3.504 5.219 7.825 5.219 4.322 0 7.826-2.337 7.826-5.219 0-1.46-.901-2.78-2.352-3.728" mask="url(#prefix__b)"/>
        </g>
        <path fill="#1F5047" fill-rule="nonzero" d="M7.826 6.506c.365 0 .663.284.687.643l.001.045v6.81L9.748 12.8c.271-.266.707-.261.973.01.254.26.261.67.023.938l-.034.036-2.196 2.148v5.22c0 .38-.308.688-.688.688-.365 0-.664-.284-.687-.643l-.002-.045v-9.704L4.914 9.276c-.272-.266-.277-.701-.011-.973.254-.26.663-.277.937-.045l.036.033 1.26 1.23.001-2.327c0-.38.308-.688.689-.688z"/>
    </g>
</svg>
