<svg xmlns="http://www.w3.org/2000/svg" xmlns:xlink="http://www.w3.org/1999/xlink" width="35" height="36" viewBox="0 0 35 36">
    <defs>
        <ellipse id="prefix__a" cx="17.5" cy="18" rx="17.5" ry="18"/>
        <path id="prefix__b" d="M17 1.634c-.626.277-1.297.465-2.002.549.72-.431 1.271-1.115 1.532-1.928-.675.4-1.42.69-2.216.847C13.678.422 12.774 0 11.77 0 9.843 0 8.282 1.562 8.282 3.486c0 .273.03.54.09.795C5.474 4.136 2.904 2.747 1.184.637c-.3.515-.471 1.114-.471 1.753 0 1.21.616 2.278 1.55 2.902-.57-.019-1.108-.176-1.579-.437v.043c0 1.69 1.203 3.099 2.797 3.42-.292.078-.6.122-.919.122-.225 0-.443-.022-.656-.065.444 1.386 1.731 2.395 3.257 2.422-1.193.935-2.697 1.49-4.331 1.49-.282 0-.559-.016-.832-.047 1.544.991 3.376 1.569 5.346 1.569 6.415 0 9.921-5.314 9.921-9.922l-.011-.451c.685-.49 1.278-1.103 1.744-1.802z"/>
    </defs>
    <g fill="none" fill-rule="evenodd" opacity=".8">
        <use fill="#F5F6FA" fill-opacity="0" xlink:href="#prefix__a"/>
        <g transform="translate(9.5 11)">
            <mask id="prefix__c" fill="#fff">
                <use xlink:href="#prefix__b"/>
            </mask>
            <use fill="#010002" fill-rule="nonzero" xlink:href="#prefix__b"/>
            <g fill="#1C1C1C" mask="url(#prefix__c)">
                <path d="M0 0H22V22H0z" transform="translate(-3 -4)"/>
            </g>
        </g>
    </g>
</svg>
