<svg xmlns="http://www.w3.org/2000/svg" width="50" height="50" viewBox="0 0 50 50">
    <g fill="none" fill-rule="evenodd">
        <path fill="#095972" fill-rule="nonzero" d="M50 25c0 1.78-.187 3.518-.54 5.194-.372 1.761-.93 3.453-1.652 5.056-1.19 2.646-2.828 5.047-4.818 7.107-.313.326-.636.643-.968.951-.885.824-1.83 1.585-2.828 2.274C35.162 48.368 30.27 50 25 50c-5.271 0-10.162-1.632-14.194-4.418-.998-.69-1.943-1.45-2.828-2.274-.332-.308-.655-.625-.968-.95-.576-.597-1.123-1.222-1.638-1.873-.706-.893-1.352-1.836-1.932-2.822-.458-.778-.876-1.583-1.248-2.413C1.47 33.647.912 31.955.54 30.194.187 28.518 0 26.78 0 25c0-.345.007-.688.021-1.03.154-3.804 1.159-7.388 2.828-10.569C7.028 5.435 15.379 0 25 0c9.62 0 17.972 5.435 22.151 13.401 1.67 3.18 2.673 6.765 2.828 10.57.014.341.021.684.021 1.029z"/>
        <g fill="#427A2D" fill-rule="nonzero">
            <path d="M50 11.621c0 1.78-.187 3.518-.54 5.194h-7.592c-.837 0-1.257-1.012-.664-1.605l2.857-2.857c.191-.192.277-.428.277-.658 0-.484-.375-.947-.942-.947-.838 0-1.257-1.014-.664-1.606l2.216-2.216c.592-.593.173-1.606-.665-1.606h-.16c-.838 0-1.258-1.012-.666-1.605L47.151.022c1.67 3.18 2.673 6.765 2.828 10.57.014.341.021.684.021 1.03zM8.132 16.815H.54C.187 15.139 0 13.402 0 11.62c0-.345.007-.688.021-1.03C.175 6.788 1.18 3.204 2.85.023l3.694 3.693c.592.593.172 1.605-.666 1.605h-.16c-.838 0-1.257 1.013-.665 1.606l2.216 2.216c.192.192.278.428.278.659 0 .483-.376.947-.942.947-.838 0-1.257 1.012-.665 1.605l2.857 2.857c.593.593.173 1.605-.664 1.605z" transform="translate(0 13.379)"/>
        </g>
        <path fill="#4C8E37" fill-rule="nonzero" d="M47.808 35.25c-1.19 2.646-2.828 5.047-4.818 7.107H7.01c-.576-.596-1.123-1.221-1.638-1.872v-2.822H3.44c-.458-.778-.876-1.583-1.248-2.413L4.24 33.2c.192-.192.277-.427.277-.657 0-.484-.375-.948-.943-.948-.837 0-1.257-1.013-.664-1.605l2.217-2.217c.591-.592.172-1.605-.666-1.605h-.16c-.838 0-1.257-1.013-.665-1.605l5.316-5.316c.367-.367.962-.367 1.33 0l5.316 5.316c.593.592.172 1.605-.665 1.605h-.16c-.838 0-1.258 1.013-.665 1.605l2.216 2.217c.191.19.277.426.277.657 0 .484-.375.948-.942.948-.838 0-1.257 1.013-.665 1.605l2.275 2.275 2.276-2.275c.593-.592.173-1.605-.664-1.605-.838 0-1.258-1.013-.666-1.605l2.217-2.217c.592-.592.172-1.605-.666-1.605h-.16c-.838 0-1.257-1.013-.664-1.605l5.315-5.316c.368-.367.963-.367 1.33 0l5.316 5.316c.593.592.174 1.605-.664 1.605h-.16c-.838 0-1.259 1.013-.666 1.605l2.217 2.217c.19.19.276.426.276.657 0 .484-.374.948-.942.948-.837 0-1.257 1.013-.664 1.605l2.352 2.352 2.352-2.352c.191-.19.277-.427.277-.657 0-.484-.375-.948-.942-.948-.838 0-1.257-1.013-.665-1.605l2.216-2.217c.593-.592.173-1.605-.664-1.605h-.16c-.838 0-1.259-1.013-.666-1.605l5.316-5.316c.368-.367.963-.367 1.33 0l5.316 5.316c.592.592.173 1.605-.665 1.605h-.16c-.838 0-1.257 1.013-.666 1.605l2.217 2.217c.192.192.277.427.277.658 0 .484-.375.947-.941.947-.838 0-1.259 1.013-.666 1.605l2.05 2.05z"/>
        <path fill="#69AF54" fill-rule="nonzero" d="M50 25c0 7.23-3.07 13.744-7.978 18.308-.885.824-1.83 1.585-2.828 2.274C35.162 48.368 30.27 50 25 50c-5.271 0-10.162-1.632-14.194-4.418-.998-.69-1.943-1.45-2.828-2.274C3.069 38.744 0 32.231 0 25c0-.345.007-.688.021-1.03l1.203-1.203c.367-.367.963-.367 1.33 0l5.315 5.317c.593.591.174 1.605-.664 1.605h-.16c-.838 0-1.257 1.012-.665 1.605l2.216 2.216c.192.192.277.427.277.657 0 .484-.375.948-.942.948-.838 0-1.258 1.014-.665 1.605l2.352 2.352 2.352-2.352c.191-.19.277-.426.277-.657 0-.484-.375-.948-.942-.948-.838 0-1.257-1.013-.665-1.605l2.216-2.216c.593-.593.174-1.605-.664-1.605h-.16c-.838 0-1.257-1.014-.666-1.605l5.317-5.317c.367-.367.962-.367 1.33 0l5.316 5.317c.591.591.172 1.605-.666 1.605h-.16c-.838 0-1.257 1.012-.665 1.605l2.216 2.216c.192.192.278.428.278.658 0 .484-.376.947-.942.947-.838 0-1.258 1.014-.666 1.605L25 38.996l2.275-2.276c.192-.191.278-.426.278-.657 0-.483-.375-.948-.943-.948-.838 0-1.257-1.013-.664-1.605l2.216-2.216c.592-.593.173-1.605-.665-1.605h-.16c-.838 0-1.258-1.013-.666-1.605l5.317-5.317c.367-.367.962-.367 1.33 0l5.315 5.317c.592.592.173 1.605-.665 1.605h-.16c-.838 0-1.257 1.012-.664 1.605l2.216 2.216c.19.191.277.427.277.657 0 .484-.375.948-.942.948-.838 0-1.257 1.014-.666 1.605l2.353 2.352 2.352-2.352c.191-.191.277-.427.277-.658 0-.483-.375-.947-.942-.947-.837 0-1.258-1.013-.665-1.605l2.216-2.216c.592-.593.173-1.605-.665-1.605h-.16c-.838 0-1.257-1.014-.665-1.605l5.316-5.317c.367-.367.963-.367 1.33 0l1.202 1.203c.015.342.022.685.022 1.03z"/>
        <path fill="#665B5B" fill-rule="nonzero" d="M39.194 45.582C35.162 48.368 30.27 50 25 50c-2.53 0-4.973-.377-7.275-1.075-2.494-.758-4.823-1.894-6.919-3.343-.13-9.759 3.611-15.35 3.611-15.35h21.165s3.741 5.591 3.612 15.35z"/>
        <path fill="#4D4445" fill-rule="nonzero" d="M17.725 48.925c-2.494-.758-4.823-1.894-6.919-3.343-.13-9.759 3.611-15.35 3.611-15.35h5.145l1.254 1.938s-3.463 5.8-3.091 16.755z"/>
        <path fill="#988" fill-rule="nonzero" d="M32.337 42.224L30.915 40.8c-.384-.384-1.036-.252-1.24.251-.563 1.394-1.669 3.896-3.102 6.008-.33.486-.677.952-1.04 1.378-.32.378-.908.382-1.229.003-1.937-2.28-3.45-5.673-4.145-7.389-.204-.503-.855-.635-1.24-.25l-1.421 1.422c-.394.393-1.06.282-1.302-.219-2.268-4.708.02-9.055.922-10.473.2-.314.33-.484.33-.484h14.938s4.018 5.205 1.255 10.95c-.242.505-.909.621-1.304.226z"/>
        <path fill="#807272" fill-rule="nonzero" d="M17.449 31.048l.02.652-.35-.168c-.902 1.418-3.19 5.765-.922 10.473.241.501.907.612 1.3.219L18.92 40.8c.384-.384 1.035-.252 1.24.252.693 1.715 2.207 5.108 4.144 7.388.322.379.909.375 1.23-.003.362-.426.71-.892 1.039-1.378l-1.059-2.26c-.2-.429-.81-.424-1.004.005-.146.322-.588.355-.772.053-1.413-2.33-2.266-5.413-2.624-6.905-.061-.258.255-.434.442-.247l1.152 1.152c.173.173.468.037.448-.207l-.175-2.138c-.035-.434.557-.592.744-.2.568 1.194 1.118 2.021 1.454 2.478.154.21.47.199.61-.022l1.998-3.17c.198-.313.682-.173.682.197v.351c0 .53.673.757.994.335 1.105-1.453 2.476-3.495 2.476-3.495l-14.49-1.94z"/>
        <g fill="#988" fill-rule="nonzero">
            <path d="M8.844 31.404c.065.34.178.778.371 1.279.136.351.658.261.672-.115l.074-1.9c.013-.336-.357-.548-.64-.366-.369.236-.56.672-.477 1.102zM29.997 26.455l-3.206 1.041-8.54 2.777c-.518.168-1.053.255-1.59.26h-.12c-.536-.005-1.073-.092-1.588-.26l-8.541-2.776-3.206-1.041C1.015 25.743-.32 23.532.07 21.264l.4-2.336 1.053-6.126c.192-1.11.5-2.181.915-3.2l3.848-4.377.912-1.038.615-.699c1.006-1.145 2.28-2.027 3.718-2.531l.027-.01C13.189.376 14.897.091 16.6.091h.002c1.706 0 3.409.285 5.042.856l.03.01c1.437.506 2.711 1.388 3.716 2.532l.612.696.932 1.061 3.83 4.356c.416 1.019.724 2.09.916 3.2l1.051 6.126.401 2.336c.39 2.268-.945 4.48-3.135 5.19z" transform="translate(8.398 5.762)"/>
        </g>
        <path fill="#807272" fill-rule="nonzero" d="M23.878 36.035c.342.163.696.25 1.05.26-.534-.006-1.065-.093-1.577-.26l-8.541-2.776-3.206-1.042c-2.19-.712-3.526-2.923-3.135-5.191l1.453-8.463c.192-1.109.5-2.18.915-3.199l5.377-6.115c1.005-1.144 2.279-2.026 3.715-2.53l.028-.01c1.631-.571 3.339-.856 5.042-.856-1.16 0-2.32.285-3.43.856-.599.307-6.821 5.513-6.821 11.82l-.003.034-.99 8.463c-.265 2.268.644 4.48 2.132 5.191l2.182 1.042 5.81 2.776z"/>
        <path fill="#E6E6E6" fill-rule="nonzero" d="M38.396 32.216l-3.206 1.042-8.541 2.777c-.517.168-1.052.255-1.589.26h-.132l-.014-.001c-.528-.007-1.056-.094-1.563-.26l-8.54-2.775-3.207-1.042c-2.19-.712-3.525-2.923-3.135-5.191l.401-2.336c1.927-.066 3.628.038 5.128.27 2.908.447 5.065 1.368 6.659 2.432C24.295 29.822 25 32.998 25 32.998s.705-3.176 4.342-5.605c2.416-1.614 6.128-2.9 11.788-2.703l.4 2.336c.39 2.268-.944 4.48-3.134 5.19z"/>
        <path stroke="#0F0F0E" stroke-linejoin="round" stroke-width="13" d="M36.97 11.629L36.97 11.627"/>
        <circle cx="25" cy="31.705" r="3.13" fill="#988" fill-rule="nonzero"/>
        <path fill="#665B5B" fill-rule="nonzero" d="M35.333 11.008l-.472.396c-8.663 7.367-5.103 9.673-5.52 15.989-.023.36-.06.732-.111 1.12-.975 7.19-4.23 4.485-4.23 4.485s-3.256 2.705-4.23-4.485c-.053-.388-.09-.76-.113-1.121-.394-5.966 2.761-8.354-4.19-14.81-.408-.378-.85-.77-1.33-1.178l-.451-.417.912-1.038.614-.7c1.006-1.144 2.28-2.027 3.719-2.53l.026-.01c1.63-.571 3.339-.856 5.042-.856H25c1.706 0 3.41.285 5.043.856l.03.01c1.436.505 2.71 1.388 3.716 2.532l.611.696.933 1.061z"/>
        <path fill="#0F0F0E" fill-rule="nonzero" d="M28.442 27.858c0 1.248-1.541 2.976-3.442 2.976-1.901 0-3.442-1.728-3.442-2.976 0-1.247 1.54-1.541 3.442-1.541 1.9 0 3.442.294 3.442 1.541z"/>
        <path fill="#988" fill-rule="nonzero" d="M43.304 3.482s4.538 9.833-3.971 14.182h-.001c-.036-.071-2.816-3.441-1.079-6.997.933-1.909 3.623-4.831 4.93-7.152l.121-.033z"/>
        <path fill="#665B5B" fill-rule="nonzero" d="M40.624 6.558s1.769 1.225.885 5.102c-.885 3.878-3.283 4.642-3.283 4.642l-2.5-3.417"/>
        <path fill="#807272" fill-rule="nonzero" d="M43.182 3.515c-1.306 2.321-2.916 5.243-3.85 7.152-1.736 3.556-.036 6.926 0 6.996l-3.45-3.848c-1.192-1.33-1.453-3.265-.617-4.843 1.005-1.897 3.187-4.173 7.917-5.457z"/>
        <path fill="#988" fill-rule="nonzero" d="M6.695 3.482s-4.537 9.833 3.971 14.182h.001c.036-.071 2.817-3.441 1.08-6.997-.934-1.909-3.624-4.83-4.93-7.152l-.122-.033z"/>
        <path fill="#665B5B" fill-rule="nonzero" d="M9.375 6.558s-1.769 1.225-.884 5.102c.884 3.878 3.283 4.642 3.283 4.642l2.5-3.417"/>
        <g fill="#807272" fill-rule="nonzero">
            <path d="M.079.097C1.385 2.418 2.995 5.34 3.928 7.249c1.737 3.556.037 6.926.001 6.996l4.916-5.483S9.22 2.578.08.097zM25.354 22.12c-1.35 0-2.45-1.099-2.45-2.45 0-1.105.745-2.077 1.812-2.364.209-.056.423-.084.637-.084 1.35 0 2.45 1.098 2.45 2.449 0 .214-.029.429-.085.637-.287 1.067-1.259 1.812-2.364 1.812zM11.17 22.12c-1.35 0-2.45-1.099-2.45-2.45 0-1.105.745-2.077 1.812-2.364.209-.056.423-.084.637-.084 1.35 0 2.45 1.098 2.45 2.449 0 .214-.029.429-.085.637-.287 1.067-1.26 1.812-2.364 1.812z" transform="translate(6.738 3.418)"/>
        </g>
        <g fill="#0F0F0E" fill-rule="nonzero" transform="translate(16.504 21.191)">
            <path d="M16.914 1.387c0 .12-.016.236-.045.346-.152.565-.668.98-1.281.98-.733 0-1.327-.593-1.327-1.326 0-.613.416-1.129.981-1.28.11-.03.227-.046.346-.046.733 0 1.326.593 1.326 1.326z"/>
            <circle cx="1.404" cy="1.387" r="1.327"/>
        </g>
        <g fill="#E6E6E6" fill-rule="nonzero">
            <path d="M16.036 1.387c0 .12-.017.236-.046.346-.157.073-.332.113-.516.113-.676 0-1.224-.548-1.224-1.224 0-.184.04-.36.113-.515.11-.03.227-.046.346-.046.733 0 1.327.593 1.327 1.326zM1.852 1.387c0 .12-.017.236-.046.346-.156.073-.332.113-.516.113C.614 1.846.066 1.298.066.622c0-.184.04-.36.113-.515C.29.077.406.06.525.06c.733 0 1.327.593 1.327 1.326z" transform="translate(17.383 21.191)"/>
        </g>
        <circle cx="26.735" cy="27.732" r="1" fill="#807272" fill-rule="nonzero"/>
        <path fill="#4D4445" fill-rule="nonzero" d="M15.138 11.404l-.452-.417.912-1.038.614-.7c1.006-1.144 2.28-2.027 3.719-2.53l.026-.01c1.63-.571 3.339-.856 5.042-.856-1.16 0-2.32.285-3.43.856-.394.202-3.215 2.518-5.103 5.874-.407-.379-.849-.77-1.328-1.179z"/>
        <path fill="#CCC" fill-rule="nonzero" d="M23.879 36.035c.336.16.686.248 1.035.259-.528-.007-1.056-.094-1.563-.26l-8.54-2.775-3.207-1.042c-2.19-.712-3.525-2.923-3.135-5.191l.401-2.336c1.927-.066 3.628.038 5.128.27l-.242 2.066c-.266 2.268.643 4.48 2.132 5.191l2.181 1.042 5.81 2.776z"/>
    </g>
</svg>
