<svg xmlns="http://www.w3.org/2000/svg" xmlns:xlink="http://www.w3.org/1999/xlink" width="1680" height="785" viewBox="0 0 1680 785">
    <defs>
        <linearGradient id="nr889iei1c" x1="50.521%" x2="49.864%" y1="46.063%" y2="56.456%">
            <stop offset="0%" stop-color="#6AAF47"/>
            <stop offset="100%" stop-color="#498A39"/>
        </linearGradient>
        <path id="2xw3ckijta" d="M0 0H1680V785H0z"/>
    </defs>
    <g fill="none" fill-rule="evenodd">
        <mask id="huk81xavab" fill="#fff">
            <use xlink:href="#2xw3ckijta"/>
        </mask>
        <use fill="#FFF" xlink:href="#2xw3ckijta"/>
        <g mask="url(#huk81xavab)">
            <g>
                <g fill-rule="nonzero" transform="translate(-97 -22) translate(151)">
                    <path fill="#65A4C5" d="M395.799 67.777s25.026-17.06 29.08-28.968c4.053-11.907 32.988-43.451 50.957-33.291 17.969 10.16 27.47-12.448 51.518-2.63 24.05 9.818 33.46 22.212 33.46 22.212s10.278-2.342 15.725 9.008c5.446 11.349-24.357 13.565-24.357 13.565s-.869 7.386-14.857 12.988c-13.988 5.603-32.717-2.828-31.088 2.685 1.628 5.512 18.421 3.224 16.648 9.818-1.774 6.593-27.994-3.513-54.704 7.206-26.709 10.718-58.25 20.32-63.335 15.87-5.084-4.449 2.28-12.61 2.28-12.61s-27.324 7.675-31.45 4.036c-4.126-3.64 20.123-19.889 20.123-19.889zM215.867 101.283s-20.784 12.4-17.996 17.525c2.787 5.125 48.002-30.542 76.699-43.223 28.697-12.681 23.608-28.635 10.326-30.169-13.282-1.533-20.709-12.213-33.355 4.527 0 0-14.292.187-24.693 15.449-10.401 15.261-10.981 35.891-10.981 35.891z" opacity=".3"/>
                    <path fill="#65A4C5" d="M35.07 674.93S17.973 691.503 20.17 694.26c2.198 2.756 14.345-6.068 14.345-6.068s-3.256 9.379-.554 9.933c2.04.266 4.115.076 6.074-.554 0 0-39.713 39.226-39.713 46.403 0 7.176 43.572-34.79 55.702-34.79 12.13 0 28.12-20.992 39.697-29.832 11.577-8.84 34.193-4.42 39.713-17.68 5.52-13.26 24.815-17.126 38.134-23.749 13.32-6.622 25.84-45.342-7.8-53.041-33.64-7.698-45.77 28.184-45.77 28.184s-17.096-7.747-27.029 4.404c-9.932 12.151-17.096 29.832-33.086 29.832-15.99 0-25.922 16.033-24.814 27.63zM233.393 580.595c-.828 7.265-4.41 13.933-10.009 18.626-2.873 2.338-5.061 4.808-5.061 6.868 0 6.1 52.541-28.797 94.568-40.98 42.026-12.183 33.732-23.254 33.732-23.254s13.813-6.1 6.629-20.506c-7.184-14.407-27.642-12.183-39.268 4.432 0 0-20.458-6.64-31.511 12.738 0 0-16.589 4.988-18.254 17.17-1.666 12.184-4.425 12.184-18.793 13.852-7.87.883-11.445 6.017-12.033 11.054z" opacity=".18"/>
                    <path fill="#65A4C5" d="M15.155 611.755c2.155 1.724 54.021-48.038 76.682-66.518 22.66-18.48 35.604-24.635 37.442-23.401 1.838 1.233-26.442 25.869-27.01 32.635-.57 6.766 46.656-33.87 59.494-37.57 12.837-3.702 19.646-6.156 25.12-11.701 5.473-5.546 34.982-19.09 67.52-33.87 32.536-14.778 24.55-18.48 44.197-25.205 19.646-6.726 36.82-9.857 40.51-13.545 3.688-3.688 13.498-17.246 25.78-20.324 12.282-3.078 3.067-36.337-20.876-24.026 0 0 2.46-25.206-22.713-24.025 0 0-.609-16.012-13.5-15.389-12.89.624-19.024 14.779-19.024 14.779s-9.255-13.545-34.375-4.312c-25.12 9.234-25.12 40.038-27.618 49.895-2.5 9.857-15.786 8.636-22.569 17.803-6.782 9.167 1.23 16.04-10.405 22.792-11.634 6.752-29.47 12.311-52.79 24.012-23.323 11.7-22.093 24.649-27.62 35.116-5.526 10.467-23.97 9.857-30.725 22.791-6.756 12.935-76.722 72.673-67.52 80.063z" opacity=".2"/>
                    <path fill="#65A4C5" d="M92.743 292.711c-3.392 21.147-12.208 41.059-25.59 57.802-5.484 6.837-9.184 13.32-7.567 16.957 4.51 10.064 92.959-68.209 191.524-104.159 98.564-35.95 80.211-63.012 55.567-60.346 0 0-22.315-27.91-40.243-13.88 0 0-37.872-40.722-73.729 8.876 0 0-42.764-1.983-50.522 36.565 0 0-40.942 5.949-49.44 58.185z" opacity=".27"/>
                    <path fill="#65A4C5" d="M81.033 122.702s-19.605 6.902-6.547 33.535c0 0-2.863 10.212 6.248 12.531 9.11 2.32 54.718-30.261 73.52-39.613 18.8-9.352-14.181-11.596-14.181-11.596s-31.503-45-59.04 5.143zM1331.6 53.066s-13.693-5.61-12.776 6.079c.916 11.69 67.345 44.12 86.595 49.993 19.25 5.873 25.442 6.547 43.139 18.386 17.697 11.839-19.063-33.928-19.063-33.928s9.13-22.444-12.309-27.456c0 0 1.235-28.541-14.255-27.307-15.49 1.234-21.345 15.71-30.362 10.193-9.017-5.517-28.322-13.317-40.968 4.04z" opacity=".3"/>
                    <path fill="#65A4C5" d="M1207.514 316.863c-2.454.058-4.749 1.221-6.245 3.164-1.495 1.943-2.03 4.457-1.456 6.839 1.307 9.637 43.87 10.907 90.999 25.242 47.128 14.334 83.368 31.922 91.522 35.07 8.153 3.15-26.135-20.666-26.135-20.666s4.025-19.136-18.973-18.11c0 0-5.227-16.213-17.98-10.072 0 0-2.143-31.783-25.82-26.512-23.678 5.271-17.58-34.166-51.955-32.287-34.375 1.878-33.957 37.332-33.957 37.332z" opacity=".25"/>
                    <path fill="#65A4C5" d="M1257.329 115.99s-55.887-22.24-56.701 31.033c0 0-14.587 14.278-8.885 32.738 5.7 18.459 26.358 26.228 55.901 27.548 0 0 24.093 29.356 57.012 20.757 0 0 76.9 26.347 160.345 82.347 83.445 56 107.45 77.1 115.031 72.651 7.582-4.448-98.194-84.734-114.912-94.342-16.719-9.608 0-6.865 16.14-.786 16.142 6.08-5.923-19.275-35.362-35.584-29.439-16.31-21.812-34.472-30.727-42.805-8.915-8.332-24.73-16.62-32-28.17-7.272-11.55-8.308-47.15-52.437-42.909.044-.015-38.62-50.203-73.405-22.477z" opacity=".28"/>
                    <path fill="#65A4C5" d="M1394.892 426.796s-22.247-18.012-32.829-1.066 14.825 36.006 37.055 41.247c0 0 3.178 24.354 31.763 23.306 28.586-1.049 60.35 63.539 92.095 74.143 31.747 10.604 63.597 25.437 63.597 25.437s3.179 28.598 26.473 36.006c23.294 7.407 21.164 32.826 37.055 52.952 9.394 11.856 24.098 18.217 39.167 16.946 0 0 11.647 18.011 26.455 18.011 0 0 20.117 15.88 30.716 29.7 10.6 13.819-50.902-119.723-238.27-251.064 0 0-12.713-55.083-73.062-57.197 0 0-22.23-23.305-40.215-8.42z" opacity=".2"/>
                    <path fill="#65A4C5" d="M1255.388 487.767s-13.713-2.563-13.713 15.411 6.847 20.574 54.812 30.842c47.965 10.268 114.787 50.499 124.216 54.8 9.428 4.302-69.385-55.66-69.385-55.66s10.27-1.721 7.707-10.287c-2.563-8.566-34.271-23.117-34.271-23.117s8.568-18.835-6.847-29.926c-15.415-11.09-31.653 7.669-31.653 7.669s-12.851-11.222-23.122-8.566c-10.27 2.656-7.744 18.834-7.744 18.834z" opacity=".18"/>
                    <path fill="#65A4C5" d="M1449.811 622.224s-17.117-9.351-26.545 6.846c-9.429 16.197 15.415 42.812 35.113 36.827 0 0 6.866 14.55 19.699 12.849 0 0 13.712 15.411 29.931 13.69 0 0 17.978 18.853 23.122 21.416 5.145 2.562 17.136 7.705 17.136 7.705s70.246 49.676 77.092 48.816c6.847-.86-60.76-77.937-134.43-130.923 0 0-11.13-36.92-41.118-17.226z" opacity=".17"/>
                    <path fill="#65A4C5" d="M899.54 17.997s-19.419-2.244-22 16.366c-2.582 18.61 30.455 33.834 46.431 20.835 0 0 11.842 10.904 23.085 4.47 0 0 18.52 9.09 32.943 1.366 0 0 23.758 10.642 29.501 11.09 5.743.45 18.708.674 18.708.674s83.808 19.47 89.794 16.085c5.986-3.386-85.754-49.19-173.977-70.549.056.075-24.17-29.813-44.485-.337z" opacity=".3"/>
                    <path fill="#65A4C5" d="M1041.47 436.333s-19.978 3.554-14.965 12.718c5.014 9.165 93.143 30.86 119.258 36.64 26.116 5.78-55.11-32.076-55.11-32.076s-17.1-38.81-49.182-17.282z" opacity=".18"/>
                    <ellipse cx="532.355" cy="377.736" fill="#FFAA2D" rx="33.43" ry="33.423"/>
                    <path fill="#65A4C5" d="M57.922 481.576c-.91-1.59-1.344-3.407-1.253-5.237.085-2.075.885-4.057 2.263-5.61 1.446-1.567 3.309-2.69 5.37-3.236.957-.244 1.933-.407 2.918-.487h2.787l-3.592 3.591c-.043-1.077.033-2.156.225-3.217.156-1.01.42-2 .785-2.955.797-2.064 2.224-3.824 4.079-5.031 1.793-1.11 3.912-1.572 6.005-1.31.909.156 1.804.388 2.675.693.81.375 1.598.8 2.357 1.272.033.031.052.075.052.121s-.02.09-.052.122c-.033.07-.11.11-.187.093l-2.376-.374c-.798-.047-1.597-.047-2.395 0-1.562.16-3.044.771-4.265 1.758-1.205 1.01-2.089 2.349-2.544 3.853-.48 1.51-.696 3.092-.636 4.676.01.1-.022.2-.09.276-.068.075-.164.117-.266.117h-2.357c-.767.093-1.571.112-2.32.28-1.53.27-2.966.928-4.171 1.908-1.157 1.052-1.971 2.427-2.338 3.946-.39 1.527-.49 3.113-.3 4.676.011.048.001.098-.028.137-.028.04-.073.065-.121.069-.058.033-.13.033-.187 0l-.038-.13zM97.9 433.714c-.759-1.667-1.019-3.518-.749-5.33.282-2.062 1.266-3.965 2.787-5.386 1.584-1.407 3.527-2.346 5.613-2.712.98-.133 1.967-.202 2.955-.206l2.769.243-3.91 3.217c.064-1.038.24-2.067.524-3.067.241-.993.6-1.954 1.066-2.862 1.029-1.928 2.63-3.49 4.584-4.47 1.895-.937 4.054-1.195 6.117-.73.89.25 1.76.57 2.6.954.767.451 1.505.951 2.208 1.497.07.072.07.189 0 .261-.057.038-.13.038-.188 0l-2.338-.598c-.804 0-1.59-.243-2.376-.225-1.586-.044-3.15.386-4.49 1.235-1.31.877-2.328 2.128-2.918 3.59-.628 1.453-.996 3.004-1.085 4.583 0 .101-.042.198-.117.266-.075.068-.175.1-.276.09l-2.338-.281H106c-1.552.145-3.04.686-4.322 1.571-1.26.946-2.205 2.25-2.712 3.74-.493 1.489-.702 3.056-.618 4.62-.007.078-.061.142-.136.163-.075.02-.154-.007-.2-.069l-.113-.094zM138.4 427.599c-.625-1.726-.748-3.594-.355-5.387.442-2.032 1.564-3.853 3.18-5.162 1.669-1.286 3.665-2.077 5.762-2.282.984-.075 1.972-.075 2.956 0l2.768.43-4.153 2.937c.141-1.034.392-2.05.749-3.03.311-.97.738-1.9 1.272-2.768 1.128-1.905 2.831-3.405 4.864-4.283 1.952-.795 4.119-.894 6.136-.28.874.303 1.719.685 2.525 1.14.737.497 1.437 1.048 2.095 1.646.072.073.072.189 0 .262-.06.046-.145.046-.206 0l-2.17-.674c-.775-.185-1.563-.316-2.357-.392-3.229-.41-6.352 1.314-7.726 4.264-.732 1.4-1.207 2.92-1.403 4.489-.037.205-.222.35-.43.336l-2.32-.467c-.767 0-1.552-.15-2.338-.112-1.553.044-3.07.475-4.415 1.253-1.318.843-2.353 2.061-2.974 3.497-.642 1.44-1.004 2.989-1.067 4.564 0 .05-.02.097-.055.132s-.082.055-.132.055c-.073-.001-.139-.045-.168-.112l-.038-.056zM155.892 379.176c-.435-1.774-.364-3.633.205-5.368.652-1.988 1.975-3.687 3.742-4.807 1.818-1.127 3.921-1.711 6.06-1.683.987.03 1.969.137 2.938.318l2.694.71-4.434 2.488c.258-1.011.615-1.995 1.067-2.936.42-.933.94-1.817 1.552-2.637 1.325-1.768 3.17-3.076 5.276-3.741 2.026-.591 4.196-.46 6.136.374.84.383 1.643.846 2.394 1.384.664.581 1.29 1.206 1.87 1.87.072.073.072.19 0 .262-.063.037-.141.037-.205 0l-2.189-.898c-.767-.187-1.515-.505-2.3-.617-3.173-.747-6.465.645-8.138 3.442-.867 1.322-1.5 2.783-1.871 4.32-.047.203-.244.334-.449.3l-2.264-.693c-.767-.112-1.534-.299-2.32-.336-1.545-.147-3.102.124-4.508.785-1.4.699-2.56 1.8-3.33 3.161-.783 1.369-1.303 2.872-1.534 4.433-.018.099-.105.17-.205.168-.07-.015-.126-.064-.15-.13l-.037-.17zM197.496 380.86c-.682-1.704-.864-3.566-.523-5.369.377-2.047 1.447-3.903 3.03-5.255 1.652-1.357 3.658-2.213 5.78-2.47.978-.074 1.96-.074 2.938 0l2.768.356-4.06 3.049c.118-1.037.344-2.059.674-3.049.278-.98.674-1.921 1.179-2.805 1.07-1.988 2.748-3.58 4.789-4.545 1.932-.855 4.1-1.014 6.136-.45.882.277 1.74.627 2.563 1.048.748.479 1.46 1.01 2.132 1.59.072.073.072.19 0 .262-.056.038-.13.038-.187 0l-2.245-.58c-.783-.16-1.577-.266-2.375-.318-3.245-.322-6.326 1.494-7.614 4.489-.675 1.426-1.099 2.957-1.254 4.526-.004.103-.05.2-.129.266-.078.068-.18.1-.282.09l-2.339-.375c-.778-.046-1.56-.046-2.338 0-1.554.076-3.062.553-4.377 1.384-1.29.883-2.292 2.125-2.881 3.573-.595 1.462-.906 3.023-.917 4.6-.009.1-.088.18-.187.188-.073-.001-.14-.045-.168-.112l-.113-.094zM1396.982 388.415c-.39-1.216-.93-2.378-1.609-3.46-.496-.791-1.193-1.437-2.02-1.87-.75-.318-1.546-.52-2.357-.599l-1.403-.112h-1.74c-.858.035-1.696-.272-2.327-.854-.632-.583-1.006-1.392-1.04-2.25-.019-.193-.019-.388 0-.58.04-.43.04-.862 0-1.291-.031-.459-.094-.915-.187-1.365-.106-.768-.367-1.506-.767-2.17-.53-.776-1.27-1.386-2.133-1.758-.505-.3-1.104-.43-1.72-.71-.618-.281-1.292-.375-2.003-.6h-.112c-.09-.034-.138-.131-.112-.224.031-.057.086-.098.15-.112l1.983-.3c.678-.046 1.36-.046 2.039 0 2.853.163 5.284 2.128 6.042 4.882.418 1.31.596 2.686.524 4.059l-.393-.411h2.02c.667.082 1.33.2 1.983.355 1.326.307 2.55.952 3.555 1.87.966.97 1.618 2.208 1.87 3.554.253 1.316.253 2.668 0 3.984-.008.045-.036.084-.074.11-.04.024-.087.032-.131.02-.042.02-.09.02-.131 0l.093-.168zM1435.912 399.338c-.302-1.243-.775-2.44-1.403-3.554-.427-.826-1.075-1.519-1.87-2.001-.73-.371-1.512-.624-2.32-.748l-1.404-.206H1427.176c-.862-.015-1.682-.372-2.28-.994-.596-.621-.92-1.455-.9-2.316-.011-.187-.011-.375 0-.561.066-.434.097-.871.093-1.31-.008-.457-.046-.913-.112-1.365-.053-.784-.27-1.549-.636-2.244-.484-.801-1.185-1.45-2.02-1.87-.54-.302-1.095-.57-1.666-.805-.623-.2-1.278-.443-1.964-.73h-.112c-.082-.04-.122-.136-.094-.224.023-.064.082-.108.15-.112l2.002-.187c.675.012 1.35.062 2.02.15 2.84.331 5.152 2.44 5.743 5.237.346 1.33.441 2.712.28 4.077l-.355-.43 2.002.168c.632.122 1.256.278 1.87.468 1.31.384 2.493 1.114 3.424 2.113.91 1.022 1.497 2.291 1.684 3.647.19 1.328.127 2.68-.187 3.984-.01.045-.036.085-.075.11-.04.024-.086.032-.131.02 0 0-.112 0-.112-.111l.112-.206zM1365.292 348.615c-.486-1.17-1.114-2.276-1.87-3.292-.563-.746-1.32-1.322-2.19-1.665-.772-.254-1.58-.38-2.394-.374h-1.496l-1.553.206h-.187c-.866.144-1.753-.069-2.458-.59-.706-.522-1.169-1.308-1.284-2.178v-.58c.01-.433-.027-.866-.112-1.29-.073-.45-.179-.894-.318-1.328-.178-.769-.509-1.494-.973-2.132-.604-.712-1.394-1.243-2.282-1.534-.614-.213-1.238-.394-1.87-.543l-2.058-.411c-.034-.058-.034-.13 0-.187-.001-.066.047-.122.112-.131l1.964-.505c.669-.102 1.344-.159 2.02-.168 1.383-.038 2.745.34 3.91 1.085 1.157.78 2.056 1.887 2.582 3.18.54 1.269.85 2.624.917 4.002l-.43-.375 2.001-.15c.673 0 1.347 0 2.02.15 1.361.184 2.65.719 3.742 1.553 1.051.868 1.825 2.026 2.226 3.329.39 1.283.543 2.627.449 3.965-.017.092-.094.161-.187.168 0 0-.112 0-.15-.093l-.13-.112zM1424.688 350.878c-.374-1.222-.902-2.391-1.572-3.479-.49-.79-1.18-1.435-2.002-1.87-.746-.333-1.542-.542-2.357-.618l-1.403-.15H1415.615c-.862.031-1.7-.284-2.329-.874-.628-.59-.996-1.406-1.02-2.267-.01-.187-.01-.374 0-.561.04-.436.04-.874 0-1.31 0-.486-.131-.916-.187-1.365-.095-.78-.35-1.53-.748-2.207-.512-.812-1.246-1.461-2.114-1.87-.505-.318-1.104-.43-1.703-.73-.598-.299-1.29-.374-2.02-.617-.09-.035-.138-.132-.112-.224.026-.062.083-.105.15-.113l1.982-.28c.68-.038 1.36-.038 2.04 0 1.367.119 2.669.64 3.74 1.496 1.062.906 1.836 2.102 2.227 3.442.396 1.314.56 2.687.486 4.058l-.392-.411h2.001c.674.13 1.347.187 2.002.355 1.319.312 2.536.956 3.536 1.87.954.979 1.604 2.213 1.87 3.554.253 1.322.253 2.68 0 4.002-.009.046-.036.085-.075.11-.038.025-.086.033-.13.021-.058-.016-.106-.057-.131-.112v.15zM1332.33 342.798c-.583-1.138-1.312-2.194-2.17-3.142-.612-.709-1.408-1.233-2.3-1.515-.788-.204-1.604-.274-2.414-.206l-1.422.112-1.534.337h-.168c-1.754.359-3.47-.758-3.854-2.506-.017-.187-.017-.375 0-.561-.035-.435-.104-.867-.206-1.29-.112-.445-.249-.882-.411-1.31-.238-.75-.627-1.444-1.141-2.039-.65-.68-1.481-1.16-2.395-1.384-.542-.224-1.16-.224-1.87-.411-.711-.187-1.347-.15-2.096-.262h-.112c-.044-.004-.084-.027-.109-.063-.025-.036-.033-.082-.022-.124 0-.066.047-.122.112-.131l1.871-.636c.66-.148 1.329-.26 2.002-.337 2.827-.317 5.548 1.182 6.79 3.741.625 1.23 1.03 2.559 1.198 3.928l-.45-.337 1.984-.3c.673-.037 1.347-.037 2.02 0 1.336.093 2.626.532 3.741 1.273 1.127.785 1.988 1.894 2.47 3.18.493 1.243.74 2.57.73 3.908.005.048-.01.096-.043.132-.032.035-.078.056-.126.055-.062-.004-.119-.04-.15-.093l.075-.019zM1319.01 302.96c-.709-1.068-1.544-2.048-2.487-2.918-.683-.64-1.532-1.075-2.451-1.253-.805-.13-1.627-.13-2.432 0l-1.384.262-1.497.486h-.168c-1.704.54-3.525-.395-4.078-2.094 0-.187 0-.374-.131-.561-.065-.43-.178-.85-.337-1.254-.143-.433-.325-.852-.543-1.253-.315-.704-.766-1.34-1.328-1.87-.725-.595-1.598-.983-2.525-1.122-.561-.15-1.179-.112-1.871-.225-.692-.112-1.347 0-2.095 0h-.075c-.045-.004-.086-.027-.114-.062-.028-.035-.04-.08-.036-.125.005-.062.04-.118.094-.15l1.87-.822c.614-.209 1.239-.383 1.871-.524 1.354-.28 2.761-.15 4.041.374 1.274.579 2.352 1.514 3.105 2.693.75 1.142 1.288 2.41 1.59 3.741l-.486-.3 1.87-.485c.664-.106 1.332-.175 2.003-.206 1.37-.065 2.733.239 3.947.879 1.232.642 2.238 1.648 2.88 2.88.61 1.165.997 2.434 1.142 3.74 0 .097-.073.178-.169.188-.046.027-.103.027-.15 0l-.055-.019zM1284.964 303.446c-.558-1.153-1.256-2.233-2.077-3.217-.6-.717-1.381-1.26-2.263-1.57-.785-.222-1.6-.317-2.414-.281h-1.421l-1.534.28h-.169c-1.753.295-3.419-.87-3.741-2.618v-.561c-.02-.434-.077-.866-.169-1.29-.1-.45-.224-.893-.374-1.329-.21-.757-.572-1.464-1.066-2.076-.638-.688-1.454-1.186-2.357-1.44-.613-.196-1.238-.353-1.87-.467-.656 0-1.348-.187-2.077-.318h-.113c-.045-.01-.084-.036-.11-.075-.024-.04-.032-.086-.02-.131.01-.061.053-.111.112-.131l1.87-.58c.669-.124 1.343-.211 2.02-.262 2.847-.242 5.528 1.363 6.66 3.984.603 1.244.971 2.588 1.086 3.965l-.43-.355 1.982-.243h2.02c1.347.139 2.636.622 3.742 1.402 1.1.815 1.928 1.943 2.376 3.236.456 1.264.666 2.604.617 3.946-.01.096-.09.17-.187.169-.041.02-.09.02-.13 0l.037-.038z"/>
                </g>
                <g transform="translate(-97 -22) translate(0 514)">
                    <path fill="#396A83" fill-rule="nonzero" d="M757.819 139.256L752.394 140.004 748.578 106.159 752.263 105.635z"/>
                    <path fill="#396A83" fill-rule="nonzero" d="M727.402 115.42L726.579 119.049 778.658 101.762 779.462 98.132z"/>
                    <path fill="#396A83" fill-rule="nonzero" d="M713.503 95.681L712.68 99.311 726.579 119.049 727.402 115.42z"/>
                    <path fill="#FFBF1F" fill-rule="nonzero" d="M779.462 98.132L727.402 115.42 713.503 95.681 765.564 78.412z"/>
                    <path stroke="#F88F00" stroke-linecap="round" stroke-linejoin="round" stroke-width=".75" d="M721.042 101.78L767.771 86.27M725.045 108.348L771.793 92.837M725.7 94.521L736.756 110.106M735.858 91.21L746.913 106.795M745.997 87.898L757.071 103.483M756.154 84.605L767.228 100.171"/>
                    <path fill="#65A4C5" fill-rule="nonzero" d="M280.036 287.567s-64.257-97.44 52.771-121.8c0 0 5.388-16.576 21.962-11.225 0 0 16.536-25.558 43.923-1.722 0 0 8.848-14.088 23.776-3.891 0 0 7.8-48.121 61.544-47.672 53.744.449 59.954 29.336 59.954 29.336s16.5-2.058 19.343 8.307c0 0 25.104-15.06 39.283 8.72 0 0 23.29-12.031 29.725 26.08l-352.28 113.867z" opacity=".15"/>
                    <path fill="#65A4C5" fill-rule="nonzero" d="M6.416 403.324s-33.466-96.823 52.771-121.8c0 0 5.388-16.558 21.962-11.226 0 0 16.536-25.538 43.904-1.721 0 0 8.848-14.07 23.776-3.892 0 0 7.8-48.12 61.563-47.653 53.762.468 59.86 29.337 59.86 29.337s16.5-2.077 19.362 8.307c0 0 25.104-14.968 39.284 8.718 0 0 23.27-12.03 29.724 26.063L6.416 403.324z" opacity=".15"/>
                    <path fill="#396A83" fill-rule="nonzero" d="M232.204 317.072L208.016 285.303 222.944 274.134 245.56 304.78z"/>
                    <path fill="#396A83" fill-rule="nonzero" d="M210.785 324.07L179.377 282.834 198.775 268.334 228.126 308.11z"/>
                    <path fill="#65A4C5" fill-rule="nonzero" d="M190.975 337.559L161.755 300.645 179.377 282.834 210.785 324.07z"/>
                    <path fill="#498A39" fill-rule="nonzero" d="M614.134 178.284L609.196 137.535 628.258 135.402 632.373 174.337z"/>
                    <path fill="#498A39" fill-rule="nonzero" d="M591.481 173.364L585.083 120.453 609.813 117.684 615.163 168.218z"/>
                    <path fill="#6AAF47" fill-rule="nonzero" d="M566.919 175.029L560.185 127.095 585.083 120.453 591.481 173.364z"/>
                    <path fill="#498A39" fill-rule="nonzero" d="M535.586 163.504L572.643 154.205 575.618 171.755 538.13 180.81z"/>
                    <path fill="#498A39" fill-rule="nonzero" d="M533.004 182.269L522.229 144.008 534.594 140.622 544.322 177.274z"/>
                    <path fill="#6AAF47" fill-rule="nonzero" d="M515.083 186.311L504.645 151.754 522.229 144.008 533.004 182.269z"/>
                    <path fill="#498A39" fill-rule="nonzero" d="M499.651 198.715L491.326 166.74 516.617 159.5 523.913 189.866z"/>
                    <path fill="#6AAF47" fill-rule="nonzero" d="M481.749 202.756L473.742 174.486 491.326 166.74 499.651 198.715z"/>
                    <path fill="#65A4C5" fill-rule="nonzero" d="M358.192 191.082L350.073 189.847 339.935 199.314 345.734 208.575 336.998 213.814 350.953 237.575 364.122 226.686 365.375 201.709z"/>
                    <path fill="#396A83" fill-rule="nonzero" d="M363.018 227.809L350.391 206.405 357.088 202.307 350.073 189.847 373.644 176.563 380.771 187.751 391.789 182.737 404.247 209.829zM343.713 240.12L326.148 208.22 337.203 202.401 353.422 232.991z"/>
                    <path fill="#65A4C5" fill-rule="nonzero" d="M327.532 247.697L311.07 219.258 326.148 208.22 343.713 240.12z"/>
                    <path fill="#396A83" fill-rule="nonzero" d="M329.908 248.015L303.139 200.231 314.176 194.431 339.617 240.887z"/>
                    <path fill="#65A4C5" fill-rule="nonzero" d="M313.745 255.611L288.061 211.288 303.139 200.231 329.908 248.015zM271.413 232.561L263.219 232.018 253.922 242.29 260.469 251.046 252.182 256.996 268.083 279.503 280.298 267.567 279.456 242.571z"/>
                    <path fill="#396A83" fill-rule="nonzero" d="M279.269 268.764L264.921 248.483 271.244 243.843 263.219 232.018 285.611 216.807 293.636 227.378 304.186 221.466 318.871 247.398z"/>
                    <path fill="#65A4C5" fill-rule="nonzero" d="M1204 142.64s23.739-99.648 109.938-74.352c0 0 13.45-11.077 24.524 2.376 0 0 27.686-12.667 37.956 22.133 0 0 14.965-7.11 22.148 9.505 0 0 32.437-36.39 77.52-7.129 45.083 29.262 34.794 56.971 34.794 56.971s14.965 7.11 11.86 17.4c0 0 29.276.786 28.471 28.476 0 0 26.19 2.376 11.075 37.962L1204 142.64z" opacity=".15"/>
                    <path fill="#498A39" fill-rule="nonzero" d="M891.832 127.469s9.952-13.527 22.448-14.37c12.496-.841 12.085 3.63 12.085 3.63s4.003-8.475 11.972-9.691c7.969-1.216 8.66 5.613 8.66 5.613s2.956-6.773 9.728-7.858 9.092 5.968 9.092 5.968c4.227-4.455 10.509-6.316 16.48-4.883 10.738 2.17 16.032 18.616 16.032 18.616l-106.497 2.975z"/>
                    <path fill="#498A39" fill-rule="nonzero" d="M985.608 125.598s4.003-12.274 13.095-10.459c0 0 12.309-16.595 25.197-13.658 12.89 2.938 10.944 9.935 10.944 9.935s6.584-9.355 12.963-6.343c3.572 1.41 5.36 5.419 4.022 9.018 0 0 11.392-4.172 15.807.337 4.415 4.51 4.976 13.415 4.976 13.415l-87.004-2.245zM1170.166 144.158c-11.373-1.871-9.353-18.953 2.17-17.83h.43c20.69 2.507 14.854-14.725 36.721-12.667 22.168 2.077 26.19 19.327 26.19 19.327s11.672-3.255 16.05 3.274c.19.271.364.552.524.842 4.92 9.037-3.237 19.739-13.376 18.111l-68.709-11.057z"/>
                    <path fill="#6AAF47" fill-rule="nonzero" d="M1248.303 151.342s11.673-10.065 19.717-8.85c8.044 1.217 9.353 6.044 9.353 6.044 5.404-4.404 12.609-5.91 19.324-4.041 11.224 3.218 9.241 10.477 9.241 10.477s12.889-.805 14.965 8.045c2.077 8.85-72.6-11.675-72.6-11.675z"/>
                    <path fill="#498A39" fill-rule="nonzero" d="M1400.182 200.418L1393.896 196.002 1434.901 140.977 1437.838 143.035z"/>
                    <ellipse cx="1452.054" cy="132.868" fill="#6AAF47" fill-rule="nonzero" rx="15.172" ry="4.659" transform="rotate(-28.51 1452.055 132.868)"/>
                    <path fill="#6AAF47" fill-rule="nonzero" d="M1441.055 158.546c-3.984-7.353-5.406-14.313-3.142-15.548 2.263-1.235 7.314 3.742 11.223 11.113 3.91 7.372 5.407 14.332 3.162 15.548-2.245 1.216-7.146-3.742-11.243-11.113zM1419.58 145.337c7.37-4.004 14.33-5.408 15.564-3.162 1.235 2.245-3.741 7.334-11.112 11.338-7.37 4.004-14.329 5.407-15.563 3.143-1.235-2.264 3.76-7.316 11.111-11.32zM1432.806 123.858c4.003 7.371 5.406 14.331 3.161 15.548-2.245 1.216-7.333-3.742-11.336-11.114-4.003-7.372-5.406-14.313-3.143-15.548 2.264-1.234 7.314 3.761 11.318 11.114z"/>
                    <path fill="#396A83" fill-rule="nonzero" d="M1438.998 145c-2.087 1.13-4.694.358-5.829-1.726-1.134-2.085-.368-4.694 1.714-5.833 2.082-1.139 4.693-.377 5.836 1.703 1.138 2.092.368 4.712-1.721 5.856zM1251.371 154.298L1258.91 155.758 1266.898 108.572 1261.753 107.562z"/>
                    <path fill="#396A83" fill-rule="nonzero" d="M1298.456 116.037L1300.382 120.902 1224.284 108.479 1222.358 103.614z"/>
                    <path fill="#396A83" fill-rule="nonzero" d="M1313.365 85.559L1315.291 90.424 1300.382 120.902 1298.456 116.037z"/>
                    <path fill="#FFBF1F" fill-rule="nonzero" d="M1222.358 103.614L1298.456 116.037 1313.365 85.559 1237.248 73.155z"/>
                    <path stroke="#F88F00" stroke-linecap="round" stroke-linejoin="round" d="M1304.049 95.326L1235.733 84.175M1299.933 105.335L1231.636 94.203M1295.968 86.289L1284.07 110.368M1281.133 83.95L1269.255 108.03M1266.318 81.611L1254.42 105.71M1251.484 79.291L1239.586 103.371"/>
                    <path fill="#396A83" fill-rule="nonzero" d="M1341.013 175.646L1347.747 177.442 1357.867 135.252 1353.284 134.017z"/>
                    <path fill="#396A83" fill-rule="nonzero" d="M1385.946 143.933L1387.405 148.442 1319.351 132.539 1317.892 128.03z"/>
                    <path fill="#396A83" fill-rule="nonzero" d="M1401.304 117.291L1402.763 121.8 1387.405 148.442 1385.946 143.933z"/>
                    <path fill="#FFBF1F" fill-rule="nonzero" d="M1317.892 128.03L1385.946 143.933 1401.304 117.291 1333.25 101.388z"/>
                    <path stroke="#F88F00" stroke-linecap="round" stroke-linejoin="round" stroke-width=".75" d="M1392.344 125.635L1331.248 111.36M1388.004 134.448L1326.927 120.172M1385.59 116.973L1373.356 138.021M1372.328 113.942L1360.094 134.99M1359.065 110.93L1346.831 131.978M1345.783 107.899L1333.549 128.947"/>
                    <path fill="#498A39" fill-rule="nonzero" d="M1619.702 270.467s11.224-12.873 24.132-3.63c0 0 13.693-7.24 22.953 2.825 0 0 13.263-9.261 23.327 10.066 9.582-1.681 18.854 4.265 21.325 13.677 0 0 14.086-6.044 24.15 9.654 10.064 15.697-.486 30.59-.486 30.59s6.846 6.043 4.826 10.87c0 0 8.867 10.46-2.806 21.33l-117.42-95.382z"/>
                    <path fill="#498A39" fill-rule="nonzero" d="M1426.97 191.587s.804-7.652 9.652-4.827c0 0 13.281-4.023 18.5 6.043 0 0 16.836-9.673 27.78-.805 10.943 8.869 11.654 14.482 11.654 14.482s7.65-7.241 13.281-1.61c0 0 12.89-8.045 19.324 6.848 0 0 17.697-13.283 26.956 3.218 0 0 11.224-9.672 17.304 4.023 0 0 6.828-11.226 17.696-3.218 0 0 22.13-8.868 30.585 12.872 0 0 11.673.393 11.224 12.068 0 0 6.042 4.434 6.435 9.261 0 0 26.956 14.968 11.673 44.679L1426.97 191.587z"/>
                    <path fill="#B6C176" fill-rule="nonzero" d="M1551.779 237.463s16.088-14.968 32.194 0c0 0 6.023-1.198 10.045 1.609 0 0 10.476-10.066 23.346 1.216s6.847 21.329 6.847 21.329 14.478 3.611 9.652 16.502l-82.084-40.656z" opacity=".7"/>
                    <path fill="#498A39" fill-rule="nonzero" d="M713.952 141.445L703.233 143.597 686.79 47.167 691.804 46.157z"/>
                    <path fill="#6AAF47" fill-rule="nonzero" d="M701.812 23.35c-3.106 11.525-8.493 20.094-12.029 19.14-3.535-.955-3.872-11.077-.766-22.602 3.105-11.525 8.511-20.094 12.047-19.14 3.535.955 3.872 11.076.748 22.602zM710.978 58.112c-11.542-3.124-20.11-8.513-19.155-12.049.954-3.536 11.074-3.873 22.597-.748 11.523 3.124 20.11 8.494 19.155 12.03-.954 3.536-11.074 3.873-22.597.767zM676.315 67.261c3.124-11.525 8.511-20.094 12.047-19.14 3.535.954 3.872 11.076.748 22.601-3.124 11.526-8.511 20.095-12.047 19.14-3.535-.954-3.947-11.038-.748-22.6zM667.074 32.499c11.523 3.124 20.09 8.513 19.137 12.049-.954 3.536-11.075 3.873-22.598.748-11.523-3.124-20.09-8.494-19.137-12.03.954-3.536 11.056-3.873 22.598-.767z"/>
                    <path fill="#396A83" fill-rule="nonzero" d="M695.021 46.905c-.633 2.405-2.654 4.19-5.119 4.52-2.464.33-4.884-.86-6.127-3.014-1.244-2.153-1.065-4.844.452-6.814 1.518-1.97 4.074-2.83 6.473-2.176 3.244.894 5.168 4.227 4.321 7.484z"/>
                    <path fill="#498A39" fill-rule="nonzero" d="M678.578 143.821L675.08 144.663 668.477 113.324 670.104 112.931z"/>
                    <path fill="#6AAF47" fill-rule="nonzero" d="M673.079 105.354c-.86 3.742-2.526 6.68-3.742 6.417-1.216-.261-1.403-3.573-.542-7.39.86-3.817 2.525-6.68 3.741-6.417 1.216.262 1.422 3.573.543 7.39zM676.52 116.599c-3.74-.861-6.678-2.526-6.416-3.742.262-1.217 3.573-1.404 7.39-.543 3.815.86 6.678 2.526 6.416 3.742-.262 1.216-3.573 1.422-7.39.543zM665.278 119.985c.86-3.742 2.525-6.68 3.741-6.417 1.216.261 1.403 3.573.543 7.39-.86 3.817-2.526 6.68-3.742 6.417-1.215-.262-1.421-3.517-.542-7.39zM661.836 108.76c3.741.879 6.678 2.525 6.416 3.741-.262 1.216-3.573 1.422-7.389.543-3.816-.88-6.678-2.526-6.416-3.742.262-1.216 3.573-1.385 7.389-.543z"/>
                    <path fill="#396A83" fill-rule="nonzero" d="M671.133 113.156c-.253 1.073-1.325 1.74-2.398 1.492-1.074-.248-1.746-1.318-1.502-2.393.243-1.075 1.309-1.751 2.385-1.513 1.083.251 1.76 1.33 1.515 2.414z"/>
                    <path fill="#498A39" fill-rule="nonzero" d="M645.823 152.409L638.509 153.457 630.166 83.801 633.589 83.295z"/>
                    <path fill="#6AAF47" fill-rule="nonzero" d="M641.221 68.29c-2.544 7.671-6.51 13.247-8.866 12.46-2.357-.785-2.19-7.614.355-15.285 2.544-7.67 6.51-13.228 8.848-12.46 2.338.767 2.189 7.633-.337 15.285zM646.066 92.089c-7.65-2.526-13.244-6.492-12.458-8.85.786-2.357 7.613-2.189 15.283.356 7.67 2.544 13.226 6.51 12.459 8.85-.767 2.338-7.633 2.188-15.284-.356z"/>
                    <ellipse cx="626.53" cy="98.371" fill="#6AAF47" fill-rule="nonzero" rx="14.612" ry="4.471" transform="rotate(-71.64 626.53 98.371)"/>
                    <path fill="#6AAF47" fill-rule="nonzero" d="M617.408 73.21c7.67 2.545 13.244 6.493 12.459 8.85-.786 2.358-7.614 2.19-15.265-.355-7.65-2.544-13.244-6.51-12.458-8.85.785-2.338 7.613-2.245 15.264.356z"/>
                    <path fill="#396A83" fill-rule="nonzero" d="M635.684 83.931c-.724 2.175-3.074 3.352-5.249 2.629-2.175-.723-3.353-3.072-2.633-5.248.721-2.176 3.068-3.357 5.245-2.638 2.175.73 3.353 3.078 2.637 5.257z"/>
                    <path fill="#65A4C5" fill-rule="nonzero" d="M947.56 131.042c-134.688 0-262.079 14.033-374.767 38.935-46.83 10.23-93.046 23.092-138.428 38.523-160.427 54.95-273.9 135.103-309.724 226.892h1645.836c-67.456-172.84-410.215-304.35-822.918-304.35z"/>
                    <path fill="#65A4C5" fill-rule="nonzero" d="M561.27 196.208c29.257 9.505 54.38 27.13 79.69 44.099 12.29 8.51 25.056 16.312 38.236 23.368 12.496 6.455 25.983 10.31 38.591 16.408 7.486 3.425 13.938 8.762 18.707 15.473 3.46 4.902 6.304 9.898 11.224 13.565 10.176 7.615 23.7 7.615 35.804 8.513 31.015 2.301 54.847 21.123 82.552 32.929 13.17 5.683 27.334 8.71 41.678 8.905 17.322.244 34.532-2.581 51.835-2.694 34.85-.262 63.116 18.28 95.404 28.065 31.8 9.56 65.472 9.055 98.153 5.95 20.352-1.872 48.505-5.613 58.626-26.419 7.108-14.687-1.871-30.478 3.068-45.277 6.528-19.683 32.287-16.54 47.215-10.983 16.836 6.23 31.8 13.34 49.909 15.211 19.53 2.04 39.171 0 58.588-2.114 3.106-.337 3.143-5.238 0-4.902-16.966 1.871-34.064 3.574-51.143 2.657-18.295-.973-33.84-6.567-50.508-13.49-18.538-7.67-50.507-13.096-58.832 12.293-4.676 14.387 3.985 30.047-2.581 44.06-5.612 12.125-19.642 17.625-31.801 20.581-14.647 3.555-30.174 4.322-45.176 5.015-17.4 1.035-34.86.257-52.098-2.32-33.185-5.426-61.544-24.547-94.243-31.077-33.298-6.642-67.475 6.174-100.51-2.357-28.06-7.241-50.807-26.998-78.568-35.137-13.356-3.93-27.124-2.825-40.63-5.5-8.573-1.383-16.19-6.252-21.045-13.453-3.741-5.463-7.09-10.665-12.384-14.856-11.673-9.205-26.731-12.423-40.088-18.335-15.134-7.037-29.662-15.31-43.436-24.734-27.125-17.812-53.763-37.42-85.564-45.876-.573.027-1.063.42-1.217.972-.153.553.066 1.142.544 1.46z" opacity=".3" style="mix-blend-mode:multiply"/>
                    <path fill="#65A4C5" fill-rule="nonzero" d="M546.847 230.372c24.955-8.887 52.004-.15 70.692 17.662 8.394 8.196 15.44 17.667 20.876 28.064 4.939 9.205 8.213 19.552 14.966 27.653 6.753 8.101 16.405 11.956 26.02 15.436 12.72 4.602 25.46 9.092 38.2 13.62 12.738 4.528 25.74 8.831 38.366 13.808 12.586 5.095 24.033 12.644 33.672 22.208 15.9 15.062 33.671 21.086 55.165 23.799 24.319 3.106 46.598 5.295 68.728 16.932 18.351 9.636 35.542 21.984 55.352 28.532 23.477 7.765 44.653 1.198 67.999-3.236 59.767-11.357 119.908 9.354 179.919 6.211 4.302-.243 4.34-6.96 0-6.735-53.463 2.9-106.141-12.798-159.585-8.756-25.554 1.87-51.537 13.938-77.22 8.85-21.55-4.266-39.995-17.288-58.945-27.654-19.268-10.533-38.554-15.847-60.329-18.204-11.953-1.291-24.037-2.245-35.692-5.407-12.926-3.518-22.784-10.16-32.4-19.271-8.087-8.133-17.548-14.77-27.947-19.608-11.317-5.014-23.196-8.756-34.85-12.89l-40.032-14.164c-13.188-4.659-27.05-8.513-35.262-20.73-7.014-10.44-10.943-22.62-18.033-33.079-6.313-9.506-14.143-17.913-23.177-24.884-19.23-14.537-44.521-20.187-67.343-11.225-1.89.692-1.123 3.76.86 3.068z" opacity=".5" style="mix-blend-mode:multiply"/>
                    <path fill="#65A4C5" fill-rule="nonzero" d="M477.708 219.857c14.606 5.497 26.7 16.143 34.008 29.936 3.617 6.692 5.922 14.014 6.79 21.572.843 7.484-.336 15.061.225 22.582 2.114 28.364 33.092 29.225 54.904 32.592 28.995 4.453 58.907 10.628 84.048 26.512 25.142 15.885 39.284 42.359 60.01 63.145 20.035 20.113 45.383 27.522 72.956 31.02 30.94 3.911 60.777 5.427 87.733 22.864 13.488 8.719 25.815 19.084 39.64 27.279 12.388 7.278 25.568 13.116 39.283 17.4 28.64 9.036 59.094 11.637 88.987 9.523 72.955-5.164 143.666-37.775 206.67-73.267 2.15-1.198.261-4.172-1.871-3.237-61.732 27.129-121.593 59.31-189.684 67.504-30.436 3.742-61.844 2.676-91.662-4.92-15.045-3.785-29.556-9.442-43.193-16.839-13.245-7.222-25.03-16.558-37.413-25.127-11.796-8.571-24.923-15.139-38.854-19.44-13.431-3.872-27.386-5.481-41.154-6.94-29.78-3.162-60.16-5.707-83.525-26.606-20.446-18.298-33.877-43.163-55.801-59.983s-49.497-25.07-76.547-30.085c-15.395-2.863-31.333-3.742-46.542-7.484-7.931-1.87-16.274-5.22-20.708-12.498-5.331-8.775-3.05-19.664-3.405-29.355-1.29-26.717-18.865-49.893-44.24-58.337-1.422-.393-1.946 1.703-.655 2.19z" opacity=".3" style="mix-blend-mode:multiply"/>
                    <path fill="#498A39" fill-rule="nonzero" d="M523.071 355.034c-9.952-2.114-20.371-3.947-28.602-9.953-8.23-6.006-13.32-17.737-8.38-26.643 2.487-4.49 7.314-8.962 7.482-13.49v-16.052l-73.498-20.974c.2-3.03 1.382-5.914 3.367-8.213 2.133-2.451 4.434-4.827 6.548-7.147 5.312-5.8 10.082-13.958 9.353-21.255v-16.052l-9.353 4.172c-1.616-.694-3.313-1.178-5.051-1.44-155.264 53.21-267.503 129.638-309.406 217.405h564.712c-44.454-40.085-98.651-67.795-157.172-80.358zM947.56 139.125c-123.258 0-233.196 6.286-338.907 27.017l-42.707-3.443v9.804c0 3.69 2.484 6.92 6.043 7.895 34.849 9.671 68.568 23.03 100.585 39.852 37.413 19.664 72.525 44.061 112.033 59.085 58.458 22.19 122.602 22.452 184.184 33.34 65.21 11.488 132.03 35.063 196.1 22.957 3.28-.61 5.94-3.01 6.884-6.211l.356.093v-2.151c.037-.399.037-.8 0-1.198v-16.053l-16.462-3.03-11.467-11.226c-2.53-2.441-3.679-5.982-3.063-9.443.615-3.462 2.914-6.39 6.13-7.808 41.7-17.932 89.016-17.504 130.385 1.18 15.134 6.996 29.407 16.464 45.737 19.925 18.164 3.854 40.593-2.283 45.831-21.423.973-3.805 3.882-6.813 7.651-7.914 10.962-2.919 12.272 14.968 21.7 19.047 6.08 2.581 12.701-1.628 18.145-5.351 19.81-13.546 45.719-23.032 67.512-13.097s28.359 46.924 6.566 56.952c-21.326 9.785-40.032-12.086-53.09-12.46-20.576-.58-33.577 26.286-13.786 37.419 13.75 7.727-24.318 17.474-39.994 19.533-41.323 5.388-79.653 29.112-103.971 62.845h499.463c-80.868-169.079-422.58-296.136-831.859-296.136z"/>
                    <path fill="#B7B7B7" fill-rule="nonzero" d="M1515.769 332.807l4.677-73.435-59.861-18.242c8.96 6.193 13.562 17.924 15.9 27.279 2.661.66 5.254 1.568 7.745 2.713 15.807 7.259 23.589 28.644 18.37 43.687l13.169 17.998zM1377.809 237.238l3.105 33.116c7.482 1.871 9.54 15.68 17.659 19.14v-16.09c0-27.97-20.764-36.166-20.764-36.166zM1147.27 278.68c12.047-5.171 24.69-8.829 37.637-10.889-4.8-10.89-7.88-22.459-9.129-34.295h-83.562l42.408 65.484 10.738-1.87-1.16-1.105c-2.564-2.439-3.735-6.001-3.118-9.486.617-3.485 2.94-6.429 6.186-7.839zM932.594 307.269l3.18-31.377-154.703-48.008 11.449 54.257c44.802 15.455 92.69 19.084 140.074 25.128z" opacity=".4"/>
                    <path fill="#6AAF47" fill-rule="nonzero" d="M694.086 432.567c-46.713-47.131-106.137-79.637-171.015-93.548-9.952-2.114-20.371-3.967-28.602-9.972-8.23-6.006-13.32-17.718-8.38-26.624 3.273-5.894 10.587-11.769 6.21-17.774-1.219-1.606-2.958-2.737-4.92-3.2l-56.643-14.8c-4.738-1.235-8.509-4.82-9.983-9.49-1.474-4.67-.445-9.77 2.725-13.503 2.132-2.47 4.433-4.827 6.547-7.147 7.838-8.55 14.479-22.227 4.172-30.647-2.644-2.115-5.812-3.473-9.167-3.929-164.71 56.503-280.84 138.975-316.214 233.46H696.78c-.88-.974-1.759-1.928-2.694-2.826z"/>
                    <path fill="#B7B7B7" fill-rule="nonzero" d="M696.78 435.392c-.88-.973-1.87-1.87-2.694-2.825-46.713-47.131-106.137-79.637-171.015-93.548-9.952-2.114-20.371-3.967-28.602-9.972-8.23-6.006-13.32-17.718-8.38-26.624-37.993 52.686 70.504 62.658-52.959 75.138-70.635 7.128-53.93-29.318-137.492-3.125-56.12 17.587-15.901-34.295 17.77-72.967 23.272-26.718 10.102-34.595-6.472-36.26-15.774-1.421-31.588 2.272-45.101 10.534-77.295 46.25-130.946 100.62-153.02 159.65H696.78z" opacity=".4" style="mix-blend-mode:multiply"/>
                    <path fill="#65A4C5" fill-rule="nonzero" d="M112.969 425.214c17.584 10.796 39.021 14.5 63.882 1.61 75.762-39.291 28.06-72.968 48.637-87.936 20.577-14.968-1.87-23.387 36.347-63.145-72.825 43.593-124.642 94.371-148.866 149.471z" opacity=".5" style="mix-blend-mode:multiply"/>
                    <path fill="#6AAF47" fill-rule="nonzero" d="M1484.23 255.069c-21.793-10.01-47.702-.524-67.512 13.096-5.444 3.742-12.066 7.933-18.145 5.351-9.353-4.022-10.738-21.965-21.7-19.046-3.77 1.1-6.678 4.11-7.65 7.914-5.239 19.14-27.668 25.277-45.832 21.423-16.33-3.462-30.603-12.929-45.737-19.926-41.369-18.683-88.685-19.11-130.384-1.179-3.217 1.419-5.516 4.346-6.131 7.808-.616 3.461.533 7.002 3.063 9.442l25.235 24.323c2.422 2.327 3.347 5.809 2.4 9.031-.949 3.222-3.612 5.648-6.908 6.292-64.07 12.124-130.946-11.45-196.1-22.938-61.582-10.87-125.727-11.226-184.185-33.36-39.508-15.042-74.657-39.44-112.07-59.122-33.872-17.793-69.64-31.713-106.628-41.498 77.668-16.899 156.43-28.296 235.702-34.107 47.421-3.611 96.19-5.502 145.911-5.502 69.995-.066 139.94 3.744 209.513 11.414 324.24 36.016 574.29 154.074 629.212 300.907h-516.412c22.803-42.153 66.446-72.687 114.11-78.898 15.638-2.058 35.392-4.435 39.994-19.533 1.066-3.536 1.048-7.372 2.301-10.87 7.838-22.134 43.25-4.285 64.575-14.07 21.737-10.029 15.19-46.943-6.622-56.952z"/>
                    <path fill="#FFF" fill-rule="nonzero" d="M672.574 180.791c-1.471-.058-2.786.913-3.163 2.336-.377 1.423.284 2.917 1.591 3.595 41.472 21.76 80.139 56.747 120.676 62.977 42.07 6.474 26.189 1.87-4.995-21.198-31.184-23.07 14.348-21.834-31.184-36.802-31.8-10.459-63.097-9.972-82.925-10.908zM1107.5 306.146c-54.025-5.09-123.463-26.194-166.488-27.129-43.025-.936 3.741-20.58 78.567-12.161 74.826 8.42 123.893 42.676 87.92 39.29zM1155.201 242.533c118.319-15.435 148.717 28.065 177.712 21.516 28.995-6.548-32.736-43.032-133.752-39.29-101.015 3.742-69.026 21.048-43.96 17.774z" opacity=".3"/>
                    <path fill="#B7B7B7" fill-rule="nonzero" d="M1596.675 255.35c44.895 91.022-2.432 84.791-77.258 94.764-69.214 9.242-165.253 28.064-204.855 85.278h471.778c-25.497-67.953-92.728-129.714-189.665-180.043z" opacity=".4" style="mix-blend-mode:multiply"/>
                    <path fill="#65A4C5" fill-rule="nonzero" d="M1428.316 435.392h357.968c-21.756-58.112-74.097-111.696-149.465-157.479-1.964.112-3.03.206-3.03.206s30.229 30.833 3.105 79.479c-27.125 48.645-116.916 14.967-208.578 77.794z" opacity=".5" style="mix-blend-mode:multiply"/>
                    <path fill="#B6C176" fill-rule="nonzero" d="M1055.327 177.05c10.14 4.303 33.859 12.366 14.386 15.828-19.474 3.461-129.786 2.825-145.911-1.871s16.424-9.991-25.796-12.798c-22.841-1.515-31.053-6.38-26.676-10.496 36.01-2.75 73.068-4.172 110.874-4.172 54.922-.094 62.984 9.224 73.123 13.508z" opacity=".7" style="mix-blend-mode:multiply"/>
                    <path fill="#A7DE97" fill-rule="nonzero" d="M659.124 156.6c.3.426.55.884.748 1.366l-.187-.45c.243.601.413 1.23.505 1.871v-.542c-.018.218-.018.437 0 .655.16.502.49.933.935 1.216l.487.206c.27.065.552.065.823 0 .437-.054.845-.252 1.16-.562.377-.385.591-.9.598-1.44-.032-.486-.152-.961-.355-1.403-.16-.43-.348-.849-.562-1.254-.381-.67-.833-1.297-1.346-1.871-.343-.33-.797-.517-1.273-.524-.394.013-.773.151-1.085.393-.317.226-.542.558-.636.936-.133.459-.073.953.169 1.365l.019.038zM665.802 153.775c-.137.392-.219.801-.243 1.216-.038.292-.038.587 0 .88v.58c.032.192.102.376.205.542.064.125.14.244.225.355.133.212.283.412.449.599.245.218.541.372.86.449.298.08.615.038.882-.117.267-.154.461-.408.54-.706v-.187c.065-.303.065-.615 0-.917v.393c-.019-.206-.019-.412 0-.618-.016-.34-.06-.677-.131-1.01v.43c-.056-.34-.056-.688 0-1.029v.43c.022-.15.053-.3.094-.448.097-.413.037-.846-.169-1.217-.211-.35-.544-.61-.935-.73-.818-.19-1.643.295-1.87 1.105h.093zM899.334 137.478v4.659c.01.84.476 1.606 1.216 2.002.61.387 1.39.387 2.001 0 .739-.4 1.21-1.162 1.235-2.002v-4.659c-.009-.548-.23-1.07-.617-1.459-.386-.39-.91-.612-1.46-.617-1.141.02-2.065.935-2.095 2.076h-.28zM904.721 135.982c-.356 1.062-.594 2.16-.71 3.274l-.094 1.44c-.065.416-.065.839 0 1.254.12.402.317.777.58 1.104.387.67 1.096 1.09 1.87 1.104.394-.001.78-.105 1.123-.3.33-.198.606-.474.804-.804.27-.323.467-.7.58-1.104.047-.416.047-.837 0-1.253l-.094-1.441c-.116-1.114-.354-2.212-.71-3.274-.236-.778-.946-1.315-1.759-1.329-.812.014-1.523.551-1.758 1.329h.168zM1118.181 175.216l-.748.692-.169.168-.187.188-.374.486-.262.599v.374c-.218.787.003 1.63.58 2.207.578.578 1.421.8 2.208.58h.318c.106-.027.207-.071.299-.13.208-.05.397-.161.542-.318.128-.074.242-.169.337-.281l.168-.187.711-.73c.223-.222.396-.49.505-.786.152-.294.223-.623.206-.954.02-.325-.052-.648-.206-.935-.099-.3-.273-.571-.505-.786l-.505-.393c-.372-.224-.8-.34-1.234-.337l-.655.094c-.408.107-.778.328-1.066.636l.037-.187zM1124.972 179.744c.782-.243 1.315-.968 1.315-1.787 0-.82-.533-1.544-1.315-1.787-.783.243-1.316.967-1.316 1.787s.533 1.544 1.316 1.787zM1440.55 222.009c.868 0 1.572-.704 1.572-1.572 0-.868-.704-1.572-1.572-1.572-.868 0-1.571.704-1.571 1.572 0 .868.703 1.572 1.571 1.572zM1443.955 225.489l1.197-.73.599-.337c.14-.08.27-.175.392-.28.11-.123.21-.255.3-.393l.168-.225c.176-.333.176-.733 0-1.066-.126-.354-.421-.62-.786-.711h-.28c-.168-.018-.337-.018-.505 0h-.487l-.673.187-1.366.337c-.435.131-.807.417-1.047.804-.153.269-.236.57-.243.88.005.238.056.473.15.692.081.212.21.404.373.561.152.167.346.29.562.356.205.114.439.166.673.15.31.006.616-.079.88-.244l.093.019zM1249.164 209.791l1.066-3.386c.169-.543.3-1.104.43-1.647.131-.542.169-.598.244-.898.154-.634.06-1.303-.262-1.87-.255-.424-.689-.706-1.179-.768-.494-.064-.99.101-1.347.45-.396.325-.662.784-.748 1.29l-.15.917c-.112.674-.224 1.347-.318 2.02l-.392 3.48c.012.673.512 1.237 1.178 1.33.663.073 1.284-.336 1.478-.974v.056zM1257.582 212.167l1.422-2.02c.246-.325.465-.669.654-1.03.186-.31.33-.643.43-.99.113-.493.113-1.005 0-1.498-.13-.479-.447-.886-.878-1.132-.432-.245-.944-.31-1.422-.177-.464.148-.896.382-1.272.692-.25.278-.464.586-.636.917-.275.493-.513 1.006-.711 1.534l-.936 2.264c-.134.486-.066 1.005.188 1.44.215.34.528.608.897.768.384.166.812.199 1.216.093.455-.153.844-.457 1.104-.86h-.056zM931.079 246.07l.28.336-.355-.468c.444.58.82 1.207 1.122 1.871l-.243-.58c.131.318.243.655.355.992.084.35.237.682.45.973l.299.449c.253.42.633.747 1.085.935.465.205.987.245 1.477.113.368-.122.706-.32.992-.58.422-.43.663-1.007.673-1.61v-.748c-.008-.247-.046-.492-.112-.73-.091-.285-.21-.56-.355-.823-.174-.375-.374-.738-.599-1.085-.522-.833-1.15-1.594-1.87-2.264-.431-.407-.998-.64-1.59-.655-.59.006-1.153.24-1.572.655-.418.417-.653.982-.655 1.572l.094.599c.093.37.287.706.561.972l-.037.075zM938.935 244.404c.327 1.276.746 2.527 1.254 3.742.558 1.439 1.26 2.818 2.095 4.116.406.657 1.038 1.143 1.777 1.366.782.215 1.618.107 2.32-.3.687-.414 1.18-1.089 1.365-1.87.223-.776.114-1.609-.3-2.302-1.33-1.898-2.482-3.914-3.441-6.024l.262.617c-.113-.262-.225-.542-.337-.842-.196-.642-.622-1.188-1.197-1.534-.598-.354-1.314-.449-1.983-.262-1.391.367-2.226 1.787-1.87 3.18l.055.113zM363.243 242.72l.355 1.871.169.917c.026.282.109.555.243.805.2.305.453.571.748.785.342.191.746.238 1.122.131.364-.102.677-.335.88-.655.187-.332.296-.703.318-1.085-.02-.293-.077-.582-.169-.86l-.205-.898-.43-1.871c-.18-.602-.697-1.042-1.32-1.123-.622-.08-1.234.212-1.562.748-.197.374-.25.807-.15 1.217v.018zM373.27 240.513c-.275 1.334-.382 2.698-.319 4.06.029.708.104 1.415.225 2.114.035.394.137.78.3 1.141.146.311.315.611.504.898.275.466.823.694 1.347.561.518-.152.88-.62.898-1.16v-.916c-.021-.394-.09-.784-.206-1.16 0-.3-.13-.618-.187-.917.01-.131.01-.262 0-.393 0-.168 0-.187 0 0v-.187c-.144-1.243-.144-2.499 0-3.742.009-.627-.453-1.16-1.074-1.241-.621-.082-1.205.315-1.358.923l-.13.019z"/>
                </g>
                <path fill="#6AAF47" fill-rule="nonzero" d="M381 643.477c5.191 5.82 13.885 7.22 20.718 3.34 12.64-6.438 7.051-21.206 7.051-21.206s-9.123-2.894-13.305 3.915c-4.181 6.808-14.464 13.95-14.464 13.95z" transform="translate(-97 -22)"/>
                <path fill="#498A39" fill-rule="nonzero" d="M430.269 620.367c-1.951-.661-3.992-1.022-6.052-1.07-2.1-.067-4.195.213-6.203.826-2.04.64-3.953 1.625-5.656 2.913-1.68 1.359-3.154 2.954-4.374 4.736-1.282 1.71-2.394 3.852-3.77 5.637-1.355 1.84-2.91 3.522-4.639 5.018-3.396 3.159-7.937 4.8-12.575 4.547 4.534-.054 8.85-1.947 11.953-5.243 1.58-1.563 2.99-3.289 4.204-5.149.623-.92 1.188-1.879 1.716-2.856.528-.977 1.094-1.88 1.697-2.97 1.2-2.04 2.693-3.894 4.43-5.505 1.813-1.601 3.894-2.873 6.147-3.759 2.277-.878 4.686-1.374 7.126-1.466 2.479-.117 4.96.156 7.353.809 1.005.285 1.587 1.328 1.301 2.33-.286 1.001-1.333 1.582-2.338 1.296h-.113l-.207-.094z" transform="translate(-97 -22)"/>
                <path fill="#6AAF47" fill-rule="nonzero" d="M411.498 526.908s-10.072-4.668-18.088 7.163c-8.016 11.832-15.41 14.346-15.41 14.346s6.771 5.811 22.2 0c15.428-5.81 11.298-21.509 11.298-21.509z" transform="translate(-97 -22)"/>
                <path fill="#498A39" fill-rule="nonzero" d="M428.83 507.575c-2.067 1.232-3.96 2.73-5.634 4.454-1.778 1.734-3.388 3.631-4.807 5.666-1.413 2.072-2.668 4.247-3.756 6.505-1.152 2.375-2.502 4.65-4.037 6.802-1.522 2.179-3.251 4.207-5.164 6.058-1.87 1.834-3.908 3.494-6.085 4.957-4.25 3.071-9.162 5.12-14.347 5.983 5.059-1.15 9.778-3.454 13.784-6.728 2.031-1.555 3.917-3.29 5.633-5.182 1.725-1.867 3.271-3.888 4.62-6.038 1.348-2.145 2.504-4.402 3.455-6.747 1.02-2.442 2.226-4.803 3.606-7.064 1.394-2.28 2.984-4.438 4.751-6.448 1.82-2.11 3.924-3.96 6.254-5.499.876-.555 2.04-.301 2.6.569.56.87.304 2.025-.572 2.581l-.3.13z" transform="translate(-97 -22)"/>
                <path fill="#6AAF47" fill-rule="nonzero" d="M499 605s1.013-16.416 8.517-21.925c7.503-5.51 18.421 2.098 30.483-1.387 0 0-1.163 15.891-19.528 15.797C500.107 597.392 499 605 499 605z" transform="translate(-97 -22)"/>
                <path fill="#498A39" fill-rule="nonzero" d="M552.812 564.66c-2.371 5.575-5.784 10.664-10.061 15.003-2.153 2.133-4.564 4-7.179 5.556-2.63 1.547-5.492 2.678-8.479 3.353-5.84 1.278-11.738 1.76-17.221 3.704-2.748.93-5.119 2.702-6.764 5.056-1.61 2.425-2.984 4.992-4.108 7.668 1.003-2.751 2.265-5.405 3.768-7.927 1.608-2.543 3.987-4.525 6.802-5.668 5.653-2.26 11.531-3.056 17.109-4.593 2.736-.764 5.331-1.952 7.687-3.519 2.348-1.593 4.493-3.459 6.387-5.556 3.715-4.231 6.62-9.088 8.574-14.336v-.13c.214-.64.766-1.114 1.44-1.239.674-.125 1.364.12 1.801.64.437.52.552 1.232.3 1.86.005.049-.016.098-.056.129z" transform="translate(-97 -22)"/>
                <g fill-rule="nonzero">
                    <path fill="#6AAF47" d="M0 39s2.268-16.551 10.264-21.437c7.996-4.886 18.336 3.484 30.736.89 0 0-2.363 15.926-20.793 14.43C1.777 31.387 0 39 0 39z" transform="translate(-97 -22) translate(576 183)"/>
                    <path fill="#498A39" d="M55.855 2.722c-2.76 5.366-6.494 10.178-11.011 14.193-2.266 1.97-4.76 3.663-7.428 5.046-2.699 1.342-5.594 2.253-8.578 2.698-5.831.85-11.68.905-17.214 2.402-2.76.745-5.217 2.336-7.019 4.547C2.845 33.926 1.303 36.4 0 39c1.179-2.657 2.602-5.2 4.252-7.596 1.763-2.416 4.245-4.22 7.094-5.156 5.57-1.848 11.568-2.199 17.157-3.326 2.737-.6 5.362-1.623 7.78-3.031 2.415-1.407 4.653-3.094 6.667-5.027 3.98-3.933 7.197-8.563 9.489-13.657v-.111c.42-.934 1.522-1.352 2.46-.934.938.419 1.358 1.515.938 2.45-.009.037-.002.077.018.11z" transform="translate(-97 -22) translate(576 183)"/>
                </g>
                <path fill="#6AAF47" fill-rule="nonzero" d="M565.053 456.501s1.355 6.034 9.255 1.846c7.9-4.189 10.779-5.111 15.049-3.783 4.27 1.329 23.288-4.133 22.121 8.783 0 0 5.982 13.044-5.775 11.53-11.756-1.512-19.45-2.637-26.58-5.663-7.128-3.026-14.84-3.469-14.07-12.713z" transform="translate(-97 -22)"/>
                <path fill="#498A39" fill-rule="nonzero" d="M572 462.334c5.016-.282 10.047-.074 15.022.62 1.24.187 2.498.412 3.756.694 1.258.282 2.44.582 3.624.845 2.408.451 4.855.659 7.304.62 4.897-.104 9.753-.907 14.422-2.385 4.61-1.322 8.948-3.46 12.806-6.31.81-.653 1.995-.527 2.648.282.653.809.527 1.994-.282 2.648h-.112c-4.38 2.875-9.248 4.925-14.365 6.047-4.97 1.248-10.092 1.773-15.21 1.558-2.536-.117-5.053-.494-7.512-1.126-1.239-.357-2.44-.714-3.605-1.09-1.164-.375-2.385-.638-3.605-.901-4.905-.973-9.89-1.476-14.891-1.502z" transform="translate(-97 -22)"/>
                <path fill="#6AAF47" fill-rule="nonzero" d="M675 466s1.441-18.637 13.456-25.428c12.015-6.79 24.16 1.587 27.361 5.37 0 0 2.564 14.209-11.51 14.522-14.073.314-23.056.037-29.307 5.536z" transform="translate(-97 -22)"/>
                <path stroke="#498A39" stroke-linecap="round" stroke-linejoin="round" stroke-width="2" d="M718 445.996c24.624.339 29-20.996 29-20.996" transform="translate(-97 -22)"/>
                <path fill="#498A39" fill-rule="nonzero" d="M680 460c2.002-3.004 4.526-5.615 7.449-7.708 2.907-2.142 6.09-3.873 9.46-5.145 3.389-1.284 6.913-2.17 10.503-2.638 1.798-.232 3.606-.37 5.419-.415l5.307-.094c1.028 0 1.862.844 1.862 1.885 0 1.04-.834 1.884-1.862 1.884-.056.01-.112.01-.168 0l-5.27-.377c-1.713-.188-3.426 0-5.14 0-3.444.137-6.862.675-10.186 1.602-3.351.932-6.56 2.327-9.534 4.146-2.993 1.8-5.648 4.123-7.84 6.86z" transform="translate(-97 -22)"/>
                <path fill="#6AAF47" fill-rule="nonzero" d="M1081 457.591c.002 7.295 5.097 13.567 12.154 14.962 12.624 3.087 17.846-10.826 17.846-10.826s-4.47-7.623-11.497-5.28c-7.025 2.345-18.503 1.144-18.503 1.144z" transform="translate(-97 -22)"/>
                <path fill="#498A39" fill-rule="nonzero" d="M1128.488 470.949c-.938-1.583-2.113-3.02-3.485-4.266-1.402-1.266-3.002-2.304-4.74-3.075-1.78-.758-3.683-1.204-5.621-1.319-1.975-.081-3.951.123-5.865.605-1.874.402-3.972 1.19-6.052 1.519-2.07.42-4.18.623-6.295.604-4.262.128-8.392-1.453-11.43-4.375 3.158 2.63 7.283 3.881 11.41 3.46 2.031-.13 4.042-.474 5.997-1.025 2.004-.476 3.747-1.319 5.864-1.941 2.068-.683 4.227-1.066 6.408-1.135 2.233-.022 4.452.338 6.558 1.062 2.118.742 4.094 1.825 5.846 3.204 1.792 1.38 3.348 3.03 4.61 4.888.569.849.325 1.988-.544 2.544-.87.557-2.035.319-2.604-.53v-.11l-.057-.11z" transform="translate(-97 -22)"/>
                <path fill="#6AAF47" fill-rule="nonzero" d="M1173 395.765s-4.155-9.358-16.769-6.062c-12.614 3.296-19.231.493-19.231.493s1.203 8.145 15.34 13.525c14.137 5.38 20.66-7.956 20.66-7.956z" transform="translate(-97 -22)"/>
                <path fill="#498A39" fill-rule="nonzero" d="M1195.59 392.767c-2.154-.386-4.35-.49-6.531-.312-2.28.156-4.54.512-6.754 1.064-2.238.564-4.432 1.28-6.568 2.147-2.23.95-4.54 1.704-6.903 2.257-2.349.563-4.748.9-7.163 1.01-2.402.14-4.813.06-7.2-.24-4.781-.419-9.395-1.94-13.471-4.44 4.176 2.2 8.813 3.411 13.545 3.542 2.334.132 4.676.052 6.996-.239 2.31-.249 4.59-.716 6.81-1.394 2.219-.673 4.373-1.54 6.437-2.588 2.182-1.06 4.439-1.962 6.754-2.697 2.346-.751 4.756-1.292 7.2-1.614 2.537-.35 5.11-.35 7.648 0 1.027.147 1.74 1.087 1.59 2.1-.149 1.014-1.102 1.716-2.13 1.57h-.149l-.112-.166z" transform="translate(-97 -22)"/>
                <path fill="#6AAF47" fill-rule="nonzero" d="M1186 503.113s10.67-10.897 19.157-10.068c8.487.83 11.434 12.67 21.843 17.59 0 0-10.371 10.388-22.98-.886-12.61-11.274-18.02-6.636-18.02-6.636z" transform="translate(-97 -22)"/>
                <path fill="#498A39" fill-rule="nonzero" d="M1247.741 507.362c-5.068 2.531-10.55 4.077-16.169 4.558-2.805.19-5.621.042-8.393-.44-2.767-.514-5.436-1.477-7.907-2.854-4.804-2.68-9.14-5.994-14.075-8.005-2.452-1.015-5.154-1.21-7.72-.555-2.574.75-5.077 1.737-7.477 2.95 2.383-1.373 4.887-2.514 7.477-3.41 2.666-.84 5.522-.806 8.169.096 5.215 1.8 9.813 4.903 14.598 7.22 2.364 1.129 4.888 1.866 7.477 2.183 2.576.325 5.182.325 7.758 0 5.124-.745 10.072-2.446 14.599-5.017h.112c.58-.342 1.296-.341 1.875.003.58.345.936.98.935 1.667-.001.686-.36 1.32-.941 1.662l-.318-.058z" transform="translate(-97 -22)"/>
                <path fill="#6AAF47" fill-rule="nonzero" d="M1332 363.782s11.336-10.112 19.658-8.635c8.322 1.477 10.393 13.54 20.342 19.258 0 0-11.096 9.62-22.654-2.613-11.558-12.233-17.346-8.01-17.346-8.01z" transform="translate(-97 -22)"/>
                <path fill="#498A39" fill-rule="nonzero" d="M1393.777 372.8c-5.278 2.061-10.9 3.146-16.58 3.2-2.826-.02-5.64-.367-8.383-1.036-2.745-.701-5.358-1.825-7.744-3.33-4.634-2.942-8.76-6.457-13.565-8.751-2.39-1.162-5.097-1.545-7.724-1.092-2.66.521-5.265 1.283-7.781 2.276 2.469-1.148 5.043-2.064 7.687-2.738 2.74-.612 5.605-.366 8.195.703 5.125 2.109 9.514 5.44 14.15 8.01 2.277 1.262 4.745 2.161 7.309 2.665 2.564.468 5.176.642 7.781.518 5.21-.326 10.318-1.58 15.072-3.7h.113c.613-.281 1.331-.22 1.885.16.554.381.86 1.023.8 1.684-.058.662-.471 1.242-1.084 1.523l-.131-.093z" transform="translate(-97 -22)"/>
                <path fill="#6AAF47" fill-rule="nonzero" d="M1321.92 440s-2.667 4.986 5.166 6.853c7.834 1.868 10.463 2.913 12.556 6.387 2.093 3.473 18.518 11.11 9.852 19.439 0 0-3.852 12.735-10.963 4.612-7.111-8.123-11.685-13.557-14.704-19.98-3.018-6.424-8.074-11.26-1.907-17.311z" transform="translate(-97 -22)"/>
                <path fill="#498A39" fill-rule="nonzero" d="M1323 448c3.662 2.842 7.041 6.03 10.09 9.518.753.883 1.487 1.878 2.183 2.722.697.845 1.356 1.878 2.033 2.798 1.393 1.77 2.97 3.387 4.706 4.824 3.472 2.881 7.338 5.252 11.483 7.04 3.994 1.863 8.292 2.995 12.687 3.342 1.04.036 1.853.906 1.817 1.943-.037 1.037-.909 1.848-1.948 1.812h-.132c-4.815-.674-9.466-2.22-13.723-4.562-4.211-2.167-8.09-4.923-11.52-8.185-1.71-1.632-3.243-3.438-4.574-5.388-.66-1.014-1.28-1.99-1.883-2.948-.602-.957-1.28-1.877-1.882-2.816-2.782-3.656-5.909-7.038-9.337-10.1z" transform="translate(-97 -22)"/>
                <path fill="#6AAF47" fill-rule="nonzero" d="M1342 522.094s12.571-12.268 25.18-9.754c12.608 2.513 15.93 15.794 15.817 20.408 0 0-7.003 11.574-16.988 3.227-9.985-8.348-16.308-13.881-24.009-13.881z" transform="translate(-97 -22)"/>
                <path fill="#498A39" fill-rule="nonzero" d="M1349 520.735c6.115-1.33 12.487-.847 18.33 1.39 5.851 2.283 11.196 5.69 15.732 10.028 4.235 4.193 9.713 6.91 15.619 7.748 5.774.555 11.551-1.029 16.232-4.449l.13-.092c.538-.391 1.243-.466 1.85-.197.609.27 1.026.842 1.097 1.502.07.66-.218 1.307-.755 1.697-1.422.966-2.94 1.78-4.532 2.428-.743.334-1.523.594-2.303.872s-1.56.463-2.359.648c-3.199.771-6.52.897-9.769.371-6.372-1.228-12.177-4.479-16.548-9.268-4.216-4.43-9.264-7.988-14.857-10.472-5.612-2.46-11.823-3.228-17.867-2.206z" transform="translate(-97 -22)"/>
                <g fill-rule="nonzero">
                    <path fill="#457EA3" d="M13.267 26s-1.449 6.306-9.026 13.62C-3.336 46.932.527 55.271 5.838 61.26c5.312 5.99.149-5.41.149-5.41s4.81 3.377 6.704 2.93c1.894-.448-3.064-8.49-3.064-8.49s5.571 4.254 6.853 3.732c1.281-.522-2.34-8.638-2.34-8.638s4.81 3.955 5.98 3.731c1.17-.223-1.746-8.34-1.746-8.34s5.962 4.236 6.556 3.732c.594-.503-2.786-11.996-2.786-11.996L13.267 26z" transform="translate(-97 -22) translate(762 360)"/>
                    <path fill="#65A4C5" d="M22.275 19.24C19.206 19.017 16.998 14 10.092 14s-6.906 7.432.73 12.672c4.816 6.025 11.332 10.489 18.715 12.82 7.578 1.91 15.47 2.259 23.188 1.023 0 0 19.82 8.027 25.696 8.454 5.877.427 2.34-3.716 2.34-3.716s3.088-2.769-.15-4.515c0 0 3.743-3.493.88-5.574 0 0 2.358-2.044 1.179-3.717-1.18-1.672-18.49 1.022-28.335.428-9.045-7.517-20.285-11.946-32.06-12.635z" transform="translate(-97 -22) translate(762 360)"/>
                    <path fill="#457EA3" d="M78.11 48.987c.33.017.663.017.995 0 2.306-1.418-.572-4.917-.572-4.917 2.195-2.413 0-3.5 0-3.5 2.767-3.13 0-4.678 0-4.678s2.066-2.652 0-2.873c-1.567-.184-14.755 1.031-21.1 1.639-1.689.128-3.073 1.39-3.356 3.057-.37 1.824.625 3.65 2.36 4.329 5.884 2.302 17.43 6.63 21.672 6.943zM39.913 35.865C30.065 35.411 13.15 22.922 12 28.375c4.635 5.128 10.622 8.902 17.304 10.908 4.67 1.218 9.488 1.793 14.319 1.709C44.967 40.88 46 39.778 46 38.456s-1.033-2.424-2.377-2.536c-1.076.055-2.319.018-3.71-.055z" opacity=".3" style="mix-blend-mode:multiply" transform="translate(-97 -22) translate(762 360)"/>
                    <path fill="#FFAB2F" d="M7.95 16.94c.22-.9-.305-1.816-1.222-2.124C4.591 14.18.773 13 .086 13c-.687 0 2.901 2.96 4.963 4.63.458.331 1.05.448 1.61.318.559-.13 1.026-.494 1.272-.99l.019-.018z" transform="translate(-97 -22) translate(762 360)"/>
                    <path fill="#F88F00" d="M7.964 17.756c.048-.207.048-.423 0-.63C5.886 15.773 3.473 15.036 1 15c1.112 1.083 2.77 2.52 3.902 3.544.48.404 1.124.55 1.73.395.607-.156 1.102-.596 1.332-1.183z" opacity=".5" style="mix-blend-mode:multiply" transform="translate(-97 -22) translate(762 360)"/>
                    <path fill="#457EA3" d="M22.726 21.396c-.484-.306-.761-.848-.722-1.414.039-.566.388-1.066.91-1.304 6.27-2.793 12.057-6.536 17.154-11.092C49.03-.678 65.941-.234 69.484.19 73.028.616 57.13 5.552 57.71 5.423c.582-.13 7.35-.87 8.68-.148 1.332.72-15.729 6.526-15.729 6.526s11.249-.296 12.336 1.017c1.088 1.312-14.848 4.64-14.848 4.64s8.68 1.146 9.861 2.163c1.182 1.017-13.536 1.849-13.536 1.849s7.65 1.738 8.1 2.755c.45 1.016-12.206.869-12.206.869s2.944 2.754 2.944 3.697c0 .314-1.106.24-2.644 0-5.64-.954-11.02-3.044-15.804-6.138l-2.138-1.257z" transform="translate(-97 -22) translate(762 360)"/>
                </g>
                <path fill="url(#nr889iei1c)" fill-rule="nonzero" d="M1191 653c-132.78-157.612-241.923-51.669-282 0h282z" transform="translate(-97 -22)"/>
                <path fill="#498A39" fill-rule="nonzero" d="M1150 646.8c-6.601-2.581-14.061-1.95-20.113 1.701 4.174-5.546 8.121-13.497 6.251-22.501-11.538 4.474-15.108 12.073-15.636 18.49-2.806-6.057-7.884-10.824-14.183-13.313-5.288 16.825 6.647 25.404 12.464 28.473l-.151.26 1.19.258c.614.31 1.244.588 1.888.832 0 0 0-.166.132-.5 11.381 1.601 22.589-3.851 28.158-13.7zM870.153 562s35.604 15.03 37.834 16.608c.204 1.278-2.063 5.392-2.063 5.392L858 582.478 870.153 562z" transform="translate(-97 -22)"/>
                <path fill="#498A39" fill-rule="nonzero" d="M853.748 591L815 563.832 848.738 521 883 545.008z" transform="translate(-97 -22)"/>
                <path fill="#498A39" fill-rule="nonzero" d="M879.798 543l-3.787-2.582c3.875-5.706 2.39-13.378-3.351-17.32-5.741-3.94-13.66-2.721-17.873 2.752L851 523.286c5.59-7.745 16.567-9.611 24.519-4.167 7.952 5.444 9.868 16.136 4.279 23.881z" transform="translate(-97 -22)"/>
                <path fill="#36231D" fill-rule="nonzero" d="M831 594.759c-.264-1.373-.47-2.615-.678-3.518-1.642-6.258-2.9-12.61-3.767-19.02-3.542-2.898-9.833-12.23-13.186-15.221-3.089 7.375-3.861 23.103-7.629 38.361-7.722 18.475-14.824 32.83-19.74 42.293l7.308 4.346c14.96-13.682 27.678-29.623 37.692-47.241zM789.155 643.69c-2.11.65-4.393.401-6.314-.69-1.857 3.415-2.841 5.3-2.841 5.3l10.9 6.42 9.1.28-1.653-3.565-3.714-.933-5.478-6.811z" transform="translate(-97 -22)"/>
                <path fill="#FDB07F" fill-rule="nonzero" d="M789.267 643.62l1.733-3.3-5.161-3.32c-.774 1.64-2.212 4.62-2.839 5.88 1.907 1.169 4.173 1.436 6.267.74z" transform="translate(-97 -22)"/>
                <path fill="#6E4C37" fill-rule="nonzero" d="M840 547.21c-4.2-.803-30.34 1.044-37-.113 3.793 18.921 5.032 27.99 10.157 39.465-1.462 12.278-.241 32.58 3.311 55.438l8.473-.168c3.552-13.827 12.802-53.236 15.059-94.623z" transform="translate(-97 -22)"/>
                <path fill="#FDB07F" fill-rule="nonzero" d="M823.66 647.236c0-.113.536-1.877 1.34-5.236l-6.107.15L818 649c2.01.002 3.977-.611 5.66-1.764z" transform="translate(-97 -22)"/>
                <path fill="#36231D" fill-rule="nonzero" d="M840 654l-1.127-3.227-15.26-3.773c-1.742 1.083-3.776 1.659-5.856 1.657l-.757 5.29 23 .053z" transform="translate(-97 -22)"/>
                <path fill="#FDB07F" fill-rule="nonzero" d="M837 465.787h-1.645l-.83 4.653-4.14-2.465.67 6.025-6.055-.816v-6.767l3.434-3.82s-1.175-1.371-.506-2.632c.348-.56.951-.899 1.6-.899.647 0 1.25.34 1.599.9 1.934 0 3.808-.696 5.295-1.966l.578 7.787z" transform="translate(-97 -22)"/>
                <path fill="#396A83" fill-rule="nonzero" d="M840 452c-.468 2.412-1.658 4.605-3.397 6.258-1.51 1.319-3.414 2.041-5.379 2.041-.354-.582-.967-.934-1.625-.934s-1.27.352-1.625.934c-.679 1.31.514 2.734.514 2.734L825 467v-13.479L840 452z" transform="translate(-97 -22)"/>
                <path fill="#EE4D1A" fill-rule="nonzero" d="M841.622 548.147c-.797 0-5.17.244-10.879.543l-1.705.094c-9.933.505-22.98 1.16-28.65 1.216-5.097-38.365 4.91-58.952 12.768-68.777.482-.617.964-1.198 1.427-1.722 1.932-2.296 4.186-4.294 6.69-5.932V467l15.697 8.178-3.966 3.743c4.355 4.36 10.6 48.472 8.618 69.226z" transform="translate(-97 -22)"/>
                <path fill="#EE4D1A" fill-rule="nonzero" d="M827.19 487.918c-2.378-5.58-16.188-7.744-16.188 11.294-.035 3.96.34 7.911 1.116 11.788 5.857-4.857 12.63-8.388 19.882-10.364-1.664-4.688-3.457-9.548-4.81-12.718z" transform="translate(-97 -22)"/>
                <path fill="#FDB07F" fill-rule="nonzero" d="M837.064 514.367s-2.27-6.499-4.838-13.367c-7.377 1.922-14.267 5.356-20.226 10.08 8.485 38.348 62 9.527 62 9.527l-36.936-6.24z" transform="translate(-97 -22)"/>
                <path fill="#FDB07F" fill-rule="nonzero" d="M874.907 523.646c-1.81.086-3.623-.105-5.37-.565-.648.212-3.889.672-4.537.919l2.574-4.26h.389l6.87-2.74 5.167 2.793-5.093 3.853z" transform="translate(-97 -22)"/>
                <path fill="#498A39" fill-rule="nonzero" d="M833 605.58c-12.42.977-23.644 7.763-30.263 18.295 2.157-12.085 2.044-27.911-8.043-40.875-14.569 16.107-14.044 30.979-9.863 41.848-7.181-6.155-17.662-10.85-32.831-10.327 5.025 31.054 30.6 35.544 42.169 35.955V651s.769-.15 2.081-.486c2.288 0 3.75-.15 3.75-.15s0-.337-.206-.917c10.068-3.554 30.881-14.385 33.206-43.868z" transform="translate(-97 -22)"/>
                <path fill="#6AAF47" fill-rule="nonzero" d="M728 677s166.148-166.5 432 0H728z" transform="translate(-97 -22)"/>
                <g fill-rule="nonzero">
                    <path fill="#FDB07F" d="M47.504 145.97c0-.14-.598-2.229-1.504-5.97l7.71 2.706L54 148c-2.308-.024-4.562-.729-6.496-2.03z" transform="translate(-97 -22) translate(1109 544)"/>
                    <path fill="#36231D" d="M30 154l1.235-3.756L47.833 146c1.898 1.225 4.106 1.877 6.362 1.878l.805 6.047L30 154zM133.871 142.994c1.912-1.647 3.447-3.692 4.502-5.994l5.627.927L140.005 154H128l1.2-3.31 4.784-1.72-.113-5.976z" transform="translate(-97 -22) translate(1109 544)"/>
                    <path fill="#FDB07F" d="M133.426 143L130 141.727l2.16-5.727c1.972.214 3.924.57 5.84 1.067-1.066 2.27-2.626 4.293-4.574 5.933z" transform="translate(-97 -22) translate(1109 544)"/>
                    <path fill="#36231D" d="M82.584 76.75c-5.792 3.654-12.055 6.504-18.616 8.47-8.194 2.189-37.288-2.056-32.423 20.027v.15C34.987 123.404 45.577 143 45.577 143l8.307-.393s1.871-22.326 2.189-33.657c1.871 0 2.994-.15 2.994-.15 27.353 4.488 44.903-2.263 56.933-11.481.037-.056-5.295-29.712-33.416-20.569z" transform="translate(-97 -22) translate(1109 544)"/>
                    <path fill="#6E4C37" d="M96.933 129.592c8.38-9.108 15.01-15.355 18.456-31.945 0 0-37.004-30.112-39.928-.879 0 0-11.173 57.213 6.63 57.232 12.626 0 40.486-11.353 47.842-12.157L132 136.12c-12.18-3.76-25.532-4.882-35.067-6.528z" transform="translate(-97 -22) translate(1109 544)"/>
                    <path fill="#FDB07F" d="M50.675 16.861l1.82-.525 2.293 4.853 3.786-4.01L59.63 24 66 21.227l-2.02-7.495-4.878-3.11c.491-.982.4-2.166-.237-3.055-.547-.507-1.309-.69-2.018-.484-.709.205-1.266.77-1.477 1.496-2.114.598-4.364.426-6.37-.487l1.675 8.77z" transform="translate(-97 -22) translate(1109 544)"/>
                    <path fill="#EE4D1A" d="M50.542 36.707c.965-6.79 15.546-13.484 21.192 7.17C72.958 48.152 73.717 52.553 74 57c-7.903-3.419-16.418-5.118-25-4.988.446-5.614.984-11.455 1.542-15.305z" transform="translate(-97 -22) translate(1109 544)"/>
                    <path fill="#FDB07F" d="M47.784 68.393s.482-7.938 1.15-16.386c8.574-.13 17.08 1.567 24.976 4.982C76.415 102.339 26 87.77 26 87.77l21.784-19.378z" transform="translate(-97 -22) translate(1109 544)"/>
                    <path fill="#396A83" d="M43 2.9c1.218 2.394 3.186 4.337 5.61 5.54 2.06.9 4.372 1.07 6.545.48.216-.715.789-1.272 1.517-1.474.728-.203 1.51-.022 2.073.477.654.877.749 2.043.243 3.011L64 14 60.054 0 43 2.9z" transform="translate(-97 -22) translate(1109 544)"/>
                    <path fill="#EE4D1A" d="M115.777 97.976s-40.442 1.127-52.059-12.09c-4.957-23.205-7.725-50.86-5.181-55.252L53 27.724 67.722 14l1.982 7.134c3.238 1.009 6.309 2.496 9.11 4.412.692.45 1.384.901 2.095 1.427 11.635 8.298 37.767 25.645 34.868 71.003z" transform="translate(-97 -22) translate(1109 544)"/>
                    <path fill="#EE4D1A" d="M67.472 37.7c.968-6.784 15.592-13.475 21.255 7.184C89.937 49.162 90.7 53.56 91 58c-7.901-3.416-16.416-5.114-25-4.985.373-5.629.931-11.448 1.472-15.314z" transform="translate(-97 -22) translate(1109 544)"/>
                    <path fill="#FDB07F" d="M64.524 69.24s.487-7.872 1.163-16.232c8.667-.138 17.267 1.545 25.244 4.94C93.445 102.907 26 87.426 26 87.426L64.524 69.24z" transform="translate(-97 -22) translate(1109 544)"/>
                    <path fill="#498A39" d="M18.867 59.657c6.176 4.702 5.053 16.58 5.053 16.58s-11.23 4.252-17.312-.45c-6.083-4.702-8.441-12.14-5.054-16.58 3.388-4.44 11.136-4.252 17.313.45z" transform="translate(-97 -22) translate(1109 544)"/>
                    <path fill="#498A39" d="M27.13 51.661c-6.172 4.698-5.05 16.582-5.05 16.582s11.127 4.249 17.299-.468c6.171-4.716 8.434-12.109 5.05-16.563-3.386-4.455-11.128-4.249-17.3.449z" transform="translate(-97 -22) translate(1109 544)"/>
                    <path fill="#385C2F" d="M22 45H24V86H22z" transform="translate(-97 -22) translate(1109 544)"/>
                    <path fill="#498A39" d="M32.992 37.29C32.77 45.014 22.592 51 22.592 51s-9.81-6.565-9.588-14.306c.221-7.74 4.877-13.858 10.4-13.69 5.524.167 9.81 6.565 9.588 14.287z" transform="translate(-97 -22) translate(1109 544)"/>
                    <path fill="#FDB07F" d="M25.878 92c2.043-.481 4-1.293 5.798-2.406.796 0 4.528-.43 5.324-.352l-4.225-4.284-.436.137L23.813 84 19 89.007 25.878 92z" transform="translate(-97 -22) translate(1109 544)"/>
                </g>
                <g fill-rule="nonzero">
                    <path fill="#374831" style="mix-blend-mode:multiply" d="M64 26H74V316H64z" transform="translate(-97 -22) translate(869 381)"/>
                    <path fill="#498A39" d="M23.937 163.495c33.79-29.965-2.881-39.329-10.29-62.702-7.41-23.372 36.11-34.384 32.162-51.034C40.196 25.956 38.026 3.69 73.444.168c33.21-3.278 19.365 42.625 19.365 42.625-3.05 13.11 24.922 20.263 25.801 49.105.88 28.354-38.823 20.6 9.486 76.785 22.677 26.406 1.965 73.62-61.294 77.197-41.256 2.397-100.455-31.201-42.865-82.385z" transform="translate(-97 -22) translate(869 381)"/>
                    <path fill="#B6C176" d="M52.854 211.53c1.03-30.18 21.922-54.059 25.463-83.51C83.563 84.34 56.414 40.53 70.822 1 38.315 5.394 40.395 27.01 45.884 50.122c3.954 16.623-39.646 27.636-32.207 50.954 7.438 23.317 44.142 32.61 10.305 62.603-56.902 50.487 0 83.733 41.22 82.275-7.626-9.76-12.816-21.13-12.348-34.425z" opacity=".7" style="mix-blend-mode:multiply" transform="translate(-97 -22) translate(869 381)"/>
                    <path fill="#FFC402" d="M45 202c0 6.627-5.373 12-12 12s-12-5.373-12-12 5.373-12 12-12c3.183 0 6.235 1.264 8.485 3.515C43.735 195.765 45 198.817 45 202zM64 114c0 6.627-5.373 12-12 12s-12-5.373-12-12 5.373-12 12-12 12 5.373 12 12zM103 74c0 6.627-5.373 12-12 12s-12-5.373-12-12 5.373-12 12-12 12 5.373 12 12z" transform="translate(-97 -22) translate(869 381)"/>
                    <path fill="#36231D" d="M116 255.759c.264-1.373.472-2.596.68-3.518 1.647-6.258 2.907-12.61 3.775-19.02 3.567-2.88 9.853-12.23 13.213-15.221 3.095 7.394 3.775 23.122 7.55 38.361 7.74 18.475 14.855 32.83 19.782 42.293L153.676 303c-14.957-13.69-27.67-29.63-37.676-47.241zM157.845 304.69c2.11.65 4.393.401 6.314-.69 1.857 3.397 2.841 5.3 2.841 5.3l-10.9 6.401-9.1.299 1.653-3.583 3.714-.915 5.478-6.811z" transform="translate(-97 -22) translate(869 381)"/>
                    <path fill="#FDB07F" d="M157.733 304.62L156 301.33l5.161-3.33c.774 1.635 2.212 4.606 2.839 5.883-1.907 1.166-4.173 1.432-6.267.737z" transform="translate(-97 -22) translate(869 381)"/>
                    <path fill="#6E4C37" d="M107 206.13c4.2-.807 30.358 2.444 37 1.297 0 0-3.996 23.997-10.156 39.744 1.461 12.346.24 32.79-3.312 55.829l-8.473-.17c-3.515-13.942-12.765-55.02-15.059-96.7z" transform="translate(-97 -22) translate(869 381)"/>
                    <path fill="#FDB07F" d="M123.34 308.25c0-.132-.536-1.976-1.34-5.25l6.107.15L129 310c-2.008.006-3.974-.602-5.66-1.75z" transform="translate(-97 -22) translate(869 381)"/>
                    <path fill="#36231D" d="M107 315l1.144-3.244L123.392 308c1.743 1.076 3.776 1.646 5.851 1.64l.757 5.29-23 .07z" transform="translate(-97 -22) translate(869 381)"/>
                    <path fill="#FDB07F" d="M149.025 121.226l.788 1.585-3.813 3.057 4.235 2.755 4.033 4.377 1.833-5.132s1.834.472 2.64-.811c.334-.605.346-1.344.03-1.959-.316-.615-.914-1.022-1.588-1.08-.947-1.846-1.227-3.979-.788-6.018l-7.37 3.226zM126.174 119.895s17.26 16.268 24.205 31.79c2.737 10.845-4.245 16.623-7.839 17.932-13.908 4.189-23.645-27.058-27.388-41.869-9.886-17.84-7.727-34.781-4.152-41.326.83-1.274 1.833-2.426 2.98-3.422l12.194 36.895z" transform="translate(-97 -22) translate(869 381)"/>
                    <path fill="#FDB07F" d="M108 81.497c.695 1.75 1.664 3.38 2.87 4.826 0 .705 1 3.953 1.056 4.677L115 86.657c-.13-.242-.185-.372-.185-.372l-.26-7.703L109.594 75 108 81.497zM149.038 122.194l.791 1.57L146 126.79l4.253 2.727 4.271 4.483 1.565-5.23s1.841.467 2.651-.804c.336-.598.347-1.33.03-1.938-.317-.61-.918-1.012-1.595-1.07-.951-1.827-1.232-3.94-.791-5.958l-7.346 3.194z" transform="translate(-97 -22) translate(869 381)"/>
                    <path fill="#FDB07F" d="M150.947 128s-6.44 8.206-2.868 14l6.921-9.346-4.053-4.654z" transform="translate(-97 -22) translate(869 381)"/>
                    <path fill="#EE4D1A" d="M143.184 211c-.82-.13 1.677.168-4.228-.449l-1.751-.187c-10.282-1.085-32.375-2.918-38.205-3.741.913-39.955 23.08-52.02 32.71-60.774.596-.542 1.173-1.047 1.75-1.515 2.332-2.038 4.957-3.71 7.787-4.957l-1.23-3.853L156 135l-3.465 6.996c3.782 5.032-4.005 48.166-9.35 69.004z" transform="translate(-97 -22) translate(869 381)"/>
                    <path fill="#EE4D1A" d="M135.94 146.292c5.465-4.12 20.947 1.38 10.55 19.875-2.127 3.873-4.681 7.506-7.618 10.833-3.407-7.942-8.473-15.1-14.872-21.013 4.342-3.635 8.836-7.364 11.94-9.695z" transform="translate(-97 -22) translate(869 381)"/>
                    <path fill="#FDB07F" d="M111.29 166.723s5.831-5.25 12.112-10.723c6.28 5.904 11.253 13.05 14.598 20.981-29.402 33.697-62-20.646-62-20.646l35.29 10.388z" transform="translate(-97 -22) translate(869 381)"/>
                    <path fill="#FDB07F" d="M70.042 158.158s7.066 4.295 8.838 4.314c.539.594 3.6 2.895 4.12 3.528l-.135-6.001-.404-.211L77.012 153H67l3.042 5.158z" transform="translate(-97 -22) translate(869 381)"/>
                    <path fill="#396A83" d="M159.942 112c-1.966 1.543-3.37 3.66-4.006 6.037-.458 2.014-.166 4.12.824 5.944.705.057 1.33.459 1.66 1.066.33.608.319 1.337-.03 1.934-.863 1.267-2.76.802-2.76.802L154 133l12-6.354L159.942 112z" transform="translate(-97 -22) translate(869 381)"/>
                    <path fill="#FDB07F" d="M107.913 81L106 78.155 106.966 77 110 79zM114 78L107.553 71 107 72.368 108.529 76.491z" transform="translate(-97 -22) translate(869 381)"/>
                </g>
                <path fill="#B6C176" fill-rule="nonzero" d="M844.99 648.79c.038 1.249-.042 2.498-.24 3.732-2.615.414-5.005 1.734-6.758 3.732-.375.47-.94.744-1.537.746-.602-.007-1.17-.28-1.555-.746-2.332-2.606-5.684-4.046-9.164-3.938h-.407c-.191-.996-.297-2.008-.315-3.023-.019-.335-.019-.672 0-1.007.592-7.278 9.571-13.286 9.571-13.286s9.923 5.803 10.405 13.398c.013.13.013.261 0 .392zM868.999 648.19c.014 1.381-.116 2.76-.388 4.111-3.332-.009-6.512 1.43-8.753 3.96-.389.464-.954.734-1.551.739-.591-.006-1.151-.275-1.533-.739-1.886-2.141-4.477-3.49-7.275-3.789-.282-1.295-.45-2.614-.499-3.94v-.247c0-7.73 9.584-14.285 9.584-14.285s10.175 6.082 10.396 13.925c0 .089.005.178.019.265zM891.98 646.86c.027.472.027.945 0 1.416-.034 1.367-.233 2.724-.594 4.041h-.89c-3.457-.097-6.785 1.343-9.116 3.947-.387.467-.957.736-1.557.736s-1.169-.27-1.556-.736c-1.416-1.682-3.305-2.882-5.41-3.437-.455-1.414-.741-2.878-.853-4.362v-.982C871.78 639.647 881.62 633 881.62 633s10.136 6.043 10.358 13.86z" opacity=".7" style="mix-blend-mode:multiply" transform="translate(-97 -22)"/>
                <path fill="#498A39" fill-rule="nonzero" d="M942.203 656.323c-2.413-2.58-5.74-4.037-9.217-4.037-3.476 0-6.803 1.457-9.216 4.037-.387.48-.962.755-1.566.75-.6.005-1.168-.271-1.547-.75-2.408-2.56-5.72-4.006-9.18-4.006s-6.771 1.446-9.18 4.006c-.385.474-.955.748-1.556.748-.6 0-1.17-.274-1.556-.748-2.14-2.413-5.125-3.845-8.294-3.977h-.895c-3.477-.1-6.825 1.366-9.17 4.016-.39.475-.962.749-1.566.749-.603 0-1.176-.274-1.565-.75-1.425-1.711-3.324-2.932-5.443-3.497-1.213-.348-2.468-.522-3.727-.518h-.355c-3.363-.01-6.573 1.45-8.834 4.016-.393.47-.964.744-1.566.749-.597-.006-1.162-.28-1.547-.75-1.904-2.171-4.52-3.54-7.344-3.842-.617-.094-1.24-.14-1.864-.135-.811.001-1.622.072-2.423.211-2.632.427-5.037 1.786-6.803 3.843-.376.484-.945.767-1.547.77-.606-.008-1.178-.29-1.565-.77-2.348-2.683-5.723-4.166-9.226-4.054h-.41c-3.657-.07-7.124 1.674-9.32 4.689-.63.947-1.874 1.21-2.814.595-.482-.33-.805-.857-.887-1.448-.081-.59.085-1.19.458-1.645 2.882-4.053 7.446-6.473 12.32-6.534h.708c3.945-.061 7.78 1.336 10.81 3.94 2.43-2.136 5.422-3.474 8.593-3.844.73-.093 1.465-.138 2.2-.134h1.36c3.422.237 6.684 1.582 9.32 3.843 3.029-2.556 6.84-3.918 10.754-3.843.95.005 1.897.089 2.833.25 2.897.45 5.619 1.712 7.866 3.65 3.021-2.555 6.828-3.918 10.736-3.842h1.49c3.424.228 6.688 1.574 9.32 3.843 3.029-2.543 6.83-3.904 10.736-3.843 3.908-.08 7.716 1.284 10.736 3.843 3.03-2.553 6.841-3.915 10.754-3.843 3.594-.032 7.103 1.126 10.01 3.305 3.503 2.42 1.789 6.706-.82 4.957z" transform="translate(-97 -22)"/>
                <path fill="#36231D" fill-rule="nonzero" d="M1056.36 483.81l-.72.38c.78-.12.72-.38.72-.38z" transform="translate(-97 -22)"/>
            </g>
        </g>
    </g>
</svg>
