<svg xmlns="http://www.w3.org/2000/svg" width="250" height="250" viewBox="0 0 250 250">
    <g fill="none">
        <path fill="#65A4C5" d="M249.988 123.274c.304 22.555-5.366 43.76-15.529 62.136-8.997 16.268-33.775 9.821-33.775-8.769 0-50.338-40.808-91.145-91.146-91.145h-50.95c-26.386 0-39.37-32.123-20.385-50.447C60.418 13.607 90.557.319 123.797.005c67.987-.64 125.274 55.285 126.191 123.27z"/>
        <path fill="#D3D3D8" d="M85.7 74.151C83.452 59.588 87.26 46.43 101.183 44.08l131.287-21.754-1.31 7.46c-3.994 22.74-4.235 46.03-.714 68.857l1.715 11.117H91.192L85.698 74.15z"/>
        <path fill="#B9B9BE" d="M39.139 34.155L61.322 49.02c11.967 8.019 15.027 24.74 6.835 37.345l-20.03 30.822L3.165 96.933c5.605-24.435 18.373-46.137 35.975-62.78z"/>
        <path fill="#ECECF1" d="M250 43.945l-2.787 7.84c-8.496 23.894-12.838 49.067-12.838 74.428v59.35C213.051 223.99 172.063 250 125 250c-17.891 0-34.904-3.759-50.293-10.53-1.966-.865-3.906-1.78-5.818-2.741V71.523c0-3.688 5.511-3.916 5.754-.237.042.647.064 1.298.064 1.956 0-16.18 13.117-29.297 29.297-29.297H250z"/>
        <path fill="#D3D3D8" d="M74.707 73.242V239.47C30.716 220.115 0 176.145 0 125c0-30.927 11.232-59.23 29.838-81.055H45.41c16.18 0 29.297 13.117 29.297 29.297z"/>
        <path fill="#DD7D00" d="M123.878 97.749h-6.836c-1.079 0-1.953-.874-1.953-1.953V69.492c0-1.079.874-1.953 1.953-1.953h6.836c1.079 0 1.953.874 1.953 1.953v26.304c0 1.079-.874 1.953-1.953 1.953z"/>
        <path fill="#F29500" d="M123.878 75.288h-6.836c-1.079 0-1.953-.874-1.953-1.953V36.108c0-1.079.874-1.953 1.953-1.953h6.836c1.079 0 1.953.874 1.953 1.953v37.227c0 1.079-.874 1.953-1.953 1.953z"/>
        <path fill="#FFB52D" d="M142.433 97.749h-6.836c-1.079 0-1.953-.874-1.953-1.953V82.997c0-1.079.874-1.953 1.953-1.953h6.836c1.078 0 1.953.874 1.953 1.953v12.799c0 1.079-.874 1.953-1.953 1.953z"/>
        <path fill="#FFC14F" d="M142.433 87.11h-6.836c-1.079 0-1.953-.874-1.953-1.952V69.492c0-1.079.874-1.953 1.953-1.953h6.836c1.078 0 1.953.874 1.953 1.953v15.666c0 1.078-.874 1.953-1.953 1.953z"/>
        <path fill="#3342AE" d="M104.347 97.749H97.51c-1.079 0-1.953-.874-1.953-1.953V80.254c0-1.078.874-1.953 1.953-1.953h6.836c1.078 0 1.953.875 1.953 1.953v15.542c0 1.079-.874 1.953-1.953 1.953z"/>
        <path fill="#3D4EC6" d="M104.347 84.077H97.51c-1.079 0-1.953-.874-1.953-1.953v-24.4c0-1.08.874-1.954 1.953-1.954h6.836c1.078 0 1.953.875 1.953 1.953v24.401c0 1.079-.874 1.953-1.953 1.953z"/>
        <path fill="#FFC14F" d="M211.86 125.053c10.489 10.488 10.489 27.492 0 37.98-10.487 10.488-27.49 10.488-37.979 0-10.487-10.488-10.487-27.492 0-37.98 10.488-10.488 27.492-10.488 37.98 0z"/>
        <path fill="#FFB52D" d="M217.185 155.463c-1.287 2.74-3.061 5.306-5.324 7.57-10.488 10.487-27.492 10.487-37.98 0-10.487-10.489-10.487-27.492 0-37.98 2.264-2.263 4.83-4.037 7.57-5.324-4.676 9.954-2.901 22.186 5.323 30.41 8.225 8.225 20.456 10 30.41 5.324z"/>
        <path fill="#FF9100" d="M175.25 122.97l20.383 20.383c.382.38.382 1 0 1.38l-20.383 20.384c-1.467 1.466-3.867 1.453-5.287-.058l-.167-.18c-10.807-11.688-10.808-29.982-.001-41.67l.168-.181c1.42-1.512 3.82-1.526 5.287-.059z"/>
        <path fill="#DD7D00" d="M195.633 143.353c.382.38.382 1 0 1.38l-20.383 20.384c-1.467 1.466-3.867 1.454-5.287-.058l-.167-.18c-1.543-1.668-2.864-3.472-3.967-5.371l28.47-17.49 1.334 1.335z"/>
        <path fill="#A6E0EC" d="M175.773 239.258H97.656c-2.697 0-4.883-2.186-4.883-4.883v-48.828c0-2.697 2.186-4.883 4.883-4.883h112.305c2.697 0 4.883 2.186 4.883 4.883v26.362c-11.076 11.447-24.32 20.784-39.07 27.349z"/>
        <path fill="#7CD2E3" d="M181.837 190.43h33.007v21.479c-11.076 11.447-24.32 20.784-39.07 27.349H97.655c-2.697 0-4.883-2.186-4.883-4.883v-19.531h18.52l13.934 13.933c.477.477 1.101.715 1.726.715s1.25-.238 1.727-.715l13.933-13.933h18.52c.742 0 1.443-.337 1.906-.916l18.798-23.498z"/>
        <path fill="#DEF4F8" d="M112.635 202.88c0 1.349-1.093 2.442-2.441 2.442h-5.324c-1.349 0-2.442-1.093-2.442-2.441 0-1.348 1.093-2.442 2.442-2.442h5.324c1.348 0 2.441 1.094 2.441 2.442zm6.994-12.324h-14.76c-1.348 0-2.44 1.093-2.44 2.442 0 1.348 1.092 2.441 2.44 2.441h14.76c1.348 0 2.441-1.093 2.441-2.441 0-1.349-1.093-2.442-2.441-2.442z"/>
        <path fill="#2CB3CD" d="M198.084 215.088h-5.324c-1.348 0-2.441-1.093-2.441-2.442 0-1.348 1.093-2.44 2.441-2.44h5.324c1.349 0 2.442 1.092 2.442 2.44 0 1.349-1.093 2.442-2.442 2.442zm11.877-12.325c0-1.348-1.093-2.441-2.441-2.441h-14.76c-1.348 0-2.441 1.093-2.441 2.441 0 1.348 1.093 2.442 2.441 2.442h14.76c1.348 0 2.44-1.094 2.44-2.442zm-29.297-14.775c-.742 0-1.443.337-1.906.916l-18.799 23.498h-18.357c-.648 0-1.269.258-1.727.715l-12.922 12.922-12.922-12.922c-.458-.457-1.079-.715-1.726-.715H92.773v4.883h18.52l13.934 13.934c.477.476 1.101.715 1.726.715s1.25-.239 1.727-.715l13.933-13.934h18.52c.742 0 1.443-.337 1.906-.916l18.798-23.498h33.007v-4.883h-34.18z"/>
        <path fill="#7CD2E3" d="M182.917 64.058c0 1.348-1.093 2.441-2.441 2.441h-17.69c-1.348 0-2.44-1.093-2.44-2.441 0-1.349 1.092-2.442 2.44-2.442h17.69c1.348 0 2.441 1.093 2.441 2.442zm-70.8 63.964h-17.69c-1.348 0-2.441 1.093-2.441 2.442 0 1.348 1.093 2.441 2.441 2.441h17.69c1.347 0 2.44-1.093 2.44-2.441 0-1.349-1.093-2.442-2.44-2.442z"/>
        <path fill="#D3D3D8" d="M148.292 99.702H92.628c-1.079 0-1.953-.874-1.953-1.953 0-1.079.874-1.953 1.953-1.953h55.664c1.079 0 1.953.874 1.953 1.953 0 1.079-.874 1.953-1.953 1.953zm-16.456 53.223c0-1.348-1.093-2.442-2.441-2.442H94.427c-1.348 0-2.442 1.094-2.442 2.442s1.094 2.441 2.442 2.441h34.968c1.348 0 2.44-1.093 2.44-2.441zm4.883 10.742c0-1.348-1.094-2.441-2.442-2.441h-39.85c-1.348 0-2.442 1.093-2.442 2.441 0 1.348 1.094 2.441 2.442 2.441h39.85c1.348 0 2.442-1.092 2.442-2.441zm4.883-21.973c0-1.348-1.094-2.441-2.442-2.441H94.427c-1.348 0-2.442 1.093-2.442 2.441 0 1.348 1.094 2.442 2.442 2.442h44.733c1.348 0 2.442-1.093 2.442-2.442zm58.593-55.175c0-1.349-1.093-2.442-2.441-2.442h-34.968c-1.348 0-2.441 1.093-2.441 2.442 0 1.348 1.093 2.441 2.441 2.441h34.968c1.348 0 2.441-1.093 2.441-2.441zm4.883 10.742c0-1.348-1.093-2.442-2.441-2.442h-39.85c-1.349 0-2.442 1.094-2.442 2.442s1.093 2.441 2.441 2.441h39.85c1.349 0 2.442-1.093 2.442-2.441zm4.883-21.973c0-1.348-1.093-2.441-2.441-2.441h-44.734c-1.348 0-2.441 1.093-2.441 2.441 0 1.348 1.093 2.441 2.441 2.441h44.734c1.348 0 2.44-1.092 2.44-2.44zm-53.38 49.468c0-1.348-1.094-2.442-2.442-2.442h-5.324c-1.348 0-2.441 1.094-2.441 2.442s1.093 2.441 2.44 2.441h5.325c1.348 0 2.442-1.093 2.442-2.441zm9.435-9.883c0-1.349-1.094-2.442-2.442-2.442h-14.76c-1.347 0-2.44 1.093-2.44 2.442 0 1.348 1.093 2.441 2.44 2.441h14.76c1.348 0 2.442-1.093 2.442-2.441z"/>
        <path fill="#B9B9BE" d="M33.614 144.099H1.45c-.248-1.618-.465-3.246-.65-4.883h32.813c1.348 0 2.442 1.093 2.442 2.441 0 1.348-1.093 2.442-2.441 2.442zm7.701-24.903c0-1.348-1.093-2.441-2.441-2.441H.268c-.106 1.619-.18 3.247-.224 4.883h38.83c1.348 0 2.441-1.094 2.441-2.442zm0-47.607c0-1.349-1.093-2.442-2.441-2.442H13.142c-.805 1.608-1.576 3.236-2.312 4.883h28.044c1.348 0 2.441-1.093 2.441-2.441zm8.301 11.23c0-1.348-1.093-2.441-2.441-2.441H8.2c-.616 1.612-1.2 3.24-1.75 4.883h40.725c1.348 0 2.441-1.094 2.441-2.442zm-13.56 11.23c0-1.348-1.094-2.44-2.442-2.44H4.51c-.447 1.614-.862 3.242-1.244 4.882h30.348c1.348 0 2.441-1.093 2.441-2.441zm11.119 81.544H10.662c.73 1.646 1.494 3.274 2.292 4.883h34.22c1.349 0 2.442-1.094 2.442-2.442s-1.093-2.441-2.441-2.441zm0-47.608H.035c.039 1.636.108 3.264.209 4.883h46.93c1.348 0 2.442-1.093 2.442-2.441 0-1.349-1.093-2.442-2.441-2.442zm-5.86 38.819c0-1.349-1.093-2.442-2.441-2.442H6.324c.544 1.643 1.122 3.271 1.733 4.883h30.817c1.348 0 2.441-1.093 2.441-2.441zm-7.701 20.02h-17.28c.941 1.65 1.92 3.279 2.934 4.882h14.346c1.348 0 2.441-1.093 2.441-2.441 0-1.349-1.093-2.442-2.441-2.442z"/>
    </g>
</svg>
