<svg xmlns="http://www.w3.org/2000/svg" xmlns:xlink="http://www.w3.org/1999/xlink" width="423" height="314" viewBox="0 0 423 314">
    <defs>
        <linearGradient id="mfbe5os6lc" x1="74.781%" x2="38.832%" y1="3.518%" y2="102.511%">
            <stop offset="0%" stop-color="#6AAF47"/>
            <stop offset="100%" stop-color="#396324"/>
        </linearGradient>
        <path id="u81je76yia" d="M0 0.819L111.863 0.819 111.863 110.072 0 110.072z"/>
    </defs>
    <g fill="none" fill-rule="evenodd">
        <g transform="translate(118 66)">
            <mask id="6kf6q8vfyb" fill="#fff">
                <use xlink:href="#u81je76yia"/>
            </mask>
            <path fill="#FFC13B" d="M83.557.818l28.306 109.254L0 108.164C2.907 57.703 35.668 15.623 83.557.818" mask="url(#6kf6q8vfyb)"/>
            <g fill="#F6B105">
                <path d="M0.193 0.818L14.089 9.312 42.392 118.566 28.499 110.072z" transform="translate(83.364)"/>
            </g>
            <path fill="#C48D00" d="M111.862 110.074L125.755 118.567 13.893 116.659 0.002 108.165z"/>
            <path fill="#6AAF47" stroke="#6EB947" stroke-opacity=".485" d="M104.425 16.057c59.89-18.512 121.11 15.398 136.741 75.738 15.63 60.336-20.254 124.238-80.138 142.75-59.887 18.51-121.104-15.376-136.736-75.715-3.13-12.086-4.157-22.788-3.424-35.427l111.862 1.908-28.305-109.254z"/>
            <g fill="url(#mfbe5os6lc)" transform="translate(71 26)">
                <path d="M170.45 65.549c15.698 60.396-20.337 124.359-80.474 142.886-31.69 9.761-63.75 4.966-89.29-10.595l13.954 8.499C31.185 216.42 50.463 221.986 70.608 222h.236c10.875-.016 22.002-1.648 33.086-5.063 50.501-15.56 84.005-63.163 84.15-113.785v-.627c-.025-9.453-1.215-19.008-3.675-28.474-7.429-28.58-25.107-51.233-48.04-65.208L122.41.34c22.936 13.975 40.614 36.63 48.04 65.208"/>
            </g>
        </g>
        <text fill="#FFF" font-family="InterUI-Bold, Inter UI" font-size="29" font-weight="bold">
            <tspan x="266.532" y="225">80%</tspan>
        </text>
        <text fill="#FFF" font-family="InterUI-Bold, Inter UI" font-size="24" font-weight="bold">
            <tspan x="152.011" y="147">20%</tspan>
        </text>
        <path fill="#979797" fill-rule="nonzero" d="M423 23.586v1l-92.72-.001-.307.503c-14.609 23.89-24.146 38.988-28.622 45.308 1.577 1.65 1.677 4.258.162 6.03-1.616 1.888-4.457 2.109-6.345.493-1.888-1.615-2.11-4.456-.494-6.345 1.496-1.747 4.04-2.067 5.908-.824 4.475-6.329 13.992-21.395 28.538-45.184l.453-.74.147-.24H423zM295.434 71.225c-1.257 1.468-1.085 3.678.384 4.934 1.469 1.257 3.678 1.085 4.935-.384 1.257-1.468 1.085-3.678-.384-4.934-1.469-1.257-3.678-1.085-4.935.384zM128.906 65.5v1h-92.72l-.306.502C21.27 90.892 11.733 105.99 7.257 112.31c1.577 1.65 1.678 4.258.162 6.03-1.615 1.888-4.456 2.109-6.345.493-1.888-1.615-2.109-4.456-.493-6.344 1.495-1.748 4.04-2.068 5.908-.824 4.475-6.33 13.991-21.396 28.538-45.185l.453-.74.146-.24h93.28zM1.341 113.139c-1.257 1.468-1.085 3.678.384 4.934 1.468 1.257 3.678 1.085 4.934-.384 1.257-1.468 1.085-3.678-.384-4.934-1.468-1.257-3.678-1.085-4.934.384z"/>
        <text fill="#333" font-family="InterUI-Regular, Inter UI" font-size="18">
            <tspan x="330.98" y="17">Plant trees</tspan>
        </text>
        <text fill="#333" font-family="InterUI-Regular, Inter UI" font-size="18">
            <tspan x=".011" y="49">Operating Costs</tspan>
        </text>
    </g>
</svg>
