<svg xmlns="http://www.w3.org/2000/svg" xmlns:xlink="http://www.w3.org/1999/xlink" width="592" height="338" viewBox="0 0 592 338">
    <defs>
        <filter id="pqodfqnavb" width="129.2%" height="144.1%" x="-18.8%" y="-16.9%" filterUnits="objectBoundingBox">
            <feMorphology in="SourceAlpha" operator="dilate" radius="1" result="shadowSpreadOuter1"/>
            <feOffset dx="-16" dy="13" in="shadowSpreadOuter1" result="shadowOffsetOuter1"/>
            <feGaussianBlur in="shadowOffsetOuter1" result="shadowBlurOuter1" stdDeviation="15"/>
            <feColorMatrix in="shadowBlurOuter1" values="0 0 0 0 0 0 0 0 0 0 0 0 0 0 0 0 0 0 0.120028409 0"/>
        </filter>
        <filter id="v485lrfp1h" width="119.9%" height="220%" x="-11.6%" y="-30%" filterUnits="objectBoundingBox">
            <feOffset dx="-7" dy="22" in="SourceAlpha" result="shadowOffsetOuter1"/>
            <feGaussianBlur in="shadowOffsetOuter1" result="shadowBlurOuter1" stdDeviation="10"/>
            <feComposite in="shadowBlurOuter1" in2="SourceAlpha" operator="out" result="shadowBlurOuter1"/>
            <feColorMatrix in="shadowBlurOuter1" values="0 0 0 0 0.327636725 0 0 0 0 0.368576162 0 0 0 0 0.427338089 0 0 0 0.194766171 0"/>
        </filter>
        <rect id="putoai74td" width="82" height="117" x="0" y="0" rx="3"/>
        <rect id="zyg8y99qgi" width="413" height="70" x="0" y="0" rx="6"/>
        <path id="el9qcoj6ha" d="M10 0h363c5.523 0 10 4.477 10 10v234c0 5.523-4.477 10-10 10H10c-5.523 0-10-4.477-10-10V10C0 4.477 4.477 0 10 0z"/>
        <path id="cysf04th3f" d="M5.596 0c2.678 0 4.072 1.448 4.072 4.118 0 2.52-1.357 4.118-3.886 4.118H3.18c-.18-.594-.183-.995-.183-.995.804.386 1.747.71 2.892-.243 1.144-.954.896-2.85.85-4.01-.046-1.16.526-1.686.526-1.686C6.538.978 4.404.84 2.873 2.432c-1.53 1.592-.758 3.664-.758 3.664.727-2.629 2.738-3.48 2.738-3.48-1.287.748-2.276 2.403-2.276 5.132 0 .232.003.437.007.62v4.419H0V1.373C0 .639.576 0 1.302 0h4.294z"/>
    </defs>
    <g fill="none" fill-rule="evenodd" transform="translate(48 19)">
        <rect width="383" height="254" x="37" y="37" fill="#F8F8F8" rx="9"/>
        <mask id="e7s30x63pc" fill="#fff">
            <use xlink:href="#el9qcoj6ha"/>
        </mask>
        <use fill="#000" filter="url(#pqodfqnavb)" xlink:href="#el9qcoj6ha"/>
        <use fill="#FFF" xlink:href="#el9qcoj6ha"/>
        <g mask="url(#e7s30x63pc)">
            <g transform="translate(286 104)">
                <mask id="j49pqabhte" fill="#fff">
                    <use xlink:href="#putoai74td"/>
                </mask>
                <rect width="81" height="116" x=".5" y=".5" stroke="#F0F0F0" rx="3"/>
                <path fill="#D8D8D8" d="M9 67H44V75H9z" mask="url(#j49pqabhte)"/>
                <path fill="#F1F1F1" d="M9 81H73V89H9zM9 93L59 93 59 101 9 101z" mask="url(#j49pqabhte)"/>
                <g mask="url(#j49pqabhte)">
                    <g>
                        <path fill="#DFDDDD" d="M0 58.352L82 58.352 82 0.352 0 0.352z" transform="translate(0 -.352)"/>
                        <text font-family="Poppins-Bold, Poppins" font-size="30" font-weight="bold" transform="translate(0 -.352)">
                            <tspan x="13" y="40" fill="#FFF">Ads</tspan>
                        </text>
                    </g>
                </g>
            </g>
        </g>
        <g mask="url(#e7s30x63pc)">
            <g>
                <path fill="#D8D8D8" d="M0 0H132V8H0z" transform="translate(26 104)"/>
                <path fill="#F1F1F1" d="M0 14H239V20H0zM0 24L185.707 24 185.707 30 0 30z" transform="translate(26 104)"/>
            </g>
        </g>
        <g mask="url(#e7s30x63pc)">
            <g>
                <path fill="#D8D8D8" d="M0 0L178.346 0 178.346 8 0 8z" transform="translate(26 192)"/>
                <path fill="#F1F1F1" d="M0 14H239V20H0zM0 24L122.146 24 122.146 30 0 30z" transform="translate(26 192)"/>
            </g>
        </g>
        <g mask="url(#e7s30x63pc)">
            <g>
                <path fill="#D8D8D8" d="M0 0L112.607 0 112.607 8 0 8z" transform="translate(26 148)"/>
                <path fill="#F1F1F1" d="M0 14L224 14 224 20 0 20zM0 24L83.443 24 83.443 30 0 30z" transform="translate(26 148)"/>
            </g>
        </g>
        <path fill="#F0F0F0" d="M0 84H383V85H0z" mask="url(#e7s30x63pc)"/>
        <g mask="url(#e7s30x63pc)">
            <g>
                <g transform="translate(9 56) translate(0 .032)">
                    <mask id="6y159fhfdg" fill="#fff">
                        <use xlink:href="#cysf04th3f"/>
                    </mask>
                    <use fill="#57AC1D" xlink:href="#cysf04th3f"/>
                    <path fill="#388503" d="M2.64 9.202c.124.926.423.57.852 1.193.843 1.226 1.805 1.93 2.631 2.333.628.458 1.397.896 2.337 1.287l-1.234.186s-2.58-.502-3.974-3.703c-.293-.673-.643-.417-.612-1.257v-.039zm.357-1.961c.116.055.235.11.357.16-.025.218-.065.807.114 1.577-.427-.898-.467-1.61-.47-1.722l-.001-.015zM6.95 1.78c.783.05 1.426.29 1.74.511 0 0-.663.407-.838 1.554-.176 1.148-.295 3.056-1.6 3.774-1.14.627-1.942.327-2.604-.114.653.204 1.391.2 2.24-.508 1.144-.954.896-2.85.85-4.01-.021-.532.088-.93.212-1.206z" mask="url(#6y159fhfdg)"/>
                </g>
                <path fill="#57AC1D" d="M37.307 6.926c1.826 0 2.685 1.132 2.576 3.408h-3.718c.055.89.435 1.341 1.142 1.341.337 0 .652-.143.935-.418.13-.143.293-.209.489-.209h1.065c-.315 1.232-1.098 1.913-2.511 1.913-1.74-.055-2.609-1.077-2.609-3.056s.88-2.968 2.63-2.98zm5.565 0c1.826 0 2.685 1.132 2.576 3.408h-3.717c.054.89.434 1.341 1.141 1.341.337 0 .652-.143.935-.418.13-.143.293-.209.489-.209h1.065c-.315 1.232-1.098 1.913-2.51 1.913-1.74-.055-2.61-1.077-2.61-3.056s.881-2.968 2.631-2.98zm-28.164 0c1.587 0 2.392.527 2.424 1.605v1.979c0 1.605-.956 2.32-2.51 2.43-1.381.11-2.338-.54-2.338-1.826.033-1.396 1.033-1.77 2.49-1.913.619-.077.934-.263.934-.582-.032-.33-.337-.495-.935-.495-.51 0-.793.132-.87.407h-1.445c.174-1.078.924-1.605 2.25-1.605zm33.436 0c.74 0 1.326.165 1.76.494.425.341.653.814.686 1.419h-.913c-.337-.011-.555-.132-.642-.363-.098-.253-.391-.396-.87-.396-.565 0-.847.154-.847.45 0 .298.37.529 1.12.671.978.198 1.62.451 1.934.748.272.286.403.638.403 1.033 0 1.43-1.11 1.957-2.631 1.957-.804 0-1.413-.176-1.805-.516-.434-.33-.652-.836-.652-1.507h1.479c.032.638.489.858 1.195.858.61 0 .913-.176.913-.55 0-.297-.5-.538-1.489-.714-1.272-.231-1.924-.803-1.935-1.715 0-1.254.979-1.847 2.294-1.87zM11.176 5.354c.38 0 .695.33.695.714v6.761h-1.446V5.354h.75zm8.847 1.572c1.642 0 2.446.824 2.435 2.484v3.42h-.739c-.478-.034-.717-.264-.717-.726v-2.99c-.033-.605-.359-.902-1-.902-.642 0-.968.297-.979.901v3.716h-1.467V9.41c0-1.66.826-2.484 2.467-2.484zm11.349-1.572v1.33h-2.185v6.145h-1.511V6.684H25.49v-.528c0-.429.337-.802.76-.802h5.12zm2.946 1.66V8.53h-.49c-.804 0-1.206.429-1.206 1.275v3.023h-1.468v-3c.044-1.88 1.033-2.815 2.957-2.815h.207zm-10.73-1.66c.381 0 .696.351.696.736v.924h.87v.318c0 .418-.315.726-.717.726h-.153v3.221c0 .242.142.374.424.374h.446v1.11c-.467.044-.978.044-1.522-.01-.543-.056-.804-.396-.793-1.045V5.354h.75zM15.73 9.905c-.337.143-.728.264-1.152.352-.576.11-.87.385-.87.813.033.462.272.682.728.682.805 0 1.294-.484 1.294-1.308v-.539zm21.555-1.78c-.62 0-.99.395-1.098 1.164h2.163c-.087-.77-.445-1.165-1.065-1.165zm5.565 0c-.62 0-.989.395-1.098 1.164h2.164c-.087-.77-.446-1.165-1.066-1.165z" transform="translate(9 56)"/>
            </g>
        </g>
        <g mask="url(#e7s30x63pc)">
            <g>
                <path fill="#FFF" stroke="#DFE1E5" d="M189.759.5H10.367C7.643.5 5.176 1.604 3.39 3.39 1.604 5.176.5 7.643.5 10.367c0 2.725 1.104 5.192 2.89 6.978 1.786 1.785 4.253 2.89 6.977 2.89H189.76c2.725 0 5.191-1.105 6.977-2.89 1.786-1.786 2.89-4.253 2.89-6.978 0-2.724-1.104-5.191-2.89-6.977C194.95 1.604 192.484.5 189.759.5z" transform="translate(71 53)"/>
                <path fill="#D8D8D8" d="M9 7L74.5 7 74.5 15 9 15z" transform="translate(71 53)"/>
                <path fill="#9AA0A6" fill-rule="nonzero" d="M191.263 14.164l-3.104-3.109c.392-.608.602-1.318.602-2.06 0-1.017-.396-1.975-1.115-2.695-.718-.72-1.674-1.116-2.691-1.116s-1.973.396-2.691 1.116c-.72.72-1.115 1.678-1.115 2.696 0 1.018.396 1.976 1.114 2.696.72.72 1.675 1.116 2.692 1.116.74 0 1.448-.21 2.056-.603l3.104 3.109c.316.316.832.316 1.148 0 .316-.316.316-.834 0-1.15zm-8.238-3.235c-.516-.516-.8-1.203-.8-1.933s.284-1.417.8-1.933c.515-.517 1.2-.801 1.93-.801s1.415.284 1.93.8c.516.517.8 1.204.8 1.934s-.284 1.417-.8 1.933c-.515.517-1.2.8-1.93.8s-1.415-.284-1.93-.8z" transform="translate(71 53)"/>
            </g>
        </g>
        <path fill="#DFDFE6" d="M0 0L383 0 383 20.735 0 20.735z" mask="url(#e7s30x63pc)"/>
        <g mask="url(#e7s30x63pc)">
            <g transform="translate(8.626 6.048)">
                <ellipse cx="3.45" cy="3.456" fill="#FF554F" rx="3.45" ry="3.456"/>
                <ellipse cx="16.39" cy="3.456" fill="#FFBF2E" rx="3.45" ry="3.456"/>
                <ellipse cx="29.329" cy="3.456" fill="#28CA41" rx="3.45" ry="3.456"/>
            </g>
        </g>
        <path fill="#F0F0F4" d="M54.032 3.456h66.184c2.21 0 4 1.79 4 4v13.279H50.032V7.455c0-2.208 1.79-4 4-4zM0 20.735L383 20.735 383 46.653 0 46.653z" mask="url(#e7s30x63pc)"/>
        <path fill="#FFF" d="M40.818 26.782h318.617c1.104 0 2 .896 2 2v8.96c0 1.104-.896 2-2 2H40.818c-1.105 0-2-.896-2-2v-8.96c0-1.104.895-2 2-2z" mask="url(#e7s30x63pc)"/>
        <g transform="translate(118 207)">
            <use fill="#000" filter="url(#v485lrfp1h)" xlink:href="#zyg8y99qgi"/>
            <rect width="412" height="69" x=".5" y=".5" fill="#FFF" stroke="#F4F4F4" stroke-linejoin="square" rx="6"/>
            <path fill="#6AAF47" d="M241.139 45.046L244.008 48 254.135 37.958 244.008 28 241.139 30.954 246.203 35.932 230 35.932 230 40.068 246.203 40.068z"/>
            <text fill="#6FAE2E" font-family="InterUI-Bold, Inter UI" font-size="36" font-weight="bold">
                <tspan x="63" y="48">80%</tspan>
            </text>
            <text fill="#3F3F3F" font-family="Bebas" font-size="20">
                <tspan x="142" y="48">Revenue</tspan>
            </text>
            <text fill="#484848" font-family="Bebas" font-size="20">
                <tspan x="267" y="48">Planting trees</tspan>
            </text>
            <g transform="translate(16 13)">
                <circle cx="20" cy="22" r="20" fill="#FFC13B"/>
                <text fill="#FFF" font-family="Poppins-Medium, Poppins" font-size="30" font-weight="400">
                    <tspan x="11" y="32">$</tspan>
                </text>
            </g>
        </g>
    </g>
</svg>
