<svg xmlns="http://www.w3.org/2000/svg" xmlns:xlink="http://www.w3.org/1999/xlink" width="16" height="16" viewBox="0 0 16 16">
    <defs>
        <path id="prefix__a" d="M7.5 0c.276 0 .5.224.5.5V6h5.5c.276 0 .5.224.5.5v1c0 .276-.224.5-.5.5H8v5.5c0 .276-.224.5-.5.5h-1c-.276 0-.5-.224-.5-.5V8H.5C.224 8 0 7.776 0 7.5v-1c0-.276.224-.5.5-.5H6V.5c0-.276.224-.5.5-.5h1z"/>
    </defs>
    <g fill="none" fill-rule="evenodd" transform="translate(1 1)">
        <mask id="prefix__b" fill="#fff">
            <use xlink:href="#prefix__a"/>
        </mask>
        <g fill="#999" mask="url(#prefix__b)">
            <path d="M0 0H16V16H0z" transform="translate(-1 -1)"/>
        </g>
    </g>
</svg>
