<svg xmlns="http://www.w3.org/2000/svg" xmlns:xlink="http://www.w3.org/1999/xlink" width="12" height="12" viewBox="0 0 12 12">
    <defs>
        <path id="prefix__a" d="M6 4.586L10.182.404c.195-.195.512-.195.707 0l.707.707c.195.195.195.512 0 .707L7.414 6l4.182 4.182c.195.195.195.512 0 .707l-.707.707c-.195.195-.512.195-.707 0L6 7.414l-4.182 4.182c-.195.195-.512.195-.707 0l-.707-.707c-.195-.195-.195-.512 0-.707L4.586 6 .404 1.818c-.195-.195-.195-.512 0-.707L1.11.404c.195-.195.512-.195.707 0L6 4.586z"/>
    </defs>
    <g fill="none" fill-rule="evenodd">
        <use fill="#538F14" xlink:href="#prefix__a"/>
    </g>
</svg>
