<svg xmlns="http://www.w3.org/2000/svg" width="40" height="42" viewBox="0 0 40 42">
    <g fill="none">
        <path fill="#FFF" stroke="silver" d="M39.088 7.992H.597v23.314c0 1.004.407 1.912 1.064 2.57.658.658 1.566 1.064 2.57 1.064h31.223c1.003 0 1.912-.406 2.57-1.064.657-.658 1.064-1.566 1.064-2.57V7.992z"/>
        <path fill="#4B5E6F" d="M39.588 7.925V4.15c0-2.283-1.851-4.134-4.134-4.134H4.23C1.948.016.097 1.866.097 4.15v3.775h39.49z"/>
        <g>
            <path fill="#96C247" d="M10.488.087c-.672 0-1.216.545-1.216 1.216 0 .672.544 1.216 1.216 1.216.671 0 1.216-.544 1.216-1.216 0-.671-.545-1.216-1.216-1.216z" transform="translate(24.304 2.667)"/>
            <path fill="#FFD442" d="M5.91.087c-.672 0-1.216.545-1.216 1.216 0 .672.544 1.216 1.216 1.216.672 0 1.216-.544 1.216-1.216C7.126.632 6.582.087 5.91.087z" transform="translate(24.304 2.667)"/>
            <path fill="#F15151" d="M1.332.087C.661.087.116.632.116 1.303c0 .672.545 1.216 1.216 1.216.672 0 1.216-.544 1.216-1.216 0-.671-.544-1.216-1.216-1.216z" transform="translate(24.304 2.667)"/>
        </g>
        <path fill="#D5D6DB" d="M5.725 12.896L32.834 12.896 32.834 15.651 5.725 15.651z"/>
        <path fill="#6ACCF2" d="M5.725 12.896L11.215 12.896 11.215 15.651 5.725 15.651z"/>
        <g fill="#9BD96F">
            <path d="M3.903 4.084L.097 7.882.097.277zM4.172 4.352L7.978 8.158.373 8.158zM4.172 3.815L.373.008 7.978.008zM8.247.277L8.247 7.882 4.448 4.084zM13.753 4.084L9.947 7.882 9.947.277zM14.022 4.352L17.828 8.158 10.223 8.158zM14.022 3.815L10.223.008 17.828.008zM18.097.277L18.097 7.882 14.298 4.084zM23.603 4.084L19.797 7.882 19.797.277zM23.872 4.352L27.678 8.158 20.073 8.158zM23.872 3.815L20.073.008 27.678.008zM27.947.277L27.947 7.882 24.148 4.084z" transform="translate(5.629 20.3)"/>
        </g>
        <path fill="#57565C" d="M25.662 31.856V28.47c0-1.477 1.201-2.678 2.678-2.678 1.476 0 2.677 1.201 2.677 2.678v3.385h1.567V28.47c0-2.34-1.904-4.244-4.244-4.244s-4.244 1.903-4.244 4.244v3.385h1.566z"/>
        <path fill="#FFD00D" d="M33.041 31.068h-9.505c-.56 0-1.012.453-1.012 1.012v2.958c0 3.07 2.317 5.751 5.38 5.95 3.358.217 6.149-2.442 6.149-5.753V32.08c0-.56-.453-1.012-1.012-1.012z"/>
        <path fill="#3A556A" d="M29.295 34.649c0-.556-.45-1.007-1.007-1.007-.556 0-1.006.451-1.006 1.007 0 .406.241.753.587.912v1.429h.839v-1.429c.346-.159.587-.506.587-.912z"/>
    </g>
</svg>
