<svg xmlns="http://www.w3.org/2000/svg" width="39" height="41" viewBox="0 0 39 41">
    <g fill="none">
        <path fill="#E9EEF2" d="M29.69 41H2.828C1.266 41 0 39.734 0 38.172V2.828C0 1.266 1.266 0 2.828 0h21.206l8.483 8.483v29.69c0 1.561-1.266 2.827-2.827 2.827z"/>
        <g fill="#C3C6C7">
            <path d="M28.983 8.483h-5.655c-1.562 0-2.828-1.266-2.828-2.828V0l8.483 8.483zM24.741 13.431H7.776c-.39 0-.707-.316-.707-.707 0-.39.316-.707.707-.707H24.74c.39 0 .707.317.707.707 0 .39-.316.707-.707.707zM14.845 17.672H.707c-.39 0-.707-.316-.707-.706 0-.39.316-.707.707-.707h14.138c.39 0 .707.316.707.707 0 .39-.317.706-.707.706zM17.672 21.914h-5.655c-.39 0-.707-.317-.707-.707 0-.39.317-.707.707-.707h5.655c.39 0 .707.316.707.707 0 .39-.316.707-.707.707zM13.431 26.155H.707c-.39 0-.707-.316-.707-.707 0-.39.316-.707.707-.707H13.43c.39 0 .707.317.707.707 0 .39-.317.707-.707.707zM4.948 13.431H.707c-.39 0-.707-.316-.707-.707 0-.39.316-.707.707-.707h4.241c.39 0 .707.317.707.707 0 .39-.316.707-.707.707zM24.741 17.672h-7.069c-.39 0-.706-.316-.706-.706 0-.39.316-.707.706-.707h7.07c.39 0 .706.316.706.707 0 .39-.316.706-.707.706zM9.19 21.914H.707c-.39 0-.707-.317-.707-.707 0-.39.316-.707.707-.707H9.19c.39 0 .707.316.707.707 0 .39-.317.707-.707.707zM12.017 34.638H9.19c-.39 0-.707-.317-.707-.707 0-.39.316-.707.707-.707h2.827c.39 0 .707.317.707.707 0 .39-.316.707-.707.707zM6.362 34.638H.707c-.39 0-.707-.317-.707-.707 0-.39.316-.707.707-.707h5.655c.39 0 .707.317.707.707 0 .39-.317.707-.707.707zM4.948 30.397H.707c-.39 0-.707-.317-.707-.707 0-.39.316-.707.707-.707h4.241c.39 0 .707.316.707.707 0 .39-.316.707-.707.707zM9.19 9.19H.707C.317 9.19 0 8.873 0 8.483c0-.39.316-.707.707-.707H9.19c.39 0 .707.316.707.707 0 .39-.317.707-.707.707zM12.017 30.397H7.776c-.39 0-.707-.317-.707-.707 0-.39.316-.707.707-.707h4.241c.39 0 .707.316.707.707 0 .39-.316.707-.707.707z" transform="translate(3.534)"/>
        </g>
        <circle cx="28.983" cy="31.81" r="9.19" fill="#F79539"/>
        <path fill="#E9EEF2" d="M33.931 31.103h-4.617l-3.323-3.987c-.25-.3-.695-.34-.995-.09-.3.25-.34.696-.09.996l3.534 4.24c.134.162.333.255.543.255h4.948c.39 0 .707-.316.707-.707 0-.39-.317-.707-.707-.707z"/>
    </g>
</svg>
