<svg xmlns="http://www.w3.org/2000/svg" xmlns:xlink="http://www.w3.org/1999/xlink" width="227" height="60" viewBox="0 0 227 60">
    <defs>
        <path id="prefix__a" d="M21.265 11.765c-5.579 3.387-9.833 10.685-9.833 22.608 0 1.037.012 1.956.034 2.77v19.583H0V6.09C0 2.836 2.557 0 5.774 0h19.054c11.877 0 18.064 6.423 18.064 18.27 0 11.178-6.022 18.268-17.24 18.268H14.107c-.8-2.637-.812-4.417-.812-4.417 3.567 1.715 7.752 3.156 12.828-1.076 5.077-4.232 3.98-12.644 3.773-17.79-.205-5.145 2.333-7.477 2.333-7.477-3.224-1.44-12.692-2.058-19.483 5.008-6.792 7.066-3.362 16.258-3.362 16.258C12.61 15.382 21.527 11.61 21.527 11.61z"/>
    </defs>
    <g fill="none" fill-rule="evenodd">
        <g transform="translate(0 .144)">
            <mask id="prefix__b" fill="#fff">
                <use xlink:href="#prefix__a"/>
            </mask>
            <use fill="#57AC1D" xlink:href="#prefix__a"/>
            <path fill="#388503" d="M11.716 40.85c.551 4.075 1.879 2.511 3.774 5.266 3.737 5.43 7.995 8.549 11.655 10.34 2.794 2.038 6.21 3.98 10.384 5.718l-5.471.824S20.61 60.772 14.425 46.57c-1.306-2.997-2.866-1.838-2.712-5.625l.003-.096zm1.579-8.729c.516.248 1.044.49 1.586.71-.114.975-.29 3.589.506 7.002-2.068-4.338-2.092-7.712-2.092-7.712zM30.832 7.912c3.477.212 6.329 1.279 7.721 2.257 0 0-2.937 1.805-3.716 6.895-.78 5.09-1.308 13.557-7.099 16.742-5.05 2.778-8.61 1.451-11.544-.502 2.895.898 6.167.877 9.93-2.259 5.076-4.232 3.978-12.644 3.772-17.79-.094-2.355.387-4.12.936-5.343z" mask="url(#prefix__b)"/>
        </g>
        <path fill="#57AC1D" d="M165.503 30.724c8.101 0 11.911 5.024 11.43 15.12H160.44c.24 3.95 1.929 5.95 5.063 5.95 1.495 0 2.894-.634 4.147-1.854.579-.634 1.302-.926 2.17-.926h4.726c-1.398 5.462-4.87 8.486-11.14 8.486-7.715-.244-11.573-4.78-11.573-13.558 0-8.78 3.906-13.169 11.67-13.218zm24.69 0c8.1 0 11.91 5.024 11.428 15.12H185.13c.241 3.95 1.929 5.95 5.063 5.95 1.495 0 2.894-.634 4.148-1.854.578-.634 1.301-.926 2.17-.926h4.725c-1.398 5.462-4.87 8.486-11.139 8.486-7.716-.244-11.574-4.78-11.574-13.558 0-8.78 3.906-13.169 11.67-13.218zm-124.944 0c7.041 0 10.61 2.341 10.754 7.121v8.779c0 7.12-4.243 10.29-11.14 10.779-6.124.487-10.367-2.39-10.367-8.097.145-6.194 4.58-7.852 11.043-8.486 2.749-.341 4.147-1.17 4.147-2.585-.144-1.463-1.495-2.194-4.147-2.194-2.267 0-3.52.585-3.858 1.804h-6.413c.77-4.78 4.098-7.12 9.981-7.12zm148.33 0c3.28 0 5.884.732 7.813 2.195 1.88 1.512 2.893 3.61 3.038 6.292h-4.05c-1.496-.049-2.46-.586-2.846-1.61-.434-1.122-1.736-1.756-3.858-1.756-2.507 0-3.761.683-3.761 2s1.64 2.341 4.967 2.975c4.34.878 7.185 2 8.584 3.317 1.205 1.268 1.784 2.828 1.784 4.584 0 6.34-4.919 8.681-11.67 8.681-3.569 0-6.27-.78-8.006-2.292-1.928-1.463-2.893-3.706-2.893-6.681h6.559c.144 2.828 2.17 3.804 5.304 3.804 2.7 0 4.051-.78 4.051-2.439 0-1.317-2.218-2.39-6.607-3.17-5.642-1.024-8.535-3.56-8.584-7.609 0-5.56 4.34-8.193 10.176-8.29zM49.579 23.75c1.687 0 3.086 1.463 3.086 3.17v29.995H46.25V23.75h3.328zm39.252 6.974c7.166 0 10.736 3.543 10.801 10.675v15.516h-3.278c-2.122-.147-3.183-1.17-3.183-3.22V40.43c-.145-2.683-1.592-4-4.437-4s-4.291 1.317-4.34 4v16.485h-6.51V41.747c0-7.365 3.665-11.023 10.947-11.023zm50.344-6.974v5.901h-9.694v27.264h-6.702V29.65h-9.693v-2.34c0-1.903 1.495-3.561 3.375-3.561h22.714zm13.068 7.365v6.73h-2.17c-3.569 0-5.353 1.902-5.353 5.658v13.412h-6.51V43.6c.193-8.34 4.581-12.485 13.117-12.485h.916zm-47.596-7.365c1.688 0 3.086 1.56 3.086 3.268v4.096h3.858v1.415c0 1.853-1.398 3.219-3.183 3.219h-.675v14.29c0 1.073.627 1.658 1.881 1.658h1.977v4.926c-2.073.195-4.34.195-6.75-.048-2.412-.244-3.57-1.756-3.521-4.634V23.75h3.327zM69.782 43.942c-1.494.634-3.23 1.17-5.111 1.56-2.556.488-3.858 1.707-3.858 3.61.145 2.048 1.205 3.023 3.231 3.023 3.568 0 5.738-2.146 5.738-5.804v-2.39zm95.625-7.901c-2.75 0-4.389 1.755-4.87 5.17h9.595c-.385-3.415-1.977-5.17-4.725-5.17zm24.689 0c-2.749 0-4.389 1.755-4.87 5.17h9.596c-.386-3.415-1.977-5.17-4.726-5.17z"/>
    </g>
</svg>
