<svg xmlns="http://www.w3.org/2000/svg" xmlns:xlink="http://www.w3.org/1999/xlink" width="236" height="164" viewBox="0 0 236 164">
    <defs>
        <path id="prefix__a" d="M0.146 0.372L69.487 0.372 69.487 24.614 0.146 24.614z"/>
        <path id="prefix__c" d="M0.04 0.331L28.89 0.331 28.89 55.104 0.04 55.104z"/>
        <path id="prefix__e" d="M0.103 0.207L21.523 0.207 21.523 80.64 0.103 80.64z"/>
        <path id="prefix__g" d="M0.117 0.297L44.955 0.297 44.955 63.483 0.117 63.483z"/>
        <path id="prefix__i" d="M0.129 0.036L34.526 0.036 34.526 48.719 0.129 48.719z"/>
    </defs>
    <g fill="none" fill-rule="evenodd">
        <path fill="#E7E7E7" d="M217.22 144.852c0 4.559-45.202 8.254-100.96 8.254-55.759 0-100.96-3.695-100.96-8.254 0-4.558 45.201-11.055 100.96-11.055 55.758 0 100.96 6.497 100.96 11.055"/>
        <path fill="#E7E7E7" d="M176.945 158.11c0 3.253-12.499 5.89-27.917 5.89-15.418 0-27.917-2.637-27.917-5.89 0-3.253 12.499-5.89 27.917-5.89 15.418 0 27.917 2.637 27.917 5.89"/>
        <path fill="#CAE6EA" d="M58.298 18.944l40.396 1.095s-3.588-4.782-6.434-3.486c0 0-.725-9.289-9.76-.223 0 0 .91-12.904-5.824-9.983-6.732 2.921-10.64 10.564-10.64 10.564s-.641-7.095-7.738 2.033"/>
        <g transform="translate(165.46 48.117)">
            <mask id="prefix__b" fill="#fff">
                <use xlink:href="#prefix__a"/>
            </mask>
            <path fill="#CAE6EA" d="M69.487 22.734L.146 24.614s6.158-8.21 11.044-5.985c0 0 1.244-15.945 16.755-.382 0 0-1.562-22.15 9.995-17.136 11.557 5.014 18.267 18.134 18.267 18.134s1.1-12.18 13.28 3.489" mask="url(#prefix__b)"/>
        </g>
        <path fill="#72C176" d="M2.073 90.115C.733 91.41-.064 93.397.004 95.26c.076 2.082 1.228 3.932 2.535 5.475 1.587 1.873 3.485 3.459 5.312 5.087 1.806 1.61 3.764 3.295 4.966 5.436.476.849.78 1.758.831 2.727-1.803.529-3.113 1.697-2.588 3.738.533 2.07 2.173 3.927 3.608 5.44 4.648 4.903 11.623 5.639 17.017 9.35-1.372 2.215-2.314 4.978-.862 7.394 1.426 2.373 4.343 3.528 6.877 4.232 3.721 1.034 7.643 1.326 11.491 1.315 3.927-.013 7.878-.356 11.727-1.154 2.057-.426 4.512-.945 6.512-2.022 20.096 2.948 44.29.11 50.128.523.553.038.542-.888.204-1.687 0 0-9.127.66-17.846 1.122-21.27 1.13-31.573-1.557-31.573-1.557.027-3.256-.696-7.508-2.02-10.477-1.3-2.915-3.203-5.58-5.646-7.638-2.1-1.769-4.842-2.75-6.784-4.7-2.11-2.12-3.19-5.27-4.694-7.809-1.818-3.071-3.965-5.968-6.69-8.292-2.702-2.305-5.641-3.607-9.112-4.236-2.661-.482-5.321-.849-7.795-2-4.106-1.911-8.005-4.233-12.286-5.761-3.409-1.216-8.267-2.519-11.243.35"/>
        <path fill="#6DB56E" d="M117.559 142.798c-5.837-.41-30.032 2.427-50.13-.521-1.999 1.079-4.453 1.597-6.511 2.022-3.608.747-7.305 1.094-10.988 1.147-13.175-10.466-16.619-35.205-17.242-48.044.235.039.474.082.709.125 3.472.629 6.41 1.93 9.114 4.234 2.725 2.326 4.869 5.221 6.689 8.294 1.503 2.537 2.582 5.689 4.694 7.808 1.941 1.951 4.684 2.93 6.781 4.699 2.444 2.058 4.35 4.724 5.65 7.64 1.32 2.97 2.043 7.222 2.019 10.477 0 0 10.3 2.684 31.57 1.555 8.723-.461 17.848-1.122 17.848-1.122.338.8.349 1.726-.203 1.686"/>
        <path fill="#87D689" d="M2.984 92.98c5.207 2.309 10.292 4.627 14.89 8.044 4.476 3.324 8.59 7.109 12.52 11.058 7.481 7.518 14.206 15.88 22.505 22.54 3.998 3.208 8.798 6.96 14.102 7.333.456.032.543-.678.085-.71-3.428-.24-6.324-1.95-9.135-3.808-2.841-1.878-5.505-4.017-8.037-6.293-5.223-4.695-9.855-9.992-14.68-15.085-4.62-4.878-9.387-9.65-14.643-13.844-5.345-4.265-11.13-7.145-17.345-9.9-.42-.186-.68.48-.262.665"/>
        <path fill="#5AAA60" d="M199.85 90.21c1.377-4.652 2.675-9.349 4.539-13.837 1.763-4.242 3.557-9.806 7.176-12.732.18-.144.109-.42-.133-.426-15.673-.447-30.612 9.862-39.559 22.476-4.502 6.347-7.57 13.474-10.935 20.452-2.732 5.665-5.749 11.406-10.176 15.942-2.292 2.348-20.46 6.601-20.197 9.063.216 2.018 13.095 5.03 17.128 4.841 8.289-.389 16.67-3.278 23.903-7.269 7.22-3.985 13.358-9.615 18.075-16.385 4.716-6.767 7.85-14.249 10.18-22.124"/>
        <path fill="#55A059" d="M165.697 131.603c-5.72 2.45-11.886 4.099-18.006 4.387-4.032.189-16.909-2.823-17.125-4.844-.264-2.461 17.905-6.712 20.195-9.061 4.428-4.536 7.446-10.278 10.176-15.944 3.365-6.976 6.434-14.102 10.938-20.45 1.967-2.77 4.22-5.433 6.71-7.89.328 11.985-.415 39.427-12.888 53.802"/>
        <path fill="#72C176" d="M204.744 67.686c-3.4 2.102-5.852 5.39-8.06 8.658-2.178 3.22-4.3 6.483-6.448 9.723-4.42 6.67-8.696 13.414-12.805 20.281-3.744 6.262-7.942 11.835-13.99 16.025-6.096 4.219-12.877 6.628-20.102 8.058-3.038.6-6.051.995-9.148 1.108-1.08.041-2.2.061-3.318.132-.186-.179-.292-.356-.309-.523-.008-.082.002-.162.032-.246.904-.065 1.815-.1 2.705-.132 3.93-.146 7.71-.63 11.565-1.472 7.418-1.623 14.319-4.503 20.33-9.212 6.48-5.072 10.309-12.163 14.481-19.093 4.176-6.927 8.772-13.604 13.235-20.345 3.233-4.888 6.288-10.481 11.407-13.637.439-.272.866.408.425.675"/>
        <path fill="#2E7EDD" d="M171.116 87.39c0 32.015-25.868 57.968-57.778 57.968S55.56 119.405 55.56 87.39c0-32.016 25.868-57.969 57.778-57.969s57.778 25.953 57.778 57.969"/>
        <path fill="#78C0C4" d="M97.75 114.934c-.218 1.526-2.373 1.878-3.14 3.204-.998 1.731.529 4.682-1.256 5.577-1.256.631-3.266-.53-3.946.704-.271.49-.106 1.1-.14 1.664-.138 2.15-2.94 2.859-4.349 4.484-.714.816-1.057 1.877-1.381 2.911-.318.995-.635 1.997-.952 2.992-2.135-1.347-4.178-2.832-6.115-4.444.33-2.082.873-4.152 1.07-6.255.06-.67.08-1.379-.237-1.97-.304-.576-.873-.947-1.355-1.379-2.036-1.81-2.684-4.802-2.314-7.507.37-2.7 1.6-5.2 2.816-7.641-1.606.192-3.51.272-4.515-.995-.39-.497-.582-1.134-1.011-1.598-1.051-1.141-2.883-.716-4.43-.69-3.635.06-7.046-3.037-7.35-6.672-.08-.942-.1-2.109-.945-2.513-.794-.379-1.415.172-2.043.882-.397-2.707-.595-5.479-.595-8.297 0-7.482 1.408-14.625 3.98-21.19 2.485.596 4.997.61 6.86-.996.708-.61 1.25-1.406 2.004-1.95.76-.543 1.884-.776 2.585-.159.37.325.548.816.78 1.247.78 1.46 2.386 2.434 4.032 2.448-.106 2.434-3.92 2.507-5.394 4.45-1.368 1.817.013 4.642 2.096 5.538.489.205 1.024.358 1.394.736.324.332.47.79.609 1.234.403 1.306.813 2.613 1.223 3.926l-.12-8.171c-.006-.345-.006-.703.133-1.022.555-1.3 2.65-.656 3.371.564.72 1.214.873 2.792 1.91 3.754 1.547 1.426 4.377.856 5.652 2.527.992 1.294.331 3.35-1.05 4.198-1.382.856-3.187.704-4.68.074-.675.51-.212 1.67.534 2.055.754.385 1.653.345 2.447.637.793.292 1.507 1.22 1.064 1.943-1.329.796-2.988 1.022-4.482.604-.384-.106-.787-.259-1.17-.146-1.018.285-.807 1.75-.72 2.805.25 3.005-3.094 5.704-5.97 4.815-1.124-.35-2.115-1.12-3.279-1.24-1.17-.12-2.552.995-2.042 2.05.991 2.075 3.265 3.62 5.46 2.964.608-.186 1.368-.444 1.805.026.297.312.27.803.323 1.234.192 1.526 1.646 2.627 3.147 2.958 1.494.338 3.054.093 4.581-.026 1.957-.153 4.072-.053 5.658 1.12 1.58 1.168 2.235 3.734.86 5.14 1.963.028 3.927.286 5.837.777 1.342.351 2.948 1.24 2.75 2.62"/>
        <path fill="#61D2D8" d="M111.361 37.277c-.74 2.871-3.827 4.662-4.568 7.534-.304 1.16-.191 2.401-.535 3.555-.608 2.043-2.545 3.436-3.352 5.412-.78 1.936-.37 4.119-.264 6.208.106 2.089-.29 4.49-2.05 5.61-1.288.823-2.994.723-4.322 1.48-1.587.895-2.294 2.752-3.207 4.33-.912 1.579-2.551 3.13-4.31 2.68l-.099-9.411c-.007-.637-.02-1.28-.198-1.884-.238-.815-.774-1.505-1.29-2.175-1.658-2.136-3.318-4.271-4.977-6.414-.152-.199-.31-.404-.536-.517-.925-.49-1.784.776-2.782 1.088-.668.212-1.382-.04-2.05-.24-3.774-1.146-7.946-.861-11.555.704 9.513-14.306 25.213-24.122 43.26-25.614 1.903 2.248 3.543 4.895 2.835 7.654M171.113 87.39c0 8.715-1.916 16.972-5.354 24.387-1.461-.749-2.704-1.863-3.43-3.322-.246-.484-.457-1.041-.927-1.32-.508-.306-1.156-.18-1.751-.239-2.869-.312-3.457-4.616-6.062-5.863-.377-.185-.806-.292-1.216-.212-1.25.245-1.594 1.95-2.684 2.606-1.369.83-3.074-.351-4.072-1.598-.998-1.254-2.043-2.792-3.642-2.878-1.316-.067-2.631.935-3.881.504-.463-.16-.866-.511-1.349-.578-1.256-.159-1.857 1.46-2.18 2.687-.325 1.234-1.608 2.66-2.586 1.85-.224-.186-.363-.458-.49-.716-1.103-2.262-2.207-4.523-3.304-6.785-.72-1.473-1.441-3.25-.622-4.676.629-1.1 1.957-1.565 2.863-2.46.899-.89.344-4.265-.892-4-1.653.358-3.306.717-4.958 1.068-1.144.245-2.473.451-3.359-.318-.277-.239-.482-.557-.76-.796-.674-.57-1.672-.584-2.505-.312-.84.266-1.573.776-2.353 1.194-1.56.83-3.332 1.273-5.097 1.194-.443-.02-.985-.16-1.085-.59-.033-.18.02-.372.087-.544.945-2.415 3.88-3.177 6.18-4.365 1.977-1.014 3.815-2.58 6.03-2.646.68-.02 1.367.113 2.042.033 1.771-.192 3.08-1.677 4.204-3.064.648-.796 1.527-1.558 2.168-2.354-.158-.882-.31-1.77-.47-2.653-.039-.219-.092-.458-.27-.584-.337-.252-.826.093-1.243.007-.635-.126-.66-1.048-1.07-1.552-.358-.438-1.012-.517-1.554-.372-.536.146-1.005.485-1.48.783-1.382.876-2.93 1.473-4.536 1.758-.568.106-1.309.08-1.547-.451-.099-.226-.073-.484-.006-.723.304-1.088 1.355-1.771 2.327-2.348 2.267-1.36 4.541-2.72 6.815-4.079 1.071-.643 2.287-1.313 3.504-1.041 1.434.325 2.842 2.135 4.27 1.77-.106.883-.053 1.778.139 2.64 2.095-.291 3.318-2.725 5.368-3.27 1.137-.298 2.327.04 3.503.094 1.177.06 2.558-.339 2.955-1.446.212-.597.08-1.267.212-1.897.456-2.262 3.622-2.573 5.189-4.265.88-.955 1.19-2.4.78-3.634-.126-.385-.317-.783-.211-1.174.079-.292.303-.51.528-.703.813-.703 1.692-1.34 2.618-1.884 9.42 10.314 15.164 24.05 15.164 39.137"/>
        <path fill="#61D2D8" d="M120.782 131.067c.468.347-.526 1.086-.055 1.428.472.341 1.139.244 1.66-.015.341-.17.65-.4.934-.654.376-.336.713-.715 1.048-1.092.36-.405.72-.811 1.082-1.216.985-1.108 2.002-2.274 2.38-3.71.307-1.165-.16-2.18.438-3.225-.384-.423-.059-1.148.442-1.42.5-.273 1.1-.266 1.656-.392 1.965-.445 3.21-2.865 2.436-4.73-.339-.815-.99-1.524-1.055-2.404-.1-1.374 1.213-2.36 2.247-3.264 1.034-.905 1.923-2.545.985-3.55-.707-.76-1.924-.547-2.948-.702-2.403-.363-3.864-2.933-4.237-5.342-.272-1.756-.476-3.999-2.163-4.539-1.04-.333-2.128.213-3.158.575-1.487.524-3.157.666-4.63.105-1.474-.562-2.694-1.914-2.833-3.489-1.235.522-2.614-.286-3.938-.072-1.197.192-1.989 1.336-3.065 1.898-1.232.644-2.805.501-3.926 1.324-1.441 1.058-1.491 3.16-1.403 4.948.014.276.032.566.18.799.175.275.492.415.77.584.844.513 1.428 1.433 1.534 2.417.05.454.007.933.198 1.348.256.554.856.846 1.41 1.095 1.944.871 4.015 1.763 6.124 1.476 1.233-.168 2.716-.658 3.557.264.182.2.313.454.544.593-.518.526-1.675 1.383-1.895 2.09-.074.236-.129.489-.077.732.12.563.73.843 1.242 1.105.87.443 1.67 1.086 2.128 1.952.457.865.522 1.975.008 2.808-.39.632-1.08 1.085-1.29 1.798 0 0 .179 7.891 3.67 10.477"/>
        <path fill="#FCFFFF" d="M56.612 76.331c.045-.233.093-.464.14-.696-.047.232-.095.463-.14.696M56.03 79.994c.037-.285.071-.57.111-.852-.04.283-.074.567-.11.852M56.253 78.414c.068-.443.142-.885.221-1.325-.079.44-.152.882-.22 1.325M55.861 81.478c.03-.292.06-.585.093-.876-.034.291-.063.584-.093.876M57.634 71.957c.054-.199.107-.397.164-.594-.057.197-.11.395-.164.594M56.913 74.874c.05-.226.1-.452.153-.676-.052.224-.104.45-.153.676M57.252 73.42c.053-.216.107-.432.163-.647-.056.215-.11.431-.163.648M55.579 85.98c.008-.343.022-.684.036-1.026-.014.342-.028.683-.036 1.026M79.2 134.156c-.322-.236-.64-.476-.955-.718.316.242.634.482.954.718M55.71 91.578c-.046-.647-.08-1.298-.104-1.952.025.654.058 1.304.104 1.952M82.53 136.433c-.987-.624-1.953-1.279-2.9-1.962.946.683 1.913 1.337 2.9 1.962M55.73 82.972c.022-.303.047-.605.074-.906-.027.301-.052.603-.075.906M58.093 70.373c.04-.134.08-.27.122-.404-.043.134-.081.27-.122.404M55.635 84.472c.016-.317.035-.633.056-.947-.02.315-.04.63-.056.947M77.8 133.096c-.42-.33-.835-.663-1.246-1.003.41.34.826.674 1.246 1.003"/>
        <path fill="#3E6CA3" d="M77.304 123.802c-.304-.577-.873-.948-1.355-1.38-2.036-1.81-2.684-4.802-2.314-7.507.37-2.7 1.6-5.2 2.816-7.641-1.606.192-3.51.272-4.515-.994-.39-.498-.582-1.135-1.011-1.6-1.051-1.14-2.882-.716-4.43-.689-3.635.06-7.046-3.037-7.35-6.672-.08-.942-.1-2.11-.945-2.513-.794-.379-1.415.172-2.043.882-.198-1.353-.347-2.722-.446-4.105 1.157 16.248 8.989 30.642 20.76 40.44.331-2.082.873-4.15 1.071-6.251.06-.67.08-1.38-.238-1.97"/>
        <path fill="#FCFFFF" d="M55.577 86.115c-.01.425-.018.849-.018 1.276 0 .67.016 1.338.038 2.003-.022-.665-.035-1.333-.035-2.003 0-.427.006-.852.015-1.276"/>
        <path fill="#3E6CA3" d="M66.403 65.205c.707-.61 1.25-1.406 2.003-1.95.76-.543 1.884-.775 2.585-.159.37.325.549.816.78 1.247.78 1.46 2.386 2.434 4.032 2.448-.105 2.433-3.92 2.506-5.394 4.45-1.368 1.817.013 4.643 2.096 5.538.489.206 1.024.358 1.395.736.323.331.469.79.608 1.233.403 1.307.813 2.614 1.222 3.926l-.118-8.17c-.007-.345-.007-.703.132-1.022.555-1.3 2.65-.656 3.371.564.72 1.214.873 2.793 1.91 3.754.342.315.747.53 1.183.695-3.142-8.163-4.847-16.486-5.712-24.052-3.688-1.035-7.724-.726-11.23.794 2.939-4.42 6.47-8.41 10.476-11.858v-.008c-7.11 6.118-12.714 13.94-16.196 22.83 2.484.596 4.994.608 6.857-.996M131.266 120.4c-.278.168-.577.298-.9.371-.555.126-1.155.12-1.655.392-.501.273-.826.998-.442 1.42-.598 1.045-.13 2.06-.438 3.226-.378 1.435-1.394 2.6-2.38 3.709l-1.082 1.216c-.336.377-.672.755-1.048 1.091-.285.255-.593.485-.935.655-.52.26-1.187.357-1.659.015-.471-.342.523-1.081.055-1.428-3.492-2.586-3.67-10.477-3.67-10.477.21-.713.9-1.166 1.29-1.798.429-.696.45-1.582.181-2.36-16.916-6.953-27.308-18.748-33.61-31.59-1.266.48-2.758.291-4.027-.243-.674.51-.211 1.67.536 2.055.753.385 1.652.345 2.446.637.793.292 1.507 1.22 1.064 1.943-1.329.796-2.988 1.022-4.482.604-.384-.106-.786-.259-1.17-.146-1.018.285-.807 1.75-.72 2.805.25 3.005-3.095 5.704-5.97 4.815-1.124-.35-2.115-1.12-3.279-1.24-1.17-.12-2.551.995-2.043 2.05.992 2.075 3.266 3.62 5.461 2.964.608-.186 1.368-.444 1.804.026.298.312.271.803.324 1.235.192 1.525 1.646 2.626 3.147 2.958 1.494.337 3.054.092 4.581-.027 1.957-.153 4.072-.054 5.659 1.12 1.58 1.168 2.234 3.735.86 5.14 1.963.027 3.926.286 5.836.777 1.342.351 2.948 1.24 2.75 2.62-.218 1.525-2.373 1.877-3.14 3.203-.998 1.731.529 4.682-1.256 5.578-1.256.63-3.266-.53-3.946.703-.271.49-.106 1.1-.139 1.664-.14 2.15-2.942 2.859-4.35 4.484-.714.816-1.057 1.877-1.382 2.912l-.951 2.99c8.906 5.628 19.449 8.887 30.752 8.887 18.592 0 35.134-8.81 45.7-22.499-10.513.274-19.712-.632-27.772-2.456"/>
        <path fill="#FCFFFF" d="M59.145 67.248c.07-.188.142-.376.213-.563-.071.187-.143.374-.213.563M58.657 68.619c.056-.165.116-.328.173-.492-.057.164-.117.327-.173.492"/>
        <path fill="#78C0C4" d="M55.615 84.954c.007-.16.012-.322.02-.482-.008.16-.013.321-.02.482M55.577 86.115c0-.045 0-.09.002-.135l-.002.135M55.804 82.066l.057-.588c-.02.196-.04.392-.057.588M55.69 83.524l.04-.552-.04.552M82.586 136.47v-.002l-.055-.035.055.037M55.606 89.626l-.009-.232.009.232M76.47 132.026c.028.023.057.044.084.067l-.083-.07v.003M58.215 69.969c.141-.452.29-.902.442-1.35-.153.448-.3.898-.442 1.35M55.71 91.583v-.006.006M79.63 134.47c-.144-.103-.287-.209-.43-.314l.43.315M78.245 133.438c-.148-.114-.297-.227-.444-.343.147.116.296.229.444.343M59.541 66.2c-.062.161-.122.324-.183.485.061-.162.125-.323.188-.484h-.005M57.415 72.773c.07-.273.145-.545.219-.817-.074.272-.148.544-.22.817M56.753 75.635c.052-.254.104-.508.16-.76-.056.252-.108.506-.16.76M57.798 71.363c.095-.332.194-.66.295-.99-.1.33-.2.658-.295.99M58.83 68.127c.103-.294.207-.588.315-.88-.108.292-.212.586-.315.88M56.474 77.09c.045-.254.09-.507.138-.759-.048.252-.093.505-.138.758M57.066 74.197c.06-.259.122-.518.186-.776-.064.258-.126.517-.186.776M56.141 79.142c.035-.243.075-.485.112-.728-.037.243-.077.485-.112.728M55.954 80.602c.024-.203.05-.406.077-.609-.026.203-.053.406-.077.609"/>
        <path fill="#55C2C8" d="M84.92 130.567c1.407-1.625 4.21-2.335 4.35-4.484.032-.563-.133-1.174.138-1.664.68-1.234 2.69-.073 3.946-.704 1.785-.895.258-3.846 1.256-5.577.767-1.327 2.922-1.678 3.14-3.203.198-1.38-1.408-2.269-2.75-2.62-1.91-.491-3.873-.75-5.837-.776 1.375-1.406.72-3.973-.86-5.14-1.586-1.174-3.701-1.274-5.658-1.121-1.527.12-3.087.364-4.58.026-1.502-.331-2.956-1.432-3.148-2.958-.052-.43-.026-.922-.323-1.233-.436-.471-1.197-.213-1.805-.026-2.195.656-4.469-.89-5.46-2.965-.51-1.055.872-2.17 2.042-2.05 1.164.12 2.155.889 3.279 1.24 2.876.89 6.22-1.81 5.97-4.814-.087-1.055-.298-2.52.72-2.806.384-.113.786.04 1.17.146 1.494.418 3.153.192 4.482-.604.443-.723-.271-1.651-1.064-1.943-.794-.292-1.693-.252-2.446-.637-.747-.384-1.21-1.545-.535-2.056 1.268.535 2.76.723 4.027.245-1.028-2.094-1.945-4.216-2.766-6.348-.436-.166-.841-.38-1.182-.695-1.038-.961-1.19-2.54-1.91-3.754-.721-1.22-2.817-1.863-3.372-.564-.139.32-.139.677-.133 1.022l.12 8.17c-.41-1.312-.82-2.62-1.223-3.926-.14-.444-.285-.901-.609-1.233-.37-.378-.905-.53-1.394-.737-2.083-.895-3.464-3.72-2.096-5.537 1.474-1.944 5.288-2.016 5.394-4.45-1.645-.014-3.252-.989-4.032-2.448-.232-.43-.41-.922-.78-1.247-.701-.616-1.825-.384-2.585.16-.753.543-1.296 1.34-2.003 1.95-1.863 1.603-4.373 1.591-6.857.995l-.188.484c-.071.187-.143.375-.213.563-.108.292-.212.585-.315.879-.057.164-.117.327-.173.492-.153.447-.3.897-.442 1.35-.043.134-.081.27-.122.404-.1.329-.2.658-.295.99-.057.197-.11.396-.164.594-.075.271-.149.543-.219.816-.056.215-.11.432-.163.648-.064.258-.126.517-.186.776-.052.225-.104.451-.153.677-.056.253-.108.507-.16.76-.048.233-.097.464-.141.697-.049.252-.093.505-.138.758-.079.44-.152.882-.22 1.325-.038.243-.078.485-.113.728-.04.283-.074.567-.11.852-.026.202-.053.405-.077.608-.033.291-.063.584-.093.876-.02.196-.04.392-.057.588-.027.301-.052.603-.075.906l-.038.553c-.02.314-.04.63-.056.947-.008.16-.013.321-.02.482-.014.342-.028.682-.036 1.026l-.002.135c-.01.424-.015.85-.015 1.275 0 .671.013 1.339.035 2.004l.01.232c.023.653.057 1.305.103 1.952v.005c.1 1.383.249 2.752.447 4.105.628-.71 1.25-1.26 2.043-.883.846.405.866 1.572.945 2.514.304 3.634 3.715 6.732 7.35 6.672 1.548-.027 3.379-.45 4.43.69.43.464.621 1.1 1.011 1.599 1.005 1.266 2.909 1.187 4.515.994-1.216 2.44-2.446 4.94-2.816 7.64-.37 2.706.278 5.698 2.314 7.508.482.432 1.05.803 1.355 1.38.317.59.297 1.3.238 1.97-.198 2.101-.74 4.169-1.07 6.25l.082.071c.41.34.826.674 1.246 1.003l.445.342c.316.242.633.481.954.718l.431.315c.947.683 1.913 1.338 2.9 1.963l.056.034.952-2.99c.324-1.034.667-2.096 1.381-2.911"/>
        <path fill="#69AFAF" d="M65.266 55.237c3.506-1.52 7.542-1.829 11.23-.793-.45-3.937-.676-7.67-.754-11.065-4.007 3.45-7.537 7.438-10.476 11.858M118.402 118.792c-.39.632-1.08 1.085-1.29 1.798 0 0 .179 7.891 3.67 10.477.468.347-.526 1.086-.055 1.428.472.341 1.138.244 1.66-.015.34-.17.65-.4.934-.655.376-.336.713-.714 1.048-1.09.36-.406.72-.812 1.082-1.217.986-1.108 2.002-2.274 2.38-3.71.307-1.164-.16-2.18.437-3.225-.383-.423-.058-1.147.443-1.42.5-.273 1.1-.266 1.656-.392.321-.073.621-.203.899-.37-4.59-1.04-8.809-2.376-12.683-3.968.269.778.247 1.663-.181 2.359"/>
        <path fill="#5AAA60" d="M29.908 97.39c-1.076-4.732-2.07-9.502-3.644-14.1-1.487-4.348-2.921-10.016-6.346-13.168-.17-.157-.081-.427.161-.418 15.669.564 29.917 11.815 38.038 24.98 4.086 6.623 6.692 13.934 9.603 21.114 2.364 5.829 5.007 11.752 9.135 16.565 2.136 2.49 19.995 7.905 19.575 10.345-.345 2-13.39 4.176-17.402 3.727-8.248-.921-16.427-4.344-23.389-8.794-6.95-4.442-12.715-10.456-16.99-17.516-4.272-7.057-6.92-14.725-8.741-22.734"/>
        <path fill="#55A059" d="M96.431 142.707c-.216 1.243-5.327 2.554-10.131 3.26-9.664-4.062-19.887-14.38-25.091-28.899-5.551-15.482-13.233-30.302-17.765-38.506 5.887 4.395 10.931 10.057 14.672 16.12 4.088 6.624 6.694 13.937 9.603 21.115 2.366 5.83 5.008 11.753 9.137 16.564 2.134 2.49 19.995 7.908 19.575 10.346"/>
        <path fill="#72C176" d="M26.467 74.597c3.258 2.317 5.495 5.757 7.488 9.16 1.967 3.354 3.877 6.747 5.813 10.118 3.984 6.94 7.819 13.946 11.48 21.065 3.336 6.49 7.168 12.322 12.936 16.892 5.813 4.604 12.426 7.444 19.544 9.338 2.993.794 5.975 1.383 9.058 1.694 1.075.11 2.19.204 3.303.346.197-.166.315-.337.342-.502.013-.08.008-.162-.017-.247-.898-.124-1.804-.217-2.69-.306-3.913-.4-7.655-1.125-11.446-2.214-7.3-2.098-14.002-5.416-19.7-10.504-6.142-5.48-9.509-12.802-13.23-19.986-3.723-7.182-7.882-14.141-11.903-21.156-2.915-5.086-5.605-10.865-10.511-14.343-.42-.3-.89.35-.467.645M125.645 112.084c-.208-1.646-1.64-2.77-3.099-3.307-3.64-1.342-7.858-.308-11.071 1.614-2.946 1.763-5.88 4.492-7.102 7.761-.746-3.396-1.748-6.719-3.013-9.898-1.514-3.806-3.987-8.722-8.25-9.983-3.35-.99-5.761 2.811-3.226 5.353 1.113 1.117 2.638 1.028 3.626 2.28.98 1.243.474 2.431 1.05 3.8 1.1 2.621 5.462 3.84 5.71 4.236 1.323 2.112-2.15 4.592 3.046 6.595 0 0 2.521 2.331 1.392 20.822-.032.515.73.613.793.1.854-7.051.597-14.456-.779-21.589.038-.203 3.885.501 4.726-.655 1.193-1.642.266-2.139.403-2.317.485-.627 1.16-.403 1.907-.198.877.24 1.749.57 2.67.367.738-.162 1.241-.558 1.63-1.192.243-.394.367-.847.524-1.279.375-1.029 1.444-1.44 2.465-.929 1.497.75 2.17 2.404 4.12 1.941 1.543-.366 2.68-1.939 2.478-3.522"/>
        <path fill="#2D2D66" d="M112.227 144.167c-1.292-.822-2.697-1.535-3.885-2.506-.874-.715-1.545-1.818-2.737-1.767-6.539.281-12.283 4.278-11.788 4.41 2.753.734 9.42 1.392 12.301 1.446 1.877.036 5.627.777 7.22-.392.194-.143-.895-1.054-1.111-1.191"/>
        <path fill="#55A059" d="M103.93 118.775c-1.15-2.992-1.93-6.051-3.456-8.894-1.436-2.678-3.216-5.204-5.388-7.334-.184-.18-.467.103-.283.284 2.15 2.106 3.906 4.602 5.327 7.253 1.507 2.813 2.277 5.838 3.414 8.798.092.238.478.135.386-.107M116.673 110.615c-4.879 1.078-8.673 4.958-11.978 8.473-.177.187.105.471.282.283 3.262-3.468 6.99-7.306 11.802-8.369.251-.055.145-.442-.106-.387"/>
        <path fill="#363370" d="M113.337 145.357c-1.59 1.171-5.34.429-7.218.393-2.882-.056-9.548-.714-12.302-1.447-.287-.077 1.527-1.452 4.377-2.65 3.149 1.158 8.293 2.597 12.825 1.78.407.24.811.48 1.207.733.216.137 1.307 1.05 1.11 1.191M106.266 141.923c.015.27-.567.522-1.3.562-.733.041-1.34-.145-1.355-.414-.015-.27.568-.522 1.3-.563.734-.04 1.34.145 1.355.415"/>
        <path fill="#363370" d="M108.576 143.374c.015.27-.567.522-1.3.562-.733.04-1.34-.145-1.355-.415-.015-.27.567-.522 1.3-.562.734-.041 1.34.145 1.355.415M102.167 142.073c-.061.18-.539.178-1.067-.002-.528-.18-.907-.474-.846-.653.062-.18.54-.179 1.067.002.529.18.907.473.846.653"/>
        <path fill="#E9FBFF" d="M73.163 109.889l.853 2.172s-4.918 4.236-8.969 2.702c-4.307-1.631-3.704-9.122-3.704-9.122l2.3-3.378s.459 5.484 2.639 7.671c2.18 2.187 6.881-.045 6.881-.045"/>
        <path fill="#2A2C55" d="M62.756 147.596c.325.325 7.505.857 7.88.548 1.055-.868-2.28-2.806-4.391-3.25l-3.283-.161s-.712 2.355-.206 2.863M43.434 145.95c1.028.333 1.016-6.357 1.016-6.357l-1.037-2.585s-2.552-.116-2.845.639c-.34.876 1.053 7.716 2.866 8.303"/>
        <path fill="#2D2D66" d="M43.413 137.008l1.056 2.746s4.85-1.033 10.497-5.724c4.62-3.84 5.146-6.286 5.788-9.462 1.088-5.39.844-8.63.844-8.63l-9.88 3.057s1.262 5.437 0 7.948c-.45.895-1.84 5.766-8.305 10.065"/>
        <path fill="#363370" d="M62.962 144.733l3.283.16s6.409-13.883 4.226-18.908c-2.182-5.026-7.862-11.469-7.862-11.469l-7.235-1.489s-5.666 3.764-2.926 8.025c1.713 2.662 8.817 5.41 10.16 7.41 1.3 1.935 1.954 11.315.354 16.27"/>
        <path fill="#78C0C4" d="M63.54 103.655s-.107 7.779-.107 10.27c0 0-1.522-5.2.107-10.27"/>
        <path fill="#E9FBFF" d="M54.966 101.368c1.472-1.477 7.061-1.017 8.54.467.75.752-1.79 6.952.485 14.326 0 0-3.023 3.434-12.291 1.584 0 0 .547-13.649 3.266-16.377"/>
        <path fill="#F0B499" d="M67.529 119.313s3.048 2.578 2.496 3.02c-.382.305-1.038-.773-1.038-.773s2.097 2.451.439 3.405c-.87.501-.522-.917-1.76-2.16-.81-.813-1.42-1.631-1.42-1.631l1.283-1.86zM73.163 109.91s1.874-2.123 3.638-2.197c.474-.02 1.272 2.339-.09 3.122-1.272.732-2.695 1.247-2.695 1.247l-.853-2.172z"/>
        <path fill="#F6BE00" d="M81.962 107.219L76.056 116.346 81.428 120.633 86.819 112.039z"/>
        <path fill="#F6BE00" d="M90.878 118.93L91.085 120.209 81.428 120.633 82.968 117.96zM81.862 106.515L80.938 107.68 86.972 113.641 88.076 112.247zM81.248 109.688s-1.02-6.18-4.134-3.74c-3.114 2.439-2.298 9.277.06 9.784l1.373-.802s-2.277-1.447-2.253-3.109c.027-1.846.53-5.39 2.46-4.684 1.929.705 1.342 4.4 1.342 4.4l1.152-1.85z"/>
        <path fill="#F0B499" d="M66.306 95.287s-.474 5.325-1.708 5.752c-1.235.427-3.126-.748-3.126-.748l-.91 1.078s1.409 3.31-1.013 3.09c-1.861-.17-1.32-3.995-1.32-3.995l1.239-2.299s-.186-4.093 1.848-4.795c2.033-.703 4.99 1.917 4.99 1.917"/>
        <path fill="#35354C" d="M62.392 94.139s2.696 3.591 6.421.322c0 0-1.949.116-3.28-1.605-.88-1.14-4.258-3.116-6.225-1.388-4.733 4.155-.422 6.626-.862 8.594 0 0 1.095-.301 2.515-3.223.335-.687 1.43-2.7 1.43-2.7"/>
        <path fill="#F0B499" d="M61.56 96.641s-.358-1.832-1.449-1.123c-1.367.888.258 2.54.258 2.54l1.192-1.417z"/>
        <path fill="#78C0C4" d="M54.966 101.368s1.467.576 1.298 4.066c-.15 3.084-.063 6.45.445 7.339 2.474 4.321 6.502 4.003 6.502 4.003s-5.159-2.856-5.783-4.339c-.833-1.979-.786-5.7-.732-7.623.086-3.01-1.73-3.446-1.73-3.446"/>
        <path fill="#F0B499" d="M73.163 109.91s3.08-2.981 3.42-2.173c.282.674-2.567 2.512-2.567 2.512l-.853-.34z"/>
        <path fill="#78C0C4" d="M53.542 106.796s-2.822 9.005 3.78 11.268c0 0-4.772-2.126-3.78-11.268"/>
        <path fill="#E9FBFF" d="M54.785 102.263c-2.055 2.727-2.458 11.235-.027 13.675 3.414 3.426 6.933 4.406 11.487 5.236.415.075 1.743-1.496 1.284-1.861-3.409-2.702-9.563-4.286-10.46-6.493-.872-2.144-.558-6.513-.808-8.558-.32-2.62-1.102-2.495-1.476-2"/>
        <path fill="#78C0C4" d="M96.832 124.206c-.86-1.772-1.926-3.848-3.879-4.577-.606-.227-.868.25-.267.476 1.65.616 2.56 3.128 3.278 4.61.283.583 1.15.072.868-.509M97.26 130.121c-.79-2.58-1.827-5-3.442-7.174-.381-.515-.733-.266-.346.255 1.563 2.105 2.055 4.687 2.818 7.187.19.618 1.16.355.97-.268M99.268 132.01c-.43-1.995-1.254-3.827-2.123-5.662-.276-.586-.652-.229-.376.354.833 1.762 1.118 3.663 1.53 5.576.137.634 1.106.366.969-.267"/>
        <path fill="#FCFFFF" d="M64.408 99.653s-.492.71-.977.583c-.29-.077-.723-.405-.509-1.127 0 0 .882.64 1.486.544"/>
        <path fill="#E0A289" d="M64.44 96.521s.518 1.638.233 2.128c-.284.49-1.037.254-1.037.254s.618-.148.71-.363c.289-.679.094-2.019.094-2.019M60.219 95.824s.866.111.686.718c0 0-.96-.67-.886-.043.073.627.448.72.448.72s-.547-.75-.179-.75c.374-.002.487.362.658.306.284-.093.288-.982-.727-.951"/>
        <path fill="#35354C" d="M63.43 96.338c-.056.185-.007.362.107.396.115.035.252-.087.307-.272.054-.185.006-.363-.109-.397-.114-.034-.251.089-.306.273M65.09 96.682c-.062.185-.025.372.084.417.11.045.249-.067.311-.252.063-.185.025-.372-.084-.417-.109-.046-.248.067-.31.252"/>
        <path fill="#E0A289" d="M61.472 100.291s-.816-.534-1.117-1.188c0 0 .194 1.485.558 1.85l.559-.662z"/>
        <path fill="#78C0C4" d="M83.13 112.43s-4.074 1.865-3.187 2.851c2.152 2.394 2.906-1.819 3.186-2.851"/>
        <path fill="#E5AB05" d="M81.313 108.051L86.257 112.935 85.635 113.926 81.121 108.518z"/>
        <path fill="#F0B499" d="M77.074 107.987s-.203.223-.422.395c-.596.466-.982.503-.982.73 0 .343.526.185.526.185s-.713.175-.59.598c.054.187.651-.045.651-.045s-.53.163-.447.516c.068.288.573.08.573.08s-.702.235-.468.47c.234.234.687-.019 1.084-.297.294-.206.968-1.586.075-2.632"/>
        <path fill="#E0A289" d="M75.256 109.364s-.03.766-.709 1.306c0 0 .39-.782.71-1.306M76.196 109.297s.841-.29 1.131-.695c0 0-.842.501-1.131.695M76.257 109.85s.912-.136 1.257-.79c0 0-.327.365-1.257.79M76.383 110.447s.702-.219 1.047-.733c0 0-.686.46-1.047.733"/>
        <path fill="#2D2D66" d="M127.534 16.215s1.56-.326 4.423.562c0 0-.065-2.53 2.308-3.787 0 0-2.95-.372-2.877 2.972 0 0-3.523-1.813-3.854.253M106.685 21.698s1.503-.529 4.457-.025c0 0-.395-2.5 1.793-4.058 0 0-2.973.02-2.463 3.325 0 0-3.73-1.333-3.787.758M146.237 40.797s1.009-.355 2.992-.017c0 0-.265-1.678 1.204-2.724 0 0-1.996.014-1.654 2.232 0 0-2.503-.895-2.542.51M169.016 45.056s1.009-.355 2.992-.017c0 0-.266-1.678 1.203-2.724 0 0-1.995.014-1.653 2.232 0 0-2.504-.895-2.542.51M39.67 61.02s1.008-.355 2.991-.017c0 0-.265-1.678 1.204-2.723 0 0-1.996.013-1.654 2.231 0 0-2.503-.894-2.542.51M107.712 12.953s1.009-.355 2.993-.017c0 0-.266-1.678 1.202-2.724 0 0-1.995.014-1.653 2.232 0 0-2.503-.895-2.542.509M83.023 2.976s1.01-.355 2.992-.017c0 0-.265-1.678 1.204-2.724 0 0-1.996.014-1.654 2.232 0 0-2.504-.895-2.542.51M87.596 23.069s1.01-.355 2.992-.017c0 0-.265-1.679 1.204-2.724 0 0-1.996.013-1.654 2.231 0 0-2.503-.894-2.542.51M54.892 22.407s1.009-.355 2.992-.017c0 0-.266-1.678 1.203-2.724 0 0-1.995.014-1.654 2.232 0 0-2.503-.895-2.541.509M95.96 33.158s1.503-.529 4.457-.025c0 0-.395-2.5 1.793-4.058 0 0-2.973.02-2.463 3.325 0 0-3.73-1.333-3.788.758M131.51 23.895s1.394-.774 4.39-.774c0 0-.807-2.398 1.09-4.302 0 0-2.927.52-1.873 3.692 0 0-3.9-.687-3.607 1.384M122.176 38.336s1.548-.377 4.439.416c0 0-.148-2.527 2.183-3.86 0 0-2.96-.275-2.778 3.064 0 0-3.581-1.695-3.844.38"/>
        <g>
            <g transform="translate(152 79) translate(0 25.537)">
                <mask id="prefix__d" fill="#fff">
                    <use xlink:href="#prefix__c"/>
                </mask>
                <path fill="#71CE67" d="M.06 9.418c.645 10.536 16.347 23.47 21.574 34.305 2.863 5.937 4.283 10.075 5.091 12.323l.215.596 1.194-.072c.155-1.21.398-3.45.564-6.382.091-1.578.16-3.357.182-5.286.02-1.56.01-3.213-.044-4.937-.083-2.66-.268-5.484-.598-8.366-.696-6.02-2.036-12.298-4.458-17.895C15.955-4.397.211-2.085.042 8.596c-.004.273.002.546.019.822" mask="url(#prefix__d)"/>
            </g>
            <path fill="#272F4D" d="M28.364 78.75c-.095 0-.18-.068-.197-.165C24.957 60.37 9.682 36.19 9.528 35.948c-.06-.093-.03-.216.063-.275.094-.058.219-.03.277.062.155.243 15.47 24.49 18.695 42.781.02.109-.054.212-.164.23-.011.003-.023.004-.035.004" transform="translate(152 79)"/>
            <g transform="translate(152 79) translate(24.54)">
                <mask id="prefix__f" fill="#fff">
                    <use xlink:href="#prefix__e"/>
                </mask>
                <path fill="#3B8A5A" d="M.706 82.737c-.008.069-.017.134-.026.193.024-.063.046-.13.07-.195l2.946-.177c1.283-1.988 2.76-4.54 4.277-7.504.417-.812.835-1.654 1.256-2.527.11-.23.221-.462.33-.697.478-1.006.956-2.05 1.427-3.123.531-1.21 1.056-2.455 1.565-3.737.485-1.21.959-2.45 1.416-3.711 1.054-2.916 2.018-5.951 2.826-9.049.116-.43.223-.861.331-1.294.719-2.92 1.415-6.123 2.031-9.457C22.683 22.416 23.66-.88 12.042.247-1.612 1.569 2.835 27.2 3.399 48.617c.113 4.3-.008 8.405-.267 12.219-.15 2.224-.345 4.349-.57 6.357-.167 1.495-.35 2.926-.54 4.287-.244 1.748-.5 3.378-.752 4.875-.35 2.081-.692 3.905-.98 5.432-.064.345-.126.673-.187.987l.603-.037z" mask="url(#prefix__f)"/>
            </g>
            <path fill="#272F4D" d="M27.347 80.078c-.03 0-.06-.007-.09-.02-.099-.05-.14-.17-.091-.268 10.079-20.356 9.277-66.694 9.268-67.16-.002-.11.086-.2.197-.204.091-.007.203.086.205.196.01.467.813 46.9-9.309 67.344-.035.07-.106.112-.18.112" transform="translate(152 79)"/>
            <g transform="translate(152 79) translate(24.943 17.158)">
                <mask id="prefix__h" fill="#fff">
                    <use xlink:href="#prefix__g"/>
                </mask>
                <path fill="#72C176" d="M.691 66.604c-.032.055-.062.107-.092.155l.134-.141 2.803.915c1.882-1.222 4.137-2.854 6.575-4.82.669-.539 1.35-1.102 2.043-1.69.18-.156.365-.312.549-.472.792-.681 1.597-1.394 2.406-2.135.913-.833 1.833-1.7 2.75-2.604.87-.851 1.74-1.732 2.6-2.638 1.99-2.092 3.937-4.32 5.76-6.655.256-.323.505-.65.755-.978 1.678-2.218 3.434-4.684 5.16-7.29C42 23.369 50.964 3.955 39.759.71 26.592-3.106 21.87 20.252 14.993 38.626c-1.382 3.69-2.913 7.13-4.473 10.271-.908 1.833-1.825 3.566-2.729 5.188-.672 1.208-1.337 2.356-1.984 3.443-.831 1.394-1.633 2.684-2.385 3.864-1.045 1.64-1.994 3.063-2.79 4.255-.18.27-.35.525-.515.769l.574.187z" mask="url(#prefix__h)"/>
            </g>
            <g transform="translate(152 79) translate(25.345 31.921)">
                <mask id="prefix__j" fill="#fff">
                    <use xlink:href="#prefix__i"/>
                </mask>
                <path fill="#272F4D" d="M.33 52.054c-.073 0-.143-.04-.179-.108-.05-.098-.012-.218.087-.269C15.783 43.724 33.958.594 34.139.16c.043-.102.16-.15.263-.108.103.042.151.16.109.261-.182.436-18.414 43.7-34.089 51.72-.03.015-.061.022-.092.022" mask="url(#prefix__j)"/>
            </g>
        </g>
        <g>
            <path fill="#2D3962" d="M14.306 34.659s18.163-.052 19.974 2.653c1.81 2.706.283 17.44.283 17.44l-4.672.123-1.77-11.426s-6.035.995-10.82.995c-4.783 0-2.995-9.785-2.995-9.785" transform="translate(128 98)"/>
            <path fill="#EDB15B" d="M35.164 54.404l-5.892-.368.008 7.444 10.308.158s.362-2.606-1.981-3.06c-2.025-.392-3.006-.386-3.006-.386l.563-3.788z" transform="translate(128 98)"/>
            <path fill="#272F4D" d="M39.495 61.091h-.004l-10.09-.28c-.074-.001-.132-.063-.13-.136.002-.074.05-.121.137-.13l10.09.28c.074.003.132.064.13.137-.002.072-.06.13-.133.13M39.428 60.518h-.004l-10.006-.28c-.073-.003-.132-.064-.13-.138.003-.072.062-.129.134-.129h.004l10.006.281c.073.002.132.064.13.137-.002.072-.061.13-.134.13M34.95 55.345h-.01l-5.708-.36c-.074-.004-.13-.068-.125-.14.004-.074.07-.137.141-.125l5.71.36c.073.004.129.067.124.14-.004.07-.063.125-.133.125M34.782 56.395c.073.378.221 1.115.473 1.245.03.016.075.03.149-.004.108-.048.152-.115.145-.222-.018-.31-.45-.786-.767-1.02m.538 1.528c-.065 0-.128-.015-.188-.046-.343-.177-.493-.817-.617-1.456-.02-.103-.037-.19-.052-.25-.012-.047.003-.097.038-.13.036-.033.085-.044.131-.03.35.11 1.151.852 1.184 1.388.013.217-.095.387-.302.48-.066.03-.13.044-.194.044" transform="translate(128 98)"/>
            <path fill="#272F4D" d="M34.373 56.294c-.302.273-.714.841-.684 1.157.007.073.036.15.206.177.07.01.125-.003.174-.041.22-.176.266-.783.296-1.186l.008-.107m-.432 1.603c-.029 0-.058-.002-.087-.007-.346-.053-.418-.282-.43-.413-.053-.554.718-1.454 1.07-1.579.046-.016.096-.006.133.025.036.032.052.08.042.128-.016.079-.026.214-.038.37-.035.475-.084 1.126-.396 1.374-.086.068-.185.102-.294.102" transform="translate(128 98)"/>
            <path fill="#2D3962" d="M23.847 60.073C21.999 63.21 6.483 56.22 6.483 56.22l1.439-4.486 6.53 1.208S2.154 43.78 3.652 35.322l11.907.177s11.308 19.449 8.287 24.574" transform="translate(128 98)"/>
            <path fill="#FFF" d="M22.133 48.176c-.038 0-.076-.021-.093-.058-1.74-3.59-3.751-7.104-3.771-7.14-.029-.05-.012-.112.039-.14.048-.029.113-.013.142.038.02.035 2.035 3.554 3.777 7.151.026.052.004.114-.048.139-.015.007-.03.01-.046.01" transform="translate(128 98)"/>
            <path fill="#F4B04E" d="M19.621 22.427c-.746-3.657-2.117-8.833-4.973-8.996-1.768-.1-4.4-.589-6.298 3.194-3.608 7.19-5.363 19.526-5.363 19.526l17.976-.83s-.279-7.687-1.342-12.894" transform="translate(128 98)"/>
            <path fill="#FFCEAB" d="M22.23 3.836s.987 5.393.173 7.727c-.769 2.206-2.903 3.244-4.932 2.773l-.555 1.512s-3.282-.786-5.051-2.141l.537-2.743 1.805-7.574 1.324-1.271 6.7 1.717z" transform="translate(128 98)"/>
            <path fill="#272F4D" d="M20.828 5.407c1.153.064 2.056.11 2.286.12.033.002.058-.022.058-.055-.006-.612-.69-5.351-7.044-5.44-7.761-.11-7.049 9.98-8.061 15.43-.497 2.67 2.684 3.538 3.971 2.67 2.773-1.865 1.953-12.928 2.004-13.23.004-.022.025-.03.046-.023.341.128 2.916.305 5.238.443l.562-1.474.94 1.56z" transform="translate(128 98)"/>
            <path fill="#FFCEAB" d="M14.183 7.304c-.677-.287-1.96-.793-2.591-.297-.536.422-.557 1.236-.085 1.753.77.844 2.254 1.202 2.694 1.34" transform="translate(128 98)"/>
            <path fill="#272F4D" d="M12.032 7.92c-.054 0-.106-.033-.128-.086-.028-.07.007-.15.077-.178.6-.238 1.034-.024 1.052-.014.068.034.095.116.06.184-.034.067-.117.093-.184.06-.018-.008-.352-.165-.826.025-.017.006-.034.009-.05.009" transform="translate(128 98)"/>
            <path fill="#272F4D" d="M12.693 8.583c-.043 0-.086-.02-.112-.058-.007-.01-.161-.232-.322-.663-.027-.071.01-.15.08-.176.072-.027.15.01.177.08.148.396.289.6.29.603.043.062.028.147-.035.19-.023.016-.051.024-.078.024M18.667 7.366c-.295 0-.538-.236-.542-.532-.002-.076.059-.138.134-.139.08.015.14.059.14.135.003.147.141.265.273.262.147-.002.265-.124.263-.27-.001-.077.06-.139.135-.14.065.009.139.059.14.135.004.298-.235.544-.534.55h-.009zM21.237 7.366c-.295 0-.537-.236-.542-.532-.001-.076.06-.138.135-.139h.002c.075 0 .136.06.138.135.002.147.122.265.271.262.148-.002.267-.124.264-.27 0-.077.06-.139.135-.14.07.009.139.059.14.135.004.298-.235.544-.534.55h-.009zM19.568 9.83c-.105 0-.21-.01-.316-.033-.258-.057-.486-.174-.662-.34-.055-.053-.058-.139-.005-.194.052-.055.139-.057.194-.005.138.13.326.227.531.271.224.05.453.035.643-.042.07-.029.15.005.179.075.028.07-.006.15-.076.178-.15.06-.316.09-.488.09" transform="translate(128 98)"/>
            <g fill="#B18674">
                <path d="M.252.527c.013.056.07.09.126.077C.434.59.468.534.455.479.442.423.385.389.329.402.274.415.24.47.252.527M.602.881c.013.056.07.09.126.077C.784.945.818.889.805.833.792.778.735.743.679.756.624.77.59.826.602.88M.118 1.022c.013.056.07.09.125.077.056-.013.09-.069.077-.125C.307.918.25.884.195.897c-.056.014-.09.07-.077.125" transform="translate(128 98) translate(17.374 7.65)"/>
            </g>
            <path fill="#2D3962" d="M14.686 12.95c.204.34 2.326 2.32 2.416 2.386 0 0 .442-1.217.393-1.063-.02.064-.558-.028-1.175-.374-.553-.31-1.105-.732-1.44-1.004l-.194.055z" transform="translate(128 98)"/>
            <path fill="#272F4D" d="M18.464 14.486c-1.459 0-2.842-.647-3.74-1.467-.056-.052-.06-.138-.01-.194.053-.056.139-.06.195-.009 1.17 1.066 3.195 1.827 5.083 1.126.072-.027.15.01.177.08.027.071-.01.15-.08.176-.539.2-1.087.288-1.625.288" transform="translate(128 98)"/>
            <g fill="#B18674">
                <path d="M.802.514c-.017.055.015.113.07.13C.927.658.985.627 1 .572 1.018.519.986.461.931.444.877.428.818.46.801.514M.927.995c-.016.055.015.113.07.129.056.016.113-.015.13-.07.016-.054-.015-.112-.07-.129C1.002.91.944.94.927.995M.437.876c-.017.055.015.112.07.129C.562 1.02.62.99.636.935.653.88.621.822.566.806.512.79.453.821.436.876" transform="translate(128 98) translate(20.606 8.052)"/>
            </g>
            <path fill="#272F4D" d="M17.238 15.995h-.008c-.093-.006-2.333-.146-5.698-2.167-.064-.04-.085-.123-.046-.188.039-.065.124-.086.188-.047 3.306 1.986 5.549 2.127 5.571 2.128.076.004.134.069.13.144-.004.073-.065.13-.137.13M19.23 5.765c-.25-.244-.992-.108-1.205-.02 0 0-.162.195-.006.405.181.244.871.132 1.125.126.02 0 .042-.001.06-.012.022-.012.034-.036.045-.058.04-.086.073-.18.062-.274-.008-.07-.037-.124-.081-.167M21.866 5.822c-.245-.249-.99-.127-1.204-.044 0 0-.166.192-.015.405.177.248.869.15 1.123.149.02 0 .042 0 .06-.01.022-.013.035-.036.046-.058.042-.085.077-.178.068-.273-.007-.07-.035-.125-.078-.169" transform="translate(128 98)"/>
            <path fill="#FFCEAB" d="M34.026 22.788c-1.248-.119-.24-1.206 1.226-1.896.771-.363 1.491-1.126 2.115-1.49.317-.185.544-.101.649-.03.173.12.155.331.155.331.289-.064.429.338.454.424.048.166-.06.33-.06.33s.235-.023.386.332c.091.214.084.362-.023.487 0 0 .287.356.038.621-.122.13-.897.886-2.563 1.68-1.027.488-1.919.555-2.16-.086l-.217-.703z" transform="translate(128 98)"/>
            <path fill="#272F4D" d="M37.272 22.388c-.05 0-.099-.028-.123-.076-.033-.068-.005-.15.063-.184.701-.343 1.55-.873 1.558-.878.062-.04.146-.023.188.039.042.061.027.145-.034.187-.006.004-.859.539-1.591.898-.02.01-.04.014-.06.014M36.98 21.655c-.051 0-.1-.028-.124-.076-.034-.068-.005-.15.063-.184.697-.342 1.56-.951 1.567-.957.063-.044.149-.03.192.03.044.062.03.147-.03.192-.009.006-.883.626-1.608.98-.02.01-.04.015-.06.015M36.634 20.928c-.05 0-.1-.028-.123-.076-.033-.068-.005-.15.063-.184.725-.355 1.57-.954 1.605-.98.064-.042.153-.027.195.036.042.063.028.146-.035.188l-.01.005c-.026.02-.889.632-1.634.997-.02.01-.04.014-.06.014" transform="translate(128 98)"/>
            <path fill="#FFCEAB" d="M36.135 19.239c-.35-.184-.738.454-1.029 1.032-.138.273-.351.62-.35.834 0 .316 1.033-.26 1.033-.26s1.048-1.236.346-1.606" transform="translate(128 98)"/>
            <path fill="#272F4D" d="M35.964 20.595c-.03 0-.061-.01-.087-.031-.058-.049-.067-.135-.018-.193.003-.004.303-.37.386-.737.017-.074.09-.122.164-.104.074.017.12.09.104.164-.098.433-.429.835-.443.851-.027.033-.066.05-.106.05" transform="translate(128 98)"/>
            <path fill="#F4B04E" d="M13.854 18.58l-1.43 6.755 7.301 5.136s2.18 1.464 3.39 1.278c5.036-.77 13.163-7.7 13.163-7.7l-1.942-3.294-10.457 3.995-10.025-6.17z" transform="translate(128 98)"/>
            <path fill="#272F4D" d="M19.725 30.608c-.027 0-.055-.008-.079-.025l-7.302-5.136c-.062-.043-.076-.129-.033-.19.044-.062.13-.077.192-.033l7.302 5.135c.062.043.076.129.032.19-.026.038-.069.059-.112.059M20.623 22.915c-.024 0-.048-.006-.07-.02l-5.932-3.571c-.065-.04-.085-.124-.046-.188.039-.065.125-.086.188-.047l5.932 3.572c.065.04.085.124.046.188-.025.043-.071.066-.118.066" transform="translate(128 98)"/>
            <path fill="#EDB15B" d="M8.047 57.45l1.333-5.73-7.37-1.217L.159 60.607s2.52.786 3.354-1.443c.722-1.925.877-2.891.877-2.891l3.658 1.177z" transform="translate(128 98)"/>
            <path fill="#272F4D" d="M.845 60.76c-.008 0-.017 0-.025-.002-.073-.014-.12-.084-.106-.156l1.938-9.871c.015-.072.082-.118.156-.105.073.014.12.084.106.156L.976 60.653c-.012.064-.068.108-.13.108M1.423 60.79c-.008 0-.017-.001-.025-.003-.073-.014-.12-.084-.106-.156l1.926-9.788c.014-.072.082-.117.156-.105.073.014.12.084.106.156l-1.926 9.788c-.012.064-.068.107-.13.107M7.282 57.239c-.01 0-.02-.001-.03-.004-.072-.016-.116-.088-.1-.16l1.296-5.552c.016-.071.087-.116.16-.099.071.017.116.088.1.16l-1.296 5.552c-.014.061-.07.103-.13.103M6.138 56.75c-.386.01-1.14.035-1.31.264-.02.028-.042.07-.021.15.03.115.089.17.196.18.31.038.852-.315 1.135-.593m-1.097.865c-.023 0-.045-.001-.066-.003-.216-.023-.368-.158-.426-.38-.037-.142-.014-.273.066-.381.232-.313.89-.355 1.543-.371.105-.003.194-.005.256-.01.048-.005.094.018.121.058.027.041.03.094.009.137-.16.317-.964.95-1.503.95" transform="translate(128 98)"/>
            <path fill="#272F4D" d="M5.251 55.498c-.067 0-.138.027-.187.174-.022.067-.018.123.012.178.137.245.73.39 1.124.486l.105.026c-.22-.342-.715-.84-1.033-.863h-.02m1.294 1.203c-.017 0-.033-.003-.049-.009-.075-.03-.208-.062-.361-.099-.464-.113-1.1-.268-1.293-.615-.067-.12-.078-.252-.032-.39.11-.33.345-.364.48-.355.556.039 1.32.945 1.386 1.312.009.047-.01.096-.047.126-.023.02-.054.03-.084.03" transform="translate(128 98)"/>
        </g>
    </g>
</svg>
