<svg xmlns="http://www.w3.org/2000/svg" xmlns:xlink="http://www.w3.org/1999/xlink" width="40" height="37" viewBox="0 0 40 37">
    <defs>
        <path id="prefix__a" d="M31.605 35.555H0v-9.41c0-1.995 1.127-3.819 2.912-4.712l7.623-3.81v-1.275l-2.634-2.634V8.176c0-4.015 2.879-7.598 6.862-8.109 4.819-.619 8.94 3.135 8.94 7.834v5.813l-2.633 2.634v1.274l7.623 3.811c1.785.893 2.912 2.717 2.912 4.712v9.41z"/>
    </defs>
    <g fill="none" fill-rule="evenodd">
        <g>
            <mask id="prefix__b" fill="#fff">
                <use xlink:href="#prefix__a"/>
            </mask>
            <use fill="#96C247" fill-rule="nonzero" xlink:href="#prefix__a"/>
            <path fill="#76A357" fill-rule="nonzero" d="M29.663 13.168c2.905 0 5.267 2.363 5.267 5.268v2.634c1.455 0 2.634 1.178 2.634 2.633V35.72c0 1.455-1.179 2.634-2.634 2.634H24.395c-1.455 0-2.634-1.179-2.634-2.634V23.703c0-1.455 1.179-2.633 2.634-2.633v-2.634c0-2.905 2.362-5.268 5.268-5.268zm0 2.634c-1.453 0-2.634 1.181-2.634 2.634v2.633h5.266l.001-2.633c0-1.453-1.18-2.634-2.633-2.634z" mask="url(#prefix__b)"/>
        </g>
        <path fill="#FFF" fill-rule="nonzero" d="M17.119 3.951L19.753 3.951 19.753 6.584 17.119 6.584z"/>
        <g fill="#76A357" fill-rule="nonzero">
            <path d="M0 0L2.634 0 2.634 7.901 0 7.901zM15.802 0L18.436 0 18.436 7.901 15.802 7.901z" transform="translate(6.584 27.654)"/>
        </g>
        <path fill="#FFD442" fill-rule="nonzero" d="M36.905 23.704h-2.633v-3.95c0-1.453-1.182-2.635-2.634-2.635-1.453 0-2.634 1.182-2.634 2.634v3.95H26.37v-3.95c0-2.905 2.363-5.267 5.268-5.267s5.267 2.362 5.267 5.267v3.95z"/>
        <path fill="#57565C" fill-rule="nonzero" d="M36.905 35.556H26.37c-1.455 0-2.633-1.18-2.633-2.634V25.02c0-1.456 1.178-2.634 2.633-2.634h10.535c1.455 0 2.634 1.178 2.634 2.634v7.9c0 1.456-1.179 2.635-2.634 2.635z"/>
        <path fill="#B6E85E" fill-rule="nonzero" d="M30.321 27.654L32.955 27.654 32.955 30.288 30.321 30.288z"/>
    </g>
</svg>
